<?xml version="1.0" standalone="no"?><!DOCTYPE svg PUBLIC "-//W3C//DTD SVG 20010904//EN" "http://www.w3.org/TR/2001/REC-SVG-20010904/DTD/svg10.dtd"><svg version="1.0" xmlns="http://www.w3.org/2000/svg" width="1024.000000" height="572.000000" viewBox="0 0 1024.000000 572.000000" preserveAspectRatio="xMidYMid meet"><g transform="translate(0.000000,572.000000) scale(0.100000,-0.100000)" fill="#000000" stroke="none"><path d="M5590 5146 c0 -4 111 -71 130 -78 36 -13 142 -101 167 -140 l28 -42 0 -95 0 -94 13 -4 12 -5 0 39 0 40 27 14 c14 8 48 13 75 12 l49 -1 52 -26 c86 -42 151 -117 192 -221 l15 -40 -17 25 c-44 62 -110 122 -166 150 l-60 30 -46 0 c-26 0 -56 -7 -69 -16 l-23 -16 7 -21 c4 -12 9 -28 12 -36 3 -8 -16 2 -43 22 -26 20 -51 37 -55 37 -4 0 -5 23 -2 50 l5 51 -36 72 c-70 142 -145 206 -283 241 l-62 16 -144 0 -143 0 -90 -25 c-50 -14 -109 -25 -133 -25 l-43 0 -51 26 -51 26 -61 -4 c-34 -2 -81 -14 -106 -26 -25 -12 -34 -18 -20 -14 14 4 52 7 85 7 l60 0 64 -42 63 -43 32 0 c17 0 76 14 131 31 55 16 133 39 173 49 l74 19 36 -14 c20 -7 67 -27 104 -44 37 -17 70 -31 73 -31 11 0 4 27 -11 46 l-15 19 10 -22 c6 -12 11 -24 11 -27 0 -6 -159 70 -169 80 -13 14 133 -6 157 -22 13 -9 21 -11 17 -4 l-8 12 34 -7 c19 -3 57 -18 86 -31 l52 -25 29 -77 c38 -98 52 -149 52 -189 l0 -33 -18 0 c-10 0 -43 17 -73 38 -95 68 -142 90 -225 107 l-80 16 -65 -10 -64 -10 -120 -59 c-66 -33 -130 -63 -143 -67 -13 -4 -21 -9 -19 -12 3 -2 54 12 113 33 l109 37 90 5 90 4 63 -16 c67 -18 178 -63 171 -70 -2 -3 -26 0 -53 5 l-49 9 -56 -9 c-68 -11 -120 -31 -226 -88 -44 -23 -110 -50 -145 -59 l-65 -16 -80 5 c-85 5 -215 34 -215 48 0 4 41 42 91 84 l90 77 -3 17 -4 16 -37 -2 c-55 -3 -124 -39 -183 -95 l-54 -51 -30 13 c-41 17 -47 8 -21 -35 l21 -36 -9 -17 c-18 -33 -67 -71 -131 -102 -36 -17 -85 -41 -109 -53 -24 -12 -70 -47 -101 -77 l-57 -55 -41 -84 c-23 -46 -42 -91 -42 -100 1 -9 12 11 26 44 65 150 124 209 295 295 l116 58 31 36 c34 39 42 42 59 25 l12 -12 -47 -53 c-59 -66 -106 -143 -134 -220 l-22 -59 0 -105 -1 -105 34 -103 34 -102 -23 -73 -24 -72 -5 -170 -6 -170 -19 -25 -18 -25 8 70 c4 39 8 133 9 210 1 125 4 159 21 230 l5 20 -9 -15 c-6 -8 -15 -49 -22 -90 -15 -97 -44 -215 -64 -263 -35 -81 -112 -143 -210 -168 -54 -13 -61 -9 -70 44 l-7 37 74 34 c118 53 164 111 213 268 14 46 41 116 59 156 19 39 32 72 29 72 -10 0 -65 -125 -98 -225 l-36 -110 -38 -50 -37 -50 -75 -37 c-41 -21 -79 -38 -84 -38 -5 0 -6 25 -4 56 l5 55 80 77 c117 111 119 115 154 402 22 184 61 292 142 398 22 29 38 55 35 57 -2 3 -25 -8 -50 -24 -57 -36 -110 -102 -189 -236 -84 -141 -139 -207 -212 -254 -34 -23 -67 -41 -73 -41 -13 0 -24 99 -24 225 l0 90 -35 -53 c-20 -28 -38 -52 -40 -52 -21 0 37 225 78 305 31 59 138 176 205 224 l34 24 -16 -30 c-8 -17 -37 -55 -64 -84 -63 -70 -184 -253 -154 -236 5 4 28 38 51 77 23 39 69 99 101 134 33 34 71 86 85 115 l26 51 80 56 79 56 -1 16 c0 10 -3 12 -5 5 -5 -10 -100 -83 -141 -107 l-13 -7 11 28 c30 79 100 151 186 190 76 35 119 38 223 18 l90 -18 43 7 c70 10 411 89 420 96 5 4 -11 4 -35 -1 -24 -4 -77 -9 -118 -10 l-75 -2 40 -6 40 -6 -128 -29 -128 -28 -72 5 c-40 4 -109 9 -153 13 l-82 6 -58 -26 c-49 -23 -143 -85 -179 -119 l-10 -10 13 7 c16 9 17 12 -22 -68 l-33 -68 -89 -77 c-97 -83 -160 -167 -194 -258 -30 -80 -52 -188 -48 -242 l3 -46 30 47 c35 56 43 60 37 17 -3 -17 1 -78 8 -135 l13 -103 -55 -50 -55 -51 -21 -47 c-11 -27 -23 -67 -27 -90 -3 -23 -15 -59 -26 -79 -10 -21 -17 -40 -15 -42 3 -2 25 10 50 27 56 39 65 39 34 2 -14 -16 -31 -50 -38 -76 l-13 -47 13 -52 c7 -28 21 -66 31 -85 10 -19 26 -69 35 -110 20 -91 32 -116 74 -156 l31 -30 87 0 87 0 0 -20 c0 -27 -40 -45 -103 -45 l-52 0 -45 21 c-54 26 -108 86 -131 146 -9 23 -21 43 -25 43 -13 0 -11 -6 16 -60 35 -69 78 -114 133 -140 l47 -23 55 0 55 0 -40 -18 c-22 -10 -55 -19 -72 -19 -44 0 -41 -13 12 -54 51 -38 74 -65 98 -112 9 -17 32 -39 53 -49 l36 -17 74 18 c41 9 74 21 74 27 0 5 -10 6 -22 3 -13 -4 -46 -11 -74 -17 l-52 -11 -28 13 c-16 8 -44 38 -64 67 -19 29 -52 64 -72 79 -48 33 -47 39 1 47 21 3 60 20 87 38 l49 33 3 22 3 22 -23 15 -24 16 -35 -10 c-95 -28 -175 33 -194 150 -4 25 -15 66 -25 93 l-18 47 40 -32 41 -32 23 -53 c24 -53 49 -77 94 -88 l26 -6 35 24 36 24 53 -93 c29 -52 73 -114 97 -139 l44 -44 35 -7 c18 -3 40 -4 48 -1 20 8 23 -5 41 -145 9 -68 18 -129 20 -135 2 -7 -3 -13 -11 -13 -8 0 -13 4 -10 9 4 5 -3 7 -13 4 -11 -3 -36 0 -56 7 l-37 12 -19 42 c-10 22 -19 33 -19 23 0 -27 27 -75 49 -87 11 -5 35 -10 54 -10 l34 0 -7 -43 c-3 -23 -12 -52 -18 -64 -7 -12 -15 -52 -19 -88 l-8 -67 -36 -12 c-85 -29 -119 -70 -168 -196 -51 -129 -85 -184 -187 -291 l-93 -98 -7 -36 -6 -35 -23 0 c-37 0 -88 -26 -258 -131 -89 -56 -231 -140 -315 -187 l-153 -85 3 -15 3 -15 70 -22 c263 -81 487 -322 621 -669 12 -34 23 -55 24 -48 0 8 -12 44 -26 80 -129 324 -349 562 -596 644 -84 28 -87 32 -36 61 23 13 97 55 163 92 66 37 170 99 230 138 128 83 248 147 275 147 l18 0 40 -83 c88 -180 366 -505 500 -584 l43 -26 72 1 c40 1 137 15 217 32 80 16 175 30 213 30 l67 0 0 -15 c0 -8 -11 -63 -25 -121 -31 -129 -31 -158 -4 -185 45 -45 509 -244 662 -284 l67 -18 25 11 c32 15 32 33 -5 134 -16 45 -30 84 -30 87 1 10 30 -32 72 -102 22 -38 42 -66 45 -64 2 3 -20 59 -51 125 -55 122 -86 209 -86 246 l0 20 16 -22 15 -22 28 0 c15 0 35 8 44 18 l17 19 0 42 0 42 -25 24 c-29 30 -45 31 -79 4 -14 -11 -26 -16 -26 -10 0 21 54 71 139 130 98 67 162 133 178 183 l11 33 1 -51 c4 -186 -71 -595 -135 -741 -13 -29 -19 -53 -15 -53 23 0 78 175 115 360 28 144 42 263 51 440 l7 125 -16 100 c-9 55 -34 158 -56 228 -39 126 -51 207 -29 207 32 0 103 -100 285 -406 11 -19 68 -83 126 -142 57 -59 118 -127 135 -152 43 -64 93 -166 93 -190 l0 -21 -22 6 c-13 4 -68 25 -122 46 -55 22 -106 37 -113 34 l-14 -5 11 -19 c5 -11 46 -58 90 -106 l80 -86 0 -28 c0 -40 -44 -102 -164 -231 -111 -119 -233 -258 -179 -205 233 231 363 388 363 441 l0 21 -90 98 c-50 54 -88 100 -86 103 3 2 46 -12 96 -33 50 -20 107 -39 126 -42 l34 -6 6 16 c18 49 -97 234 -240 384 -54 57 -95 103 -92 103 3 0 29 -13 58 -28 29 -16 140 -73 245 -126 106 -54 218 -114 248 -134 l56 -37 24 -50 c13 -27 41 -106 60 -175 20 -69 46 -156 58 -195 l22 -70 3 41 c2 23 -8 95 -21 160 l-24 119 -37 79 c-44 96 -44 102 -5 79 51 -29 140 -134 196 -229 71 -121 79 -130 42 -54 -81 167 -206 310 -271 310 -25 0 -23 -6 22 -102 37 -80 81 -242 79 -290 l-1 -23 -5 20 c-22 96 -80 281 -103 330 l-29 60 -63 41 c-35 23 -180 100 -322 173 -143 73 -267 142 -276 154 -9 12 -48 76 -87 142 -76 128 -143 219 -175 236 l-19 10 -15 -12 c-8 -6 -14 -8 -15 -3 -1 5 -5 -2 -9 -16 -5 -14 -6 -64 -3 -111 l6 -87 -13 -67 -13 -67 -16 -5 c-65 -22 -131 -52 -124 -56 5 -3 28 3 52 14 58 25 72 24 39 -5 -23 -20 -104 -45 -112 -34 -1 1 0 28 2 59 l4 56 34 16 c64 31 124 146 124 239 0 49 -8 48 -45 -8 -26 -38 -77 -89 -146 -142 l-17 -12 -28 10 -29 11 -62 -11 -62 -10 -37 15 c-65 27 -172 10 -175 -28 0 -6 -5 2 -10 20 -14 47 -168 168 -299 233 -112 56 -270 109 -270 91 0 -9 143 -116 255 -191 91 -61 277 -160 301 -160 l16 0 -7 -17 c-3 -10 -11 -40 -18 -66 l-11 -49 -29 6 c-42 8 -99 -9 -127 -39 l-23 -24 12 -15 c21 -25 80 -39 134 -33 l50 6 -22 -22 -21 -23 0 -33 c0 -17 7 -46 16 -64 17 -34 142 -167 158 -167 5 0 -25 36 -67 79 l-76 79 -12 41 -12 40 17 26 c25 38 41 40 80 10 l36 -27 -10 -18 c-17 -31 -12 -59 25 -141 20 -42 34 -83 33 -90 -2 -6 3 -14 11 -17 l14 -5 -7 19 -7 18 22 -20 21 -19 -41 66 c-22 36 -48 87 -57 112 l-16 47 16 24 15 25 38 -11 c42 -11 149 -3 208 18 l39 13 20 -17 c23 -21 46 -73 46 -105 0 -13 -16 -55 -35 -94 -19 -40 -43 -102 -52 -140 -10 -37 -18 -70 -20 -72 -3 -6 -106 70 -133 98 -14 15 -20 20 -15 12 6 -9 -12 -3 -40 13 -27 16 -79 44 -114 64 -58 32 -103 70 -286 241 -33 31 -148 138 -255 238 -107 99 -220 207 -250 240 l-55 58 65 -61 c245 -229 368 -327 473 -372 69 -31 57 -18 -20 22 -90 45 -122 70 -293 223 -236 211 -300 293 -300 384 l1 44 28 -60 c15 -34 42 -77 60 -97 32 -37 269 -223 276 -217 1 2 -56 51 -128 109 -74 60 -144 125 -163 152 -39 58 -76 164 -68 196 l7 23 62 -68 c34 -37 83 -83 108 -101 l46 -33 -104 106 c-58 58 -110 105 -116 105 l-11 0 7 78 c4 42 11 84 16 92 l8 15 6 -20 c30 -100 140 -256 227 -322 102 -79 396 -208 588 -259 l95 -26 130 -5 130 -5 55 15 c30 8 84 27 120 41 l65 25 -40 -35 c-136 -120 -303 -143 -523 -72 -80 25 -92 18 -15 -10 109 -39 188 -55 273 -56 l86 0 49 18 c55 21 159 85 151 94 -3 3 -12 -1 -21 -8 -9 -7 -18 -11 -21 -8 -9 9 99 89 151 112 28 13 57 31 65 41 l15 18 -1 47 c-2 61 -28 151 -52 180 l-19 23 40 66 c76 124 122 252 142 393 l7 47 42 25 c22 13 52 36 65 50 l24 26 -24 1 -24 1 25 7 25 7 -15 5 c-8 3 -33 0 -55 -7 l-40 -12 43 -7 43 -8 -48 -34 -48 -34 -4 12 c-2 6 11 72 29 146 l33 134 14 -33 c8 -18 21 -40 30 -50 l16 -18 41 0 c23 0 48 4 56 10 25 15 7 19 -37 7 l-42 -11 -21 19 c-12 11 -28 35 -37 55 l-14 35 6 35 c3 19 10 132 15 250 10 233 23 405 42 515 15 95 13 218 -6 290 -22 84 -11 81 14 -4 l22 -72 -6 -114 c-3 -63 -9 -166 -12 -229 l-6 -114 17 -54 18 -53 75 -73 c41 -40 77 -70 81 -67 3 4 -7 16 -24 28 -62 46 -92 77 -120 128 l-29 53 -4 76 c-2 41 3 133 13 204 17 135 15 191 -12 285 -32 116 -142 300 -252 424 -60 67 -86 105 -78 113 2 2 25 -23 50 -56 45 -58 78 -86 215 -185 l62 -45 37 -57 c19 -31 47 -84 61 -117 l25 -61 0 -55 c0 -60 -20 -110 -55 -134 -12 -9 -18 -19 -14 -23 13 -13 64 59 76 106 l11 43 -12 57 c-15 75 -70 182 -122 238 -23 25 -77 70 -119 100 -69 48 -218 195 -218 214 0 13 60 21 98 14 83 -16 171 -82 232 -177 l37 -57 7 -49 6 -48 50 -60 c66 -79 107 -148 126 -213 l16 -53 -4 -72 -3 -71 -33 -70 -32 -70 25 30 c50 60 74 178 55 271 -16 77 -52 149 -107 215 -55 67 -83 109 -83 129 l0 15 11 -15 11 -15 -7 20 c-4 11 -20 58 -36 104 -16 46 -40 102 -53 126 -50 85 -163 161 -256 172 l-48 6 -32 -17 c-41 -20 -39 -20 -33 4 15 58 -38 157 -115 214 -43 31 -218 136 -228 136 -2 0 -4 -2 -4 -4z m-690 -71 l49 -25 56 0 c30 0 87 9 127 19 40 11 93 23 117 26 l44 7 -7 -11 c-4 -6 -15 -11 -25 -11 -10 0 -75 -18 -144 -40 -68 -22 -136 -40 -150 -40 -13 0 -47 16 -75 35 -28 19 -66 41 -84 49 l-33 14 38 1 c22 1 58 -9 87 -24z m940 -217 c16 -31 32 -74 36 -95 l6 -39 -20 -24 -20 -25 -164 -1 c-193 -1 -242 -10 -396 -73 -65 -27 -148 -59 -187 -72 l-70 -24 -115 0 -115 0 -53 24 -53 24 21 22 21 23 62 -20 c36 -12 104 -22 160 -25 l99 -6 56 13 c32 6 107 38 167 70 61 31 134 63 164 70 l53 12 72 -5 c39 -4 84 -9 100 -13 l29 -7 -7 11 c-11 19 -99 63 -176 89 l-75 26 -80 0 c-44 0 -107 -8 -140 -16 l-60 -16 19 14 c11 8 45 25 75 37 l56 22 85 4 86 4 58 -17 c33 -10 96 -43 147 -77 l89 -59 23 3 22 3 3 40 3 40 -30 90 -30 90 25 -30 c14 -16 38 -56 54 -87z m-920 -72 c0 -2 -43 -41 -95 -86 l-96 -82 -29 12 c-17 7 -30 15 -30 19 0 26 104 107 165 129 30 10 85 16 85 8z m1088 -221 c109 -103 168 -182 221 -297 71 -153 85 -265 57 -451 -8 -50 -18 -137 -22 -192 l-7 -100 -7 35 c-3 19 -12 46 -19 58 -14 27 -95 67 -117 58 -8 -3 -47 8 -88 24 -121 49 -177 35 -221 -53 l-24 -48 -4 38 -4 38 0 -55 c0 -30 -5 -68 -11 -83 -15 -35 -15 -100 -2 -146 5 -19 19 -87 30 -150 12 -64 32 -141 46 -171 14 -31 26 -66 27 -77 0 -12 5 -19 9 -17 4 3 8 -10 7 -28 l0 -33 -9 20 -9 20 0 -21 c-1 -29 -40 -62 -86 -73 l-40 -9 23 -1 c32 -1 88 24 101 46 6 10 11 13 11 7 0 -18 -40 -63 -70 -79 -59 -31 -108 -20 -189 42 l-44 33 -34 0 -35 0 -5 -20 c-7 -27 -17 -25 -42 6 l-21 27 0 46 c0 105 79 131 163 53 l28 -26 16 10 c9 6 18 17 20 25 3 8 0 7 -7 -3 -16 -25 -28 -23 -71 17 l-39 35 -33 0 -33 0 -41 -35 c-52 -44 -117 -131 -108 -145 4 -6 2 -9 -4 -8 -6 2 -25 -22 -42 -52 -50 -86 -6 -39 67 72 35 54 65 98 67 98 1 0 1 -19 -1 -42 l-3 -43 20 -32 20 -31 58 -12 c32 -7 65 -16 73 -21 l15 -8 -25 -1 c-27 0 -73 -25 -133 -72 l-38 -30 -21 5 c-60 16 -180 -99 -177 -170 l1 -18 5 13 c2 6 9 9 14 6 6 -3 16 -1 23 5 7 6 20 9 28 6 8 -3 21 1 28 9 l12 16 23 -6 c20 -5 95 11 150 32 8 3 15 2 15 -4 0 -10 -109 -46 -173 -57 l-39 -6 -35 -33 c-20 -18 -34 -38 -32 -44 l4 -12 30 25 30 25 -20 -6 -20 -6 15 10 c8 6 17 9 21 6 4 -2 19 1 33 7 l25 12 68 -28 68 -27 70 -5 70 -6 -60 -58 -60 -59 48 21 c50 21 134 28 176 15 l24 -8 -7 10 c-10 17 -93 25 -138 14 -56 -15 -59 -8 -8 18 l43 22 41 -5 c22 -2 52 -8 66 -13 l25 -7 -15 17 c-8 10 -26 23 -40 29 l-25 11 55 5 c32 4 70 16 90 28 43 28 36 29 -23 3 l-45 -20 -133 -2 -134 -3 -55 19 c-30 10 -59 22 -63 26 -13 12 68 23 208 28 193 7 239 6 279 -8 l37 -12 29 -40 c38 -52 45 -94 31 -180 -20 -121 -76 -208 -153 -237 -13 -5 -97 -12 -185 -16 l-161 -6 -63 16 c-35 9 -115 44 -176 76 -62 33 -118 57 -124 54 -6 -4 2 -14 19 -23 17 -10 56 -38 89 -65 135 -109 320 -147 518 -105 61 13 102 32 138 66 36 35 34 22 -9 -46 -58 -90 -120 -159 -167 -181 l-43 -21 -97 0 c-90 0 -197 16 -277 42 l-35 11 -195 191 -195 191 -132 89 c-72 48 -145 103 -163 121 l-31 32 -14 89 c-8 49 -15 103 -14 119 l0 30 18 -50 c29 -81 66 -147 111 -198 66 -75 239 -200 359 -262 78 -39 74 -29 -4 13 -83 44 -142 83 -252 169 l-81 63 -45 67 c-82 124 -140 345 -176 669 l-9 78 -21 18 -22 17 -29 -11 c-16 -5 -61 -39 -99 -74 l-69 -64 -5 12 c-3 7 -6 2 -7 -12 l-2 -25 -17 50 -18 50 63 15 c73 19 136 60 175 114 31 41 69 135 69 166 0 11 5 20 10 20 14 0 13 -37 -5 -170 -8 -62 -13 -115 -10 -118 10 -10 35 9 52 40 l17 33 -2 141 -2 140 25 74 c31 92 31 118 0 209 -75 220 -36 410 118 585 l44 50 34 -16 c69 -32 116 -41 199 -41 106 1 175 19 363 94 176 70 249 84 407 76 l115 -6 35 13 35 12 25 -12 c14 -7 67 -51 118 -99z m-1524 -187 c-5 -7 -22 -31 -39 -54 -64 -83 -104 -219 -125 -429 -15 -146 -26 -193 -55 -236 -23 -36 -127 -126 -216 -186 -90 -62 -129 -124 -94 -153 l15 -12 0 10 c0 6 -4 14 -10 17 -5 3 -10 10 -10 15 0 16 62 80 108 112 l44 30 -6 -19 c-4 -11 -8 -42 -10 -68 l-4 -49 -38 -28 c-21 -15 -34 -28 -30 -28 4 0 20 10 36 22 35 25 36 25 45 -26 l8 -39 -29 7 c-16 4 -42 14 -59 22 l-30 14 24 -20 c13 -11 41 -23 62 -26 l38 -6 20 -61 21 -61 -22 -23 -21 -23 -37 0 -37 0 -20 23 c-12 12 -29 41 -38 64 l-17 42 -45 37 c-25 20 -54 51 -64 68 l-19 31 0 48 c0 60 28 117 76 154 67 51 105 86 100 90 -3 3 -52 -24 -110 -60 -58 -37 -106 -62 -106 -58 0 5 27 35 59 66 63 60 115 147 129 210 l7 38 65 39 c36 22 78 52 94 66 34 33 106 137 171 251 27 46 74 110 106 143 54 55 80 74 63 46z m-520 -585 c-11 -53 -56 -131 -96 -170 l-41 -38 7 44 c9 58 30 97 79 149 48 49 60 52 51 15z m1921 -93 c-30 -20 -64 -58 -65 -73 0 -4 17 10 38 33 l39 40 32 0 c17 0 50 -10 73 -21 23 -12 74 -25 112 -30 l71 -9 23 -25 c12 -15 22 -37 22 -50 l0 -24 -24 24 -23 23 -49 6 c-27 4 -83 14 -125 22 -69 15 -99 15 -181 1 l-28 -5 15 26 c20 38 37 57 60 70 34 19 42 13 10 -8z m118 -100 l22 -9 -47 0 c-76 -1 -140 -37 -179 -100 l-17 -26 9 -22 c5 -13 17 -23 28 -23 20 0 92 -29 76 -30 -5 -1 8 -10 30 -20 49 -23 116 -25 155 -5 l30 16 0 -11 c0 -6 -11 -22 -25 -35 l-24 -25 -36 0 c-38 0 -78 17 -135 57 l-35 25 40 -36 c36 -32 109 -66 141 -66 22 0 74 51 89 87 l15 35 16 -17 16 -16 19 17 c11 10 26 41 35 71 8 29 17 53 19 53 2 0 2 -82 1 -182 l-3 -183 -17 -90 c-10 -49 -26 -121 -37 -160 -11 -38 -31 -135 -44 -215 -32 -181 -67 -284 -139 -405 -31 -52 -59 -95 -61 -95 -2 0 2 18 10 41 21 59 29 158 16 204 -6 23 -26 55 -45 74 -20 19 -33 38 -30 42 3 5 -27 25 -67 44 -39 20 -69 39 -66 41 3 3 18 -1 34 -9 15 -8 42 -18 60 -21 17 -4 37 -14 44 -22 16 -20 32 -18 25 4 l-6 17 13 -17 c8 -10 17 -15 20 -11 4 3 9 -2 13 -11 3 -9 12 -16 20 -16 l14 0 0 35 c0 48 -23 89 -64 117 -18 13 -55 43 -80 66 l-47 43 26 21 c14 11 33 34 42 51 l16 31 28 -59 c16 -33 26 -51 23 -40 -4 11 -16 47 -26 80 -11 33 -26 78 -33 100 -7 22 -25 67 -39 101 -28 67 -59 220 -73 361 l-5 51 18 37 17 38 41 19 41 19 48 -6 c26 -3 57 -10 70 -15z m145 -26 c41 -6 72 -36 72 -69 0 -35 -30 -105 -45 -105 l-12 0 -6 52 -6 51 -23 25 c-13 13 -41 32 -63 42 l-40 18 45 -5 c25 -2 60 -6 78 -9z m-92 -23 c43 -20 84 -63 84 -89 l0 -16 -27 26 c-84 78 -192 81 -293 9 l-35 -25 35 38 c19 21 49 47 65 57 l30 19 50 0 c28 0 68 -9 91 -19z m-48 -62 c4 -23 -37 -69 -62 -69 -33 0 -66 28 -66 56 0 13 5 24 10 24 6 0 10 -7 10 -15 0 -8 9 -19 20 -25 l20 -11 20 11 c11 6 20 20 20 31 0 23 23 21 28 -2z m82 -29 l11 -20 -25 -25 -25 -25 -61 0 c-59 0 -86 13 -33 17 34 2 63 36 63 74 l0 30 30 -16 c16 -8 34 -24 40 -35z m-1740 -186 c-16 -42 -11 -84 17 -140 33 -65 24 -80 -20 -35 -18 18 -51 46 -75 62 -24 17 -42 35 -39 42 5 15 104 97 117 97 l10 0 -10 -26z m56 -65 c6 -46 21 -144 34 -218 l22 -133 -13 -9 c-8 -5 -28 -9 -46 -9 l-32 0 -37 33 c-37 32 -103 127 -144 207 -21 40 -21 78 0 65 5 -3 7 0 4 8 -3 8 3 20 12 28 l16 13 20 -27 c11 -15 26 -27 34 -27 8 0 34 -21 59 -46 l44 -47 17 7 16 6 -7 27 c-3 15 -15 39 -26 54 l-19 27 0 50 c0 114 31 108 46 -9z m1222 -376 l57 -38 52 0 52 0 77 -60 c83 -65 114 -99 114 -124 0 -9 -11 2 -24 23 l-23 39 -5 -14 -5 -14 -65 68 c-36 37 -71 67 -78 67 l-12 0 16 -22 c44 -61 87 -130 83 -134 -3 -3 -30 32 -62 76 -31 45 -59 79 -62 77 -6 -6 28 -67 37 -67 3 0 6 -9 7 -20 3 -30 -3 -25 -33 30 -27 50 -38 59 -49 40 -9 -15 -25 -12 -25 5 0 8 -5 15 -10 15 -6 0 -23 11 -38 25 -15 14 -47 31 -71 39 -25 7 -47 19 -49 26 l-5 13 32 -6 c18 -4 58 -24 89 -44z m-59 -55 c-6 -13 -17 -30 -24 -38 -7 -8 -18 -33 -25 -55 -7 -22 -17 -46 -23 -52 -14 -18 -30 -16 -23 3 3 9 -10 2 -30 -16 -20 -17 -42 -29 -50 -26 -7 3 -16 1 -19 -4 -4 -6 -11 -10 -17 -10 -7 0 1 13 17 30 30 31 48 33 24 3 l-14 -18 15 12 c9 6 26 29 38 51 l21 39 -15 0 c-8 0 -29 -20 -45 -44 -17 -23 -32 -43 -34 -43 -2 0 -11 -3 -20 -6 l-16 -6 21 38 21 39 -18 -25 c-10 -13 -29 -37 -42 -53 l-24 -28 -10 10 -10 10 18 28 c10 15 29 40 42 54 l25 27 19 -5 c10 -3 30 2 44 11 14 9 25 13 25 9 0 -5 5 0 11 10 6 9 14 15 19 12 5 -3 14 4 20 16 19 34 21 16 5 -36 -18 -63 -13 -69 9 -11 19 49 52 96 67 96 6 0 5 -9 -2 -22z m40 15 c-2 -25 -66 -157 -78 -161 l-13 -4 7 23 c23 73 88 182 84 142z m34 -50 c7 -37 -3 -85 -17 -80 -6 3 -19 -2 -28 -11 l-18 -15 -5 15 c-7 17 22 95 31 85 3 -3 -2 -19 -11 -37 -9 -17 -14 -37 -12 -43 6 -16 39 61 41 95 1 32 12 28 19 -9z m84 -90 l22 -23 -30 -15 -29 -16 -48 15 -47 14 30 7 c42 11 55 23 56 54 l0 26 12 -19 c7 -11 22 -30 34 -43z m-70 -59 c14 -4 42 -1 62 6 l38 12 49 -26 49 -27 -35 8 c-19 4 -46 6 -60 6 -14 -1 -81 -4 -150 -5 -69 -2 -132 -8 -140 -12 l-15 -9 10 11 c14 14 137 51 153 46 8 -2 25 -7 39 -10z m-1147 -114 c0 -10 98 -86 200 -155 124 -84 178 -132 340 -295 80 -81 163 -156 185 -167 41 -21 167 -52 214 -54 14 0 20 -3 12 -6 -61 -25 -413 90 -646 210 l-79 42 -68 64 c-121 114 -188 237 -188 344 l1 62 14 -19 c8 -11 15 -23 15 -26z m-112 -246 c-15 -8 -35 -28 -43 -44 -65 -127 64 -285 705 -865 206 -186 460 -441 565 -567 l80 -95 41 -99 c47 -112 68 -180 59 -194 -11 -19 -80 -10 -175 22 -113 37 -476 192 -543 231 l-47 28 1 47 c0 26 10 92 23 147 13 55 21 108 18 119 l-5 19 -86 -6 c-47 -3 -151 -20 -231 -36 -216 -46 -251 -43 -347 30 -110 82 -365 392 -438 530 l-35 67 0 46 0 46 98 102 97 103 36 70 c20 39 51 107 69 153 l32 83 37 30 c20 16 50 34 66 38 45 14 53 12 23 -5z m16 -51 c3 -21 6 -70 6 -109 l0 -70 30 -47 c16 -26 28 -47 25 -47 -12 0 -99 137 -110 175 l-14 44 9 32 c10 33 27 59 40 59 4 0 10 -17 14 -37z m1598 -73 c6 -19 12 -63 12 -97 l1 -62 -20 -20 c-12 -12 -67 -33 -130 -50 -60 -16 -119 -33 -130 -37 l-20 -8 43 47 c45 50 142 193 142 210 0 6 12 30 26 55 l27 45 18 -24 c10 -13 24 -40 31 -59z m-622 -55 l65 -17 160 4 160 4 40 17 40 17 -23 -20 c-37 -31 -118 -51 -232 -57 l-105 -6 -65 17 c-83 21 -175 65 -220 105 l-35 31 75 -39 c41 -22 104 -47 140 -56z m-515 -138 c160 -58 453 -262 422 -293 -7 -7 -181 85 -278 148 -89 58 -239 166 -239 173 0 4 37 -6 95 -28z m1026 -175 c-17 -69 -64 -146 -106 -172 -20 -12 -37 -21 -39 -19 -6 10 -26 61 -26 67 0 5 22 25 49 46 28 20 67 59 87 86 21 27 40 48 42 45 2 -2 -1 -26 -7 -53z m130 -249 c7 -37 14 -113 14 -168 l0 -100 -22 -41 c-26 -49 -76 -95 -174 -162 -94 -63 -117 -89 -141 -154 l-19 -53 6 55 c7 59 55 190 115 310 53 107 126 322 140 415 7 44 14 87 17 95 6 18 46 -105 64 -197z m-560 141 l44 -16 77 7 77 6 20 -11 c12 -6 28 -25 37 -42 l16 -32 -4 -68 c-8 -111 -46 -144 -176 -154 l-67 -5 35 18 c59 32 88 53 104 78 l16 24 -15 -5 c-8 -4 -15 -10 -15 -14 0 -14 -78 -61 -124 -75 -25 -8 -46 -12 -46 -10 0 3 20 23 44 46 43 39 106 126 106 145 0 5 -15 -14 -34 -41 -19 -28 -53 -68 -77 -90 -24 -22 -37 -32 -30 -22 8 9 11 21 7 25 -4 4 -17 -5 -28 -21 -27 -37 -41 -34 -99 20 l-50 47 6 40 c12 77 29 117 58 142 33 28 58 30 118 8z m-210 -176 c8 -7 26 -26 41 -43 l27 -30 -87 6 c-129 8 -152 26 -81 61 40 21 79 23 100 6z m620 -60 c-30 -84 -58 -153 -94 -225 -18 -38 -49 -106 -68 -153 l-34 -85 0 -117 c0 -64 -2 -114 -6 -110 -64 83 -105 130 -214 247 -71 77 -117 132 -102 122 15 -10 51 -32 80 -49 29 -17 88 -55 131 -85 l79 -54 8 13 c5 7 13 35 19 62 6 27 28 87 50 134 l40 85 0 39 c0 42 -11 71 -42 104 l-19 21 17 29 17 29 38 1 c21 1 53 11 71 22 47 29 49 28 29 -30z m-47 -520 c22 -31 20 -81 -3 -102 -28 -26 -53 -16 -75 27 l-18 38 12 29 12 30 29 0 28 0 15 -22z m-70 -242 c14 -36 23 -66 21 -66 -2 0 -18 24 -36 53 l-33 52 -3 90 -3 90 15 -77 c8 -42 26 -106 39 -142z"/><path d="M5200 3720 l-155 -6 -71 -37 c-78 -41 -132 -84 -136 -107 -2 -8 -7 -18 -13 -22 -30 -22 37 -3 109 32 l83 40 39 0 39 -1 -30 -16 c-16 -8 -50 -32 -75 -53 -25 -20 -56 -42 -69 -49 l-24 -13 -41 6 -41 6 18 -11 c19 -11 78 -8 109 5 l16 8 -2 -18 c-2 -10 -15 -27 -30 -39 l-27 -20 -47 0 c-26 0 -60 4 -77 8 l-30 8 11 -11 c7 -6 38 -14 71 -17 l59 -5 31 16 c18 9 51 38 74 66 51 61 90 85 162 100 l56 11 38 -10 c21 -6 62 -31 91 -55 29 -25 62 -48 75 -52 12 -3 31 -14 42 -23 l20 -16 -18 22 -19 21 12 21 c6 12 9 39 6 61 l-4 39 31 -5 c18 -3 37 -7 43 -9 l11 -3 -7 36 c-14 76 -49 103 -128 100 -26 -1 -117 -4 -202 -8z m302 -42 c10 -13 18 -30 18 -38 0 -8 -9 -1 -19 16 -31 50 -42 49 -14 -1 l25 -46 -28 7 c-16 4 -49 13 -74 20 -25 8 -70 14 -100 14 l-55 1 85 28 c96 33 136 32 162 -1z m-192 17 c0 -16 -87 -36 -196 -45 l-125 -11 -19 -19 c-11 -11 -26 -20 -32 -20 -7 1 -2 7 12 16 l25 15 -25 -7 c-14 -3 -29 -10 -34 -15 -6 -5 -14 -9 -20 -9 -14 0 51 47 98 72 21 10 35 15 32 9 -4 -6 6 -4 21 4 l28 15 118 0 c64 0 117 -2 117 -5z m100 -78 l25 -13 0 -48 c0 -29 -5 -51 -12 -53 -6 -2 -37 18 -67 46 -31 28 -68 53 -83 57 -16 3 -39 10 -53 14 l-25 8 95 1 95 1 25 -13z"/><path d="M5124 3546 c-52 -13 -68 -21 -122 -68 -37 -31 -41 -43 -12 -35 11 3 23 0 27 -5 l6 -11 -14 7 c-8 4 -2 -4 14 -18 15 -14 46 -30 70 -37 46 -12 148 -6 175 12 l17 11 -20 -7 c-11 -3 -49 -8 -85 -10 l-65 -4 60 9 c33 5 80 16 104 24 24 9 56 16 72 16 43 0 46 20 8 51 -76 63 -153 85 -235 65z m86 -44 c0 -35 -30 -64 -65 -64 -30 0 -65 28 -65 53 0 29 19 32 30 5 l10 -26 23 0 c28 0 47 17 47 42 0 10 5 18 10 18 6 0 10 -13 10 -28z m86 1 c13 -8 24 -24 24 -35 l0 -19 -35 -15 c-19 -8 -58 -19 -86 -25 l-52 -11 -40 12 c-21 6 -46 14 -56 17 l-16 5 19 -16 c25 -20 8 -21 -18 -1 l-20 15 13 0 13 0 -12 15 -13 15 18 20 18 20 18 -29 c34 -57 93 -68 136 -25 l25 25 -4 30 -5 30 25 -6 c13 -3 35 -13 48 -22z"/><path d="M4980 3400 c6 -11 29 -32 51 -47 l39 -26 50 -5 c58 -5 124 11 160 39 l25 20 -41 -21 c-23 -11 -64 -23 -93 -27 l-51 -6 -45 17 c-24 10 -56 31 -69 47 -29 34 -42 38 -26 9z"/><path d="M5375 3310 c-58 -59 -127 -106 -170 -115 l-30 -6 46 25 c47 25 149 112 149 126 0 5 -23 -14 -51 -41 -28 -27 -78 -64 -112 -80 l-61 -31 -58 4 c-62 5 -59 -7 4 -17 53 -9 139 11 190 45 54 37 166 139 153 140 -6 0 -33 -23 -60 -50z"/><path d="M5790 3362 c0 -13 87 -124 118 -150 15 -13 46 -33 70 -44 l43 -19 28 6 c35 8 74 48 95 99 22 54 20 55 -14 8 -34 -48 -61 -57 -133 -49 l-52 6 15 -9 c8 -5 38 -10 65 -10 l51 0 23 17 24 16 -5 -13 c-2 -8 -16 -23 -31 -34 l-27 -20 -36 1 c-20 1 -52 12 -75 27 l-40 27 7 12 c4 7 3 9 -1 5 -9 -9 -54 37 -92 95 -26 37 -33 44 -33 29z"/><path d="M4462 4985 c-90 -25 -186 -84 -217 -132 l-18 -28 47 43 c62 57 158 101 246 113 l70 10 141 -15 c78 -9 167 -15 198 -15 l56 1 -125 14 c-69 7 -174 16 -235 19 l-110 5 -53 -15z"/><path d="M6475 3803 l-17 -58 4 -53 5 -53 20 -27 c11 -15 35 -34 53 -43 l33 -16 -17 -6 c-31 -12 -96 -7 -121 9 -13 8 -30 33 -39 55 -21 51 -26 50 -15 -3 5 -24 29 -72 53 -108 54 -80 72 -119 85 -190 l10 -55 -3 61 -4 60 -22 45 c-13 24 -33 58 -45 74 -12 17 -25 35 -29 42 l-6 12 31 -16 31 -15 36 6 c21 3 49 18 67 36 l30 30 -31 -6 c-43 -8 -72 10 -95 59 -23 51 -23 76 -4 151 20 77 12 84 -10 9z"/><path d="M6403 3367 c68 -65 85 -144 47 -222 -11 -23 -33 -51 -50 -63 l-30 -23 1 -32 2 -32 4 25 c3 14 22 43 43 65 46 47 60 80 60 142 0 60 -24 107 -74 145 l-41 31 38 -36z"/><path d="M4829 1657 c41 -50 209 -119 331 -136 l75 -10 14 13 13 14 -78 30 c-119 45 -271 92 -323 99 l-46 6 14 -16z m143 -32 c62 -19 147 -48 188 -64 l75 -30 -32 0 c-75 -2 -275 64 -333 109 -33 26 -29 25 102 -15z"/><path d="M5640 1274 c-26 -66 -51 -176 -48 -207 l3 -32 39 113 c21 62 36 115 34 117 -2 3 -14 -27 -27 -66 -12 -39 -25 -69 -27 -66 -3 2 7 40 20 83 24 75 28 117 6 58z"/><path d="M3051 1128 l-43 -21 -45 -61 c-25 -34 -58 -87 -74 -118 -33 -65 -131 -309 -127 -314 2 -1 32 64 66 145 86 204 144 295 217 345 l38 26 55 0 55 0 62 -31 c168 -82 308 -234 544 -587 l82 -123 12 8 12 8 -15 3 c-8 1 -44 48 -80 104 -216 338 -410 545 -578 614 -71 29 -125 30 -181 2z"/></g></svg>