<?xml version="1.0" standalone="no"?><!DOCTYPE svg PUBLIC "-//W3C//DTD SVG 20010904//EN" "http://www.w3.org/TR/2001/REC-SVG-20010904/DTD/svg10.dtd"><svg version="1.0" xmlns="http://www.w3.org/2000/svg" width="1024.000000" height="572.000000" viewBox="0 0 1024.000000 572.000000" preserveAspectRatio="xMidYMid meet"><g transform="translate(0.000000,572.000000) scale(0.100000,-0.100000)" fill="#000000" stroke="none"><path d="M4920 5124 c-412 -75 -749 -377 -904 -812 -32 -90 -66 -256 -65 -314 l1 -43 13 95 c20 140 58 259 129 405 187 381 480 603 876 661 l115 16 63 -5 c34 -4 70 -11 79 -16 l17 -9 -34 -6 c-19 -3 -69 -10 -110 -16 -242 -31 -454 -134 -619 -300 -123 -123 -181 -232 -256 -480 -25 -85 -62 -187 -81 -227 l-34 -72 -78 -84 -77 -83 -6 40 -6 41 -1 -53 c-1 -29 -12 -81 -24 -115 l-21 -62 -1 -100 0 -100 23 -58 c13 -32 42 -87 66 -123 24 -36 51 -90 60 -122 23 -78 49 -126 97 -178 51 -56 89 -79 179 -109 40 -14 80 -32 90 -41 48 -43 90 -264 92 -479 l1 -150 -19 -75 c-10 -41 -31 -105 -47 -143 l-29 -67 10 -38 c22 -79 124 -206 238 -293 29 -23 51 -44 49 -46 -9 -10 -172 136 -223 200 -63 77 -83 121 -83 182 0 25 -5 45 -10 45 -20 0 -317 -230 -328 -254 -15 -33 -6 -55 23 -62 13 -3 22 -11 20 -17 -2 -7 -6 -26 -9 -43 l-5 -31 34 -39 35 -39 27 -2 c16 -2 36 -3 46 -4 l19 0 -13 -15 -12 -15 13 -42 c17 -53 28 -67 52 -67 11 0 26 -6 33 -14 l14 -14 42 2 41 2 -5 -32 -5 -32 13 -19 c8 -10 15 -26 15 -35 0 -19 39 -50 52 -42 5 3 14 1 21 -4 7 -6 35 -9 62 -9 l50 2 13 -24 c6 -13 12 -27 12 -33 0 -5 15 -24 33 -42 l32 -33 60 -1 60 0 17 15 16 14 16 -28 c8 -15 20 -38 25 -51 6 -12 19 -25 28 -29 10 -3 28 -15 41 -26 l22 -21 35 17 c19 9 41 14 49 11 9 -3 26 5 41 20 14 14 32 26 40 26 8 0 22 14 32 30 22 38 26 38 42 -7 22 -63 58 -110 125 -163 l64 -50 16 -40 15 -39 11 -172 c5 -95 13 -175 16 -178 3 -3 3 39 0 94 -4 55 -8 134 -11 175 l-4 75 30 -88 c16 -49 38 -134 48 -190 11 -56 19 -88 20 -72 2 70 -108 470 -120 437 -2 -6 -21 7 -42 29 l-39 39 31 -6 c42 -9 79 2 107 33 13 14 24 21 24 15 0 -6 -18 -26 -40 -43 -22 -18 -40 -36 -40 -42 0 -19 82 57 100 93 10 20 24 67 31 103 7 36 16 72 20 78 l7 13 63 -42 c34 -23 68 -42 75 -42 41 0 74 45 74 100 0 31 3 33 53 45 16 3 40 17 54 31 l25 25 -4 50 -5 50 35 15 c19 8 41 22 48 32 18 23 17 82 -1 106 l-15 19 25 25 c14 14 25 36 25 49 l0 25 -33 31 c-18 18 -72 67 -120 111 -48 43 -86 81 -83 84 6 5 100 -75 188 -161 31 -31 61 -72 68 -91 l11 -35 -16 -31 -16 -30 15 -6 14 -5 -1 -57 -2 -57 -27 -13 c-16 -7 -28 -18 -28 -23 0 -6 -8 -8 -19 -4 l-19 6 0 -72 -1 -71 -23 -17 c-13 -9 -32 -16 -43 -17 -11 -1 -29 -2 -40 -3 l-21 -1 1 -40 1 -41 -33 -35 c-18 -20 -37 -33 -42 -29 -6 3 -19 0 -30 -7 l-20 -12 -30 22 c-17 12 -37 22 -45 22 -8 0 -17 8 -20 18 -7 20 -46 48 -46 32 0 -5 4 -10 10 -10 5 0 16 -13 25 -30 l16 -30 20 0 c11 0 32 -9 47 -20 l27 -20 37 13 c20 7 50 26 65 43 25 26 30 41 32 97 l1 17 38 0 37 0 29 26 28 27 -5 27 c-3 15 -1 32 6 39 l11 11 -12 12 c-18 18 -15 28 8 28 11 0 23 7 26 15 4 8 14 15 24 15 11 0 22 10 26 23 10 30 5 108 -7 124 l-10 12 10 20 c6 11 11 29 11 40 0 26 5 26 38 2 39 -27 226 -119 388 -190 180 -79 287 -140 345 -197 l47 -46 20 -63 c12 -34 26 -102 33 -151 l12 -89 -7 -234 c-4 -129 -4 -232 -1 -229 3 3 17 54 31 114 l26 109 5 150 5 150 -17 65 c-9 36 -34 98 -55 138 -22 39 -35 72 -29 72 21 0 103 -88 157 -169 65 -97 153 -266 203 -388 18 -46 34 -81 36 -79 7 6 -58 160 -118 279 -73 147 -138 246 -206 315 -47 48 -93 68 -93 41 0 -6 -25 12 -55 39 -62 54 -184 121 -380 207 -71 32 -179 83 -240 114 l-110 56 -110 105 c-131 125 -218 200 -232 200 l-11 0 2 -118 1 -117 -33 -67 -32 -66 -53 -50 c-28 -28 -72 -66 -97 -84 -25 -19 -51 -46 -58 -61 -15 -30 -24 -33 -40 -14 l-11 13 47 36 c118 91 205 194 242 287 l20 52 0 169 0 169 35 27 c79 60 238 309 300 469 45 115 129 400 156 524 l20 96 9 290 10 290 -10 140 c-9 148 -18 182 -70 286 -101 200 -221 304 -360 315 l-55 4 60 -14 c33 -8 77 -22 99 -31 83 -35 188 -164 263 -322 l35 -73 9 -118 c4 -64 11 -139 15 -166 l6 -50 -23 28 -24 27 -43 10 -42 9 -68 -14 c-161 -34 -226 -77 -266 -174 -50 -120 -43 -280 20 -448 19 -51 34 -108 34 -127 l0 -36 -22 -25 c-13 -14 -41 -33 -63 -41 l-40 -15 35 6 c45 8 71 27 91 66 l16 31 7 -26 c3 -14 2 -37 -4 -51 l-9 -26 -16 6 c-9 4 -29 -6 -50 -24 -19 -17 -50 -34 -68 -37 l-34 -7 -53 27 -53 27 -34 -5 c-18 -3 -33 -2 -33 4 0 5 22 9 49 9 l50 0 15 -15 c17 -18 26 -19 26 -4 0 14 -63 39 -99 39 -16 0 -37 -8 -46 -17 l-17 -17 18 -13 18 -13 -23 0 c-36 0 -62 19 -77 56 l-15 35 11 40 c6 22 20 49 32 61 11 11 15 19 7 16 -7 -2 -22 -17 -33 -32 l-21 -27 0 -56 0 -55 28 -24 28 -24 40 0 39 0 0 15 c0 22 30 18 75 -10 22 -13 49 -25 59 -25 l19 0 -24 -27 -24 -28 22 18 21 19 5 -19 5 -18 1 28 1 27 23 0 c13 0 32 7 43 15 10 8 29 15 41 15 11 0 33 14 47 31 l26 31 0 35 c0 19 -6 49 -14 66 -74 165 -100 285 -94 420 l5 92 17 35 17 35 52 17 c29 9 90 30 137 47 l85 31 55 0 56 0 23 -16 24 -17 -6 -57 c-7 -67 -24 -110 -44 -110 -7 0 -36 16 -64 35 l-51 35 -59 0 c-68 0 -114 -16 -170 -61 -44 -35 -50 -57 -16 -63 12 -2 56 -11 97 -20 l75 -15 45 10 c47 11 80 33 80 56 0 16 14 17 42 2 l22 -12 18 23 18 22 0 -158 0 -159 -15 -83 c-33 -188 -145 -552 -210 -682 -69 -140 -255 -396 -255 -353 0 7 5 15 10 18 6 3 10 12 10 18 0 7 -9 -2 -21 -20 -27 -42 -67 -59 -173 -73 -195 -26 -393 34 -634 193 -265 175 -410 354 -473 582 -12 44 -27 98 -33 120 l-11 40 -46 -3 -47 -4 -30 16 c-16 8 -48 36 -71 62 l-41 47 0 33 0 34 20 20 c29 29 57 25 94 -16 19 -21 39 -34 45 -30 16 10 13 57 -4 80 -17 23 -20 62 -4 71 17 11 20 3 49 -147 16 -79 29 -131 29 -117 1 14 -11 83 -25 154 l-26 127 49 47 c61 58 108 129 172 260 66 133 74 147 201 326 59 83 129 182 156 220 57 82 152 179 219 223 62 41 147 68 273 87 124 18 168 35 184 70 l12 26 -12 47 c-34 131 -152 322 -270 440 -40 39 -70 72 -67 72 14 0 115 -83 166 -136 98 -104 162 -217 234 -412 21 -56 40 -100 43 -98 7 8 -66 202 -111 291 -71 145 -171 263 -289 344 -55 37 -59 47 -22 62 l27 10 89 -16 c224 -38 432 -148 598 -315 l85 -86 44 -78 c59 -105 95 -209 127 -369 14 -73 37 -175 50 -227 l25 -95 5 -125 c3 -69 1 -145 -4 -170 l-10 -45 -1 75 c-2 165 -34 340 -82 456 l-33 78 -80 84 c-136 142 -295 252 -365 252 l-31 0 -15 -24 -16 -24 14 -33 15 -34 -2 50 -1 50 31 3 30 3 62 -33 c79 -42 207 -144 277 -220 116 -125 165 -281 181 -569 l6 -125 -12 -74 c-7 -40 -23 -105 -36 -144 -26 -74 -29 -96 -16 -96 16 0 32 51 64 194 l31 141 4 143 4 143 -41 192 c-83 383 -114 477 -202 605 -137 200 -418 377 -678 426 -140 27 -172 21 -175 -34 l-2 -32 76 -76 c89 -90 143 -167 213 -311 l51 -104 1 -39 1 -40 -25 -19 c-14 -10 -52 -23 -85 -28 -33 -6 -98 -17 -145 -25 l-85 -15 -73 -37 -74 -36 -82 -82 c-45 -44 -110 -124 -146 -176 -35 -52 -104 -150 -153 -218 -48 -68 -122 -189 -164 -270 -94 -181 -148 -259 -213 -307 -27 -20 -53 -47 -56 -60 l-6 -24 21 -30 c21 -29 28 -61 13 -61 -4 0 -19 14 -34 30 l-26 30 -28 0 c-15 0 -36 -7 -46 -17 -10 -9 -18 -12 -18 -7 0 13 52 61 115 108 28 20 69 60 92 87 57 68 207 320 332 558 120 228 177 314 269 404 111 110 220 180 345 222 l76 25 78 1 78 1 -40 8 c-142 27 -401 -93 -558 -259 -91 -97 -154 -193 -267 -410 -102 -196 -239 -433 -298 -515 -20 -26 -76 -81 -126 -121 -86 -68 -99 -83 -124 -145 l-9 -25 -12 43 -12 42 12 42 11 43 117 115 118 115 35 72 c20 40 46 115 58 170 11 54 30 139 41 188 26 120 62 211 126 322 54 95 61 113 42 113 -5 0 -8 -4 -5 -8 3 -5 -13 -40 -36 -78 -90 -153 -104 -193 -187 -548 -11 -49 -34 -118 -51 -154 l-31 -66 -118 -117 -119 -118 -12 -37 c-12 -35 -10 -86 5 -129 l7 -20 -26 28 c-14 15 -30 43 -35 63 l-10 36 10 56 c15 82 42 127 130 220 l78 83 30 62 c16 34 53 139 81 232 l52 170 45 87 c27 51 74 118 112 160 36 40 53 62 36 48 -54 -44 -122 -130 -159 -200 -42 -80 -52 -105 -112 -299 -59 -189 -86 -238 -188 -349 l-86 -93 -14 -49 c-8 -27 -18 -70 -22 -95 l-6 -46 17 -44 c18 -48 56 -85 86 -85 11 0 19 -5 19 -10 0 -21 87 -104 129 -122 l43 -20 34 6 33 7 6 -28 c41 -188 97 -317 185 -426 160 -199 481 -410 711 -469 l84 -21 115 6 116 5 39 18 c22 10 43 20 47 21 3 2 2 -15 -4 -39 -6 -25 -7 -88 -3 -150 l7 -107 -12 -56 -12 -57 -52 -76 -52 -77 -84 -72 -84 -72 -25 6 c-39 10 -101 7 -114 -6 -19 -19 -76 -12 -155 20 -107 42 -332 161 -422 222 -98 67 -257 227 -294 295 l-28 53 5 37 c2 20 16 64 30 97 14 33 33 98 43 145 l17 85 -6 155 c-9 220 -47 391 -97 441 -15 15 -47 33 -71 39 -152 41 -252 141 -292 293 -8 31 -31 79 -51 106 -20 27 -48 75 -63 107 l-27 59 -3 105 -4 105 15 40 15 40 2 -35 c1 -19 2 -82 1 -140 l0 -105 8 85 c17 185 56 250 240 395 93 73 133 115 225 235 70 92 115 141 115 125 0 -4 -22 -35 -49 -69 -76 -95 -114 -161 -170 -295 -68 -160 -94 -201 -182 -286 -41 -40 -81 -89 -93 -115 l-20 -45 0 -70 0 -70 17 -39 c22 -50 32 -42 11 9 -9 22 -16 65 -15 103 l0 64 22 45 c12 25 59 82 104 126 90 90 99 104 174 285 57 135 73 165 162 284 32 44 59 86 59 95 l0 15 -27 -20 c-16 -11 -73 -78 -128 -148 l-100 -128 -85 -69 c-135 -110 -197 -174 -230 -240 l-30 -60 0 54 0 55 17 24 c9 14 48 58 85 99 l68 74 35 71 c18 39 52 130 74 202 83 274 143 387 267 509 171 169 371 264 624 295 107 14 130 20 130 35 0 35 -182 46 -330 19z m1332 -1422 c29 -28 22 -33 -28 -20 l-41 11 -69 -16 c-38 -10 -102 -31 -143 -47 -40 -17 -82 -30 -92 -30 l-19 0 12 20 c17 27 100 70 178 92 l65 18 58 -3 58 -3 21 -22z m-152 -218 c0 -27 -32 -64 -55 -64 -29 0 -66 24 -71 47 -8 30 1 53 21 53 9 0 14 -4 11 -9 -18 -28 23 -57 56 -40 l20 11 -5 24 -4 24 13 -11 c8 -6 14 -22 14 -35z m44 7 l18 -19 -11 -20 c-6 -11 -8 -22 -5 -25 3 -3 0 -8 -7 -13 l-12 -7 7 11 c9 16 4 15 -30 -3 -37 -19 -70 -19 -149 1 l-65 16 0 13 c0 14 46 55 61 55 5 0 9 -10 9 -22 0 -12 10 -32 22 -45 l21 -23 33 0 c17 0 42 8 55 18 l22 19 0 31 c0 37 7 40 31 13z m-1754 -1568 c0 -143 303 -414 665 -594 66 -33 128 -69 138 -81 l17 -20 0 -62 0 -62 -16 -22 c-20 -29 -118 -74 -162 -74 l-34 0 -25 24 c-14 12 -34 40 -44 61 -22 41 -21 41 -68 27 -75 -21 -152 16 -166 81 l-7 29 -44 0 c-87 0 -144 41 -153 112 l-6 41 -55 12 c-94 19 -121 44 -124 113 l-1 36 -44 13 c-25 7 -55 23 -69 35 l-24 23 6 38 6 37 -25 10 c-51 19 -26 59 85 136 78 55 140 106 140 116 0 4 -34 -18 -75 -49 -41 -32 -97 -75 -125 -96 -72 -54 -88 -108 -36 -121 l22 -5 -4 -36 -4 -36 23 -25 c13 -13 43 -31 69 -38 l45 -13 -3 -26 c-2 -14 4 -40 13 -57 l16 -32 42 -19 c23 -10 52 -19 64 -19 12 0 28 -3 37 -6 l16 -6 0 -33 c0 -64 65 -115 147 -115 l49 0 12 -33 c7 -19 24 -44 38 -58 l26 -24 78 1 79 1 12 -28 c6 -16 27 -43 46 -59 l34 -30 28 0 c16 0 59 14 96 31 l67 32 10 23 c13 28 26 31 24 6 -1 -24 -51 -82 -69 -82 -7 0 -19 -11 -25 -25 l-11 -24 -36 1 c-20 1 -41 -4 -47 -10 -17 -17 -48 -15 -54 3 -4 8 -15 15 -26 15 l-20 0 -11 30 c-6 16 -17 30 -24 30 -7 0 -13 11 -13 24 0 36 -18 41 -46 15 l-25 -23 -19 12 -19 12 -25 -12 -25 -11 -16 13 c-8 7 -15 18 -15 25 0 7 -9 15 -20 18 -12 3 -20 14 -20 25 0 12 -4 24 -10 27 -5 3 -10 15 -10 26 0 19 -14 26 -24 11 -5 -9 -72 -8 -96 1 -8 3 -24 7 -34 9 -10 2 -22 10 -26 18 -24 49 -30 67 -29 85 1 11 1 28 1 39 l-2 18 -20 -5 c-11 -3 -22 -1 -25 3 -3 4 -14 6 -25 3 -13 -3 -26 1 -33 10 -7 9 -23 17 -37 19 -14 2 -25 10 -25 18 -1 8 -6 24 -12 35 l-11 19 9 19 c16 29 6 39 -41 43 l-44 4 -28 29 -28 28 9 48 9 48 -29 11 -30 11 3 25 3 25 149 112 c82 62 153 110 158 107 4 -3 8 -21 8 -41z m1563 -248 c57 -51 97 -94 97 -105 0 -10 -11 -32 -25 -48 l-25 -30 16 -35 17 -35 -7 -27 -7 -26 -45 -20 -45 -20 7 -47 6 -47 -21 -27 -22 -27 -42 -8 -42 -9 -3 -29 c-4 -44 -22 -84 -43 -95 l-18 -10 -23 9 c-13 5 -40 23 -62 40 -21 17 -45 31 -52 31 -21 0 -41 -40 -47 -95 -6 -51 -24 -111 -32 -103 -2 2 2 25 10 51 8 26 15 80 16 120 l2 72 -26 58 -27 59 10 19 c6 10 41 43 78 72 86 69 134 123 169 189 l28 53 0 116 0 115 30 -38 c17 -20 74 -76 128 -123z m-1167 -161 c38 -25 146 -83 239 -129 l170 -85 57 -8 56 -9 24 13 c12 7 39 13 58 13 l35 -1 -42 -10 c-24 -5 -55 -22 -72 -38 l-29 -30 -11 -50 c-20 -95 -5 -188 45 -264 l27 -41 -23 20 c-12 11 -34 43 -48 70 l-26 50 -1 85 0 85 29 50 28 50 -22 -21 c-12 -12 -30 -46 -40 -75 l-19 -54 0 46 -1 46 -22 28 c-12 15 -53 42 -92 60 -120 55 -330 182 -390 236 -24 21 6 6 70 -37z m671 -241 l36 -17 25 -55 25 -55 0 -82 0 -82 -22 -45 -22 -45 -35 -17 -36 -17 -26 7 c-70 17 -124 126 -123 245 l0 70 21 41 21 40 32 14 c42 19 62 18 104 -2z m1519 -244 c57 -113 68 -277 34 -488 -11 -69 -22 -126 -23 -127 -1 -1 -2 115 -2 259 l-1 262 -20 73 c-11 39 -19 72 -17 72 1 0 14 -23 29 -51z"/><path d="M5347 1220 l-28 -32 6 -18 c3 -10 1 -21 -4 -24 -10 -7 -8 -57 4 -76 4 -6 15 -8 26 -5 28 9 23 -9 -11 -42 -33 -31 -38 -51 -14 -60 9 -3 26 -16 39 -29 47 -47 122 -39 151 17 l15 29 -11 20 c-6 11 -19 20 -30 20 -31 0 -34 20 -6 49 26 27 34 65 16 76 -5 3 -7 18 -4 33 l6 27 -19 18 c-11 9 -40 20 -64 23 l-45 6 -27 -32z m127 0 c4 -5 10 -34 12 -66 l3 -58 -20 -19 c-11 -10 -19 -28 -17 -40 l3 -21 25 -6 c31 -7 37 -33 16 -65 l-16 -25 -41 0 -41 0 -28 29 c-16 16 -32 26 -35 23 -3 -3 -5 0 -5 6 0 6 11 23 25 38 14 15 25 38 25 51 l0 23 -24 -6 -24 -6 3 34 c2 18 3 45 4 61 1 15 10 36 22 48 l21 21 41 -7 c23 -4 46 -11 51 -15z"/><path d="M5027 3720 c-88 -28 -167 -71 -167 -90 0 -14 2 -14 109 21 l96 31 80 -5 c47 -4 124 -19 185 -38 58 -17 125 -37 150 -43 l45 -11 -3 -25 c-2 -14 -8 -37 -14 -52 l-10 -28 -22 0 c-13 0 -39 18 -61 41 -74 76 -155 101 -258 79 -65 -13 -164 -62 -189 -93 -32 -40 -19 -37 43 8 92 68 196 91 291 65 20 -6 62 -33 91 -60 l55 -50 25 0 c31 0 57 33 57 72 0 41 13 34 43 -24 15 -29 24 -42 21 -28 -4 14 -18 42 -31 64 l-25 38 11 11 c24 24 -3 98 -29 82 -5 -3 -26 3 -47 14 -42 22 -220 51 -304 51 -31 -1 -91 -13 -142 -30z m388 -14 l60 -14 22 -29 c20 -24 31 -63 19 -63 -2 0 -73 21 -158 47 l-153 47 -90 -1 -90 0 -60 -22 c-88 -32 -53 -6 40 29 l80 30 135 -4 c74 -3 162 -12 195 -20z"/><path d="M5955 3576 c-27 -13 -63 -38 -80 -57 l-30 -33 25 17 c14 10 42 29 62 43 87 61 196 53 261 -20 l28 -31 -16 32 c-9 19 -32 41 -55 53 l-39 20 -53 0 -53 0 -50 -24z"/><path d="M5149 3536 c-53 -14 -151 -67 -157 -85 l-4 -13 23 12 23 13 4 -13 c2 -6 27 -23 56 -36 28 -13 44 -24 35 -24 -8 0 -36 11 -62 23 -25 13 -44 20 -40 14 3 -5 24 -17 47 -27 l41 -18 77 -1 76 -1 36 15 c19 8 58 15 87 15 28 0 49 4 47 9 -1 4 -29 32 -61 61 l-57 52 -38 9 c-49 11 -77 10 -133 -5z m36 -25 c-6 -21 18 -51 40 -51 18 0 45 28 45 46 0 8 5 12 10 9 32 -20 -18 -95 -63 -95 -32 0 -64 28 -73 62 l-6 28 23 9 c13 5 25 10 27 10 2 1 1 -8 -3 -18z m183 -45 c34 -31 42 -52 17 -42 -8 3 -36 -1 -62 -9 -92 -28 -202 -15 -259 30 l-28 22 42 22 c52 26 52 26 52 -4 0 -14 11 -37 25 -50 l24 -25 40 0 40 0 20 26 c12 15 21 40 21 57 l0 29 18 -13 c9 -7 32 -26 50 -43z"/><path d="M5590 2606 c-25 -7 -65 -22 -90 -33 -65 -28 -136 -46 -160 -40 l-20 5 -10 -18 c-12 -23 -4 -30 31 -23 l28 5 48 -42 c59 -52 131 -87 203 -98 l55 -8 -55 -7 c-57 -7 -105 -34 -105 -58 l0 -14 87 3 87 3 45 -19 c52 -23 68 -48 77 -117 l6 -50 2 45 1 45 -20 32 c-10 18 -31 40 -47 50 l-27 18 -97 0 c-54 0 -100 3 -104 7 -21 20 121 55 238 58 4 0 7 7 7 15 0 8 7 15 15 15 17 0 105 77 105 91 0 5 -17 -8 -39 -30 -21 -21 -59 -46 -85 -56 l-46 -18 -63 6 c-82 8 -163 38 -224 85 l-48 37 95 9 95 9 61 -13 61 -12 39 11 c22 6 80 11 129 12 l90 0 -18 12 c-10 7 -41 29 -69 50 -52 39 -80 45 -122 26 l-25 -12 -41 17 c-22 9 -41 16 -43 15 -1 0 -22 -6 -47 -13z m95 -20 l30 -13 42 16 42 15 23 -13 c13 -7 37 -24 55 -39 l32 -27 -82 -3 c-45 -1 -102 -2 -127 -2 -25 0 -101 1 -170 1 l-125 0 100 39 c109 42 135 46 180 26z"/><path d="M3935 1632 c-78 -37 -149 -83 -320 -207 -77 -56 -188 -133 -246 -173 -137 -91 -145 -110 -66 -149 141 -69 280 -229 414 -478 67 -125 126 -255 120 -262 -4 -3 -42 50 -86 118 -44 68 -121 187 -171 265 -154 238 -239 332 -321 354 l-38 10 -40 -16 c-96 -38 -198 -209 -307 -513 -19 -52 -34 -99 -33 -105 0 -6 20 43 45 109 95 255 209 451 285 490 64 33 141 4 220 -83 46 -52 191 -263 344 -503 67 -105 120 -169 141 -169 l14 0 0 30 c0 41 -22 182 -27 176 -2 -2 1 -40 7 -84 7 -44 10 -88 7 -98 l-4 -19 -33 75 c-66 147 -152 306 -224 415 l-74 110 -78 75 c-44 41 -105 89 -136 105 -32 17 -58 35 -58 42 0 14 60 64 150 123 36 24 144 100 240 169 161 116 321 211 355 211 7 0 32 -35 56 -77 23 -43 80 -141 127 -218 285 -472 355 -608 416 -816 14 -46 25 -76 25 -67 2 57 -109 334 -196 493 -52 94 -278 477 -328 555 -12 20 -34 59 -49 88 l-26 52 -23 0 c-12 0 -49 -13 -82 -28z"/><path d="M3784 905 c-4 -14 -4 -29 0 -32 3 -4 6 4 6 16 0 12 8 25 17 28 l17 6 52 -56 c29 -31 83 -101 121 -154 108 -156 218 -288 290 -347 64 -53 168 -116 193 -116 7 0 -20 17 -61 37 l-73 36 -84 81 c-76 73 -121 129 -304 376 -69 93 -126 150 -149 150 l-19 0 -6 -25z"/></g></svg>