<?xml version="1.0" standalone="no"?><!DOCTYPE svg PUBLIC "-//W3C//DTD SVG 20010904//EN" "http://www.w3.org/TR/2001/REC-SVG-20010904/DTD/svg10.dtd"><svg version="1.0" xmlns="http://www.w3.org/2000/svg" width="1024.000000" height="572.000000" viewBox="0 0 1024.000000 572.000000" preserveAspectRatio="xMidYMid meet"><g transform="translate(0.000000,572.000000) scale(0.100000,-0.100000)" fill="#000000" stroke="none"><path d="M5231 5094 c-35 -8 -118 -30 -184 -50 -66 -20 -154 -45 -196 -56 -42 -10 -96 -31 -121 -45 -25 -13 -60 -27 -78 -29 -19 -2 -48 -12 -65 -21 -53 -27 -257 -213 -257 -234 l0 -10 20 11 c11 6 18 15 16 19 -3 4 9 21 27 37 l32 29 -29 -32 c-56 -62 -10 -33 51 32 l61 65 45 0 45 0 26 -31 26 -30 -18 -24 -17 -24 -15 6 c-8 3 -31 10 -51 16 l-37 11 -45 -18 c-60 -23 -175 -129 -230 -214 -78 -120 -98 -200 -102 -412 l-3 -155 -22 -99 -21 -99 7 -31 c3 -17 12 -41 20 -53 l13 -21 -25 -6 -25 -7 -21 -46 -20 -46 6 -91 c3 -50 10 -192 15 -316 l9 -225 16 -50 c9 -27 16 -61 16 -76 0 -38 55 -117 95 -136 l34 -16 24 10 24 11 0 -102 c0 -56 4 -120 8 -144 l7 -42 -20 0 c-31 0 -66 -44 -126 -158 -31 -59 -84 -143 -117 -187 -34 -44 -70 -99 -81 -123 l-19 -42 -37 -19 c-21 -11 -107 -70 -192 -131 -202 -148 -358 -258 -505 -358 -191 -129 -355 -269 -355 -302 0 -6 15 -20 33 -31 l32 -21 -22 7 c-76 22 -166 -85 -226 -270 -31 -94 -112 -420 -121 -485 -3 -25 23 68 58 205 87 342 125 437 201 504 l36 31 35 0 c57 0 150 -56 239 -144 74 -74 112 -101 102 -73 -3 7 -9 11 -15 10 -5 -1 -16 5 -24 15 l-13 17 18 -14 c33 -26 16 5 -35 63 -62 70 -144 126 -222 150 l-56 18 0 17 c0 37 143 156 413 340 114 78 283 197 375 265 207 151 258 186 271 186 6 0 11 -18 11 -39 0 -66 26 -169 85 -336 83 -234 129 -377 155 -488 12 -54 32 -112 44 -129 l21 -32 95 -16 c52 -9 136 -25 187 -35 l92 -19 -31 -55 c-17 -31 -50 -87 -74 -126 -23 -38 -46 -83 -50 -99 l-7 -29 109 -104 c60 -58 123 -114 139 -125 l30 -20 -40 37 c-22 21 -80 76 -128 124 l-89 86 5 31 c3 17 22 57 42 88 68 107 153 290 193 416 86 270 96 307 77 289 -2 -3 -25 -77 -51 -164 -25 -88 -62 -199 -82 -248 l-36 -88 -20 4 c-17 4 -185 36 -333 63 -35 7 -52 43 -89 186 -32 128 -82 282 -159 493 -40 110 -74 250 -75 306 0 50 21 96 81 175 67 88 93 130 147 234 41 79 86 140 103 140 4 0 3 -17 -2 -37 -32 -137 61 -361 289 -698 41 -60 173 -240 292 -400 261 -350 441 -607 653 -937 31 -49 59 -88 62 -88 8 0 -2 17 -123 204 l-109 168 76 152 76 151 8 -40 c5 -22 24 -80 42 -130 51 -138 55 -159 65 -317 l10 -148 21 -55 c12 -31 23 -54 26 -51 3 2 -1 54 -7 115 -7 61 -10 145 -8 186 l5 76 19 14 c36 27 146 76 162 73 l17 -3 26 -80 c33 -103 152 -361 165 -357 18 6 2 48 -61 162 -35 63 -76 153 -90 199 l-27 84 -3 166 -2 166 -16 43 c-9 23 -14 42 -12 42 12 0 110 -141 164 -235 70 -121 107 -175 122 -175 15 0 11 123 -11 327 -11 103 -22 211 -25 238 l-5 50 15 -75 c8 -41 22 -113 30 -160 8 -47 35 -193 59 -325 25 -132 55 -303 68 -380 13 -77 24 -130 26 -118 4 24 -26 205 -93 568 -81 439 -97 534 -120 733 l-15 123 -15 16 -16 15 17 27 c10 14 29 43 42 64 l25 37 16 -14 c19 -17 167 -82 401 -176 301 -121 558 -255 625 -328 30 -32 75 -138 104 -242 38 -135 109 -422 145 -581 19 -85 41 -171 49 -190 l15 -34 1 30 c1 63 -69 495 -99 610 -31 117 -76 239 -125 336 -34 66 -32 69 16 24 61 -59 125 -153 168 -247 68 -147 175 -439 241 -657 17 -57 33 -101 35 -99 18 18 -201 640 -282 803 -64 127 -223 302 -223 245 0 -6 20 -50 44 -98 57 -113 88 -201 125 -353 29 -119 87 -486 78 -495 -2 -2 -16 53 -31 123 -69 320 -160 661 -202 749 -34 71 -64 107 -134 154 -83 56 -292 159 -491 240 -299 123 -459 192 -463 199 -3 4 20 43 51 86 67 96 162 290 196 400 25 82 57 246 57 296 0 16 9 46 20 67 l20 38 -2 149 -1 150 22 43 c12 24 32 78 43 120 l21 77 2 162 3 162 17 98 c10 54 24 113 32 131 l14 33 0 82 1 83 -21 88 c-24 99 -75 204 -126 260 -19 21 -37 47 -41 59 -4 12 -21 51 -39 87 l-32 65 4 56 5 56 -18 39 c-31 65 -228 261 -254 252 -5 -1 18 -34 51 -73 51 -59 108 -145 96 -145 -2 0 -46 48 -97 106 -172 194 -349 296 -585 339 -98 18 -228 18 -314 -1z m319 -10 c156 -29 297 -93 436 -197 32 -25 68 -55 79 -68 l20 -23 -50 37 c-107 80 -213 131 -350 169 l-70 20 -141 5 -141 5 -84 -16 c-113 -22 -255 -69 -366 -121 l-91 -43 -7 25 -6 24 -31 13 -31 14 20 10 c27 15 390 121 488 143 101 22 219 23 325 3z m125 -93 c181 -46 323 -128 453 -260 173 -176 294 -415 337 -665 35 -203 28 -787 -11 -1016 -9 -52 -18 -108 -19 -125 -17 -240 -53 -538 -77 -635 -34 -142 -99 -291 -184 -422 l-43 -68 -14 6 c-8 3 -44 -15 -80 -40 -37 -24 -67 -43 -67 -41 0 2 16 26 35 55 19 29 35 59 35 68 0 9 -16 -11 -36 -44 -52 -87 -119 -151 -197 -189 l-67 -33 -86 -12 -85 -12 -77 7 c-190 17 -263 44 -424 157 -91 65 -168 107 -168 93 0 -3 25 -31 55 -62 81 -84 185 -225 271 -365 l74 -123 66 -62 c37 -35 64 -63 61 -63 -11 0 -184 104 -293 176 -320 211 -557 458 -686 714 -108 215 -150 449 -149 829 0 101 -2 182 -4 179 -2 -2 -7 -84 -10 -182 -3 -97 -10 -186 -15 -197 l-11 -19 -29 0 -29 0 -35 35 c-19 19 -40 52 -45 72 -30 112 -40 178 -39 278 l0 110 33 141 c33 143 47 184 58 167 3 -5 19 -47 36 -92 l30 -83 -28 -42 c-15 -22 -36 -55 -45 -73 -24 -47 -20 -153 5 -153 6 0 5 10 -2 21 -6 12 -9 42 -6 68 l5 46 33 57 c19 32 37 57 42 58 12 0 8 -45 -8 -90 -20 -56 -19 -79 5 -147 24 -69 25 -74 4 -45 l-15 22 -29 0 -29 0 -11 -19 c-5 -11 -10 -29 -10 -40 0 -35 -16 -24 -38 27 -12 26 -21 39 -22 28 0 -26 41 -96 57 -96 l13 0 0 34 c0 60 53 76 78 23 7 -15 17 -27 23 -27 15 0 10 43 -11 106 l-21 59 18 68 17 68 -11 42 c-39 145 -104 267 -143 267 l-18 0 -13 -31 -13 -32 14 -101 c14 -108 15 -165 1 -179 -9 -9 -26 190 -25 293 l1 65 17 33 17 32 29 0 30 0 26 -40 c30 -45 45 -48 19 -3 l-17 28 21 -24 c12 -13 19 -31 17 -38 -3 -8 1 -27 9 -43 8 -16 15 -40 15 -53 0 -14 7 -44 16 -68 l16 -44 -1 -117 -1 -117 26 -30 26 -31 24 0 c28 0 44 26 45 77 l1 38 13 -43 c15 -47 106 -224 112 -218 3 2 -19 48 -47 102 l-51 99 -14 70 c-26 123 -37 276 -33 445 l3 165 24 52 c13 29 39 74 57 100 19 27 34 59 33 73 l-1 25 -7 -26 c-5 -14 -24 -50 -44 -80 -44 -66 -72 -144 -82 -229 l-7 -65 -23 -30 c-24 -32 -55 -121 -56 -164 l0 -26 -10 24 -9 23 11 42 c6 22 26 74 45 115 19 41 34 79 34 85 0 12 -74 -142 -85 -178 l-7 -21 -10 32 -11 32 50 73 c27 40 54 72 61 70 13 -2 16 10 5 21 -3 4 -15 -1 -25 -10 -20 -18 89 211 124 260 11 15 16 27 11 27 -13 0 -53 -71 -130 -231 l-71 -147 -22 -7 c-21 -7 -71 11 -70 24 1 3 18 18 39 33 l39 26 67 134 c37 73 85 158 107 188 l39 55 -41 -45 -41 -44 -65 -132 -64 -131 -41 -37 c-39 -36 -78 -44 -70 -15 10 43 18 126 12 136 -3 6 -4 34 -3 61 l4 50 21 6 c48 13 138 119 222 263 48 83 70 111 81 100 21 -21 -136 -266 -243 -380 -40 -43 -73 -83 -73 -88 0 -5 33 25 73 67 115 121 268 370 253 411 l-7 16 -22 -22 c-13 -11 -26 -21 -30 -21 -4 0 22 57 59 126 37 71 64 135 62 147 l-3 22 -57 3 -57 3 -51 -26 c-96 -49 -167 -141 -202 -263 l-18 -67 6 50 c13 112 64 220 152 322 49 58 146 128 191 138 l29 6 36 -15 37 -15 -23 -36 -23 -35 -62 6 -63 7 -45 -17 c-43 -17 -95 -65 -95 -89 0 -7 9 2 20 20 33 55 110 81 197 68 l47 -7 -24 -20 -25 -19 21 10 c11 5 26 17 34 25 7 9 18 16 25 16 6 0 20 9 29 19 l18 20 -6 19 -6 19 18 16 17 16 14 -9 c28 -17 73 14 102 73 24 45 52 63 189 121 193 82 315 106 505 102 l130 -4 80 -21z m-1013 -93 c-18 -18 -14 -38 8 -38 19 0 24 10 21 38 -3 20 47 14 70 -9 28 -28 23 -39 -45 -94 l-59 -48 -8 14 c-4 8 -14 23 -22 34 l-15 19 -51 6 -51 5 37 29 c47 38 147 76 115 44z m1638 -250 l40 -60 0 -49 c0 -27 -3 -49 -7 -49 -10 0 -77 116 -91 158 -13 38 -38 75 -101 152 l-46 55 82 -73 c45 -41 101 -101 123 -134z m-1774 -112 c10 -27 -25 -71 -161 -204 -119 -118 -195 -213 -195 -247 0 -5 11 9 24 32 40 70 71 106 182 208 l106 99 -36 -73 c-35 -69 -67 -107 -189 -220 -32 -30 -69 -75 -83 -100 l-25 -46 6 35 c4 19 8 49 10 65 13 116 96 237 246 356 47 38 92 76 100 86 23 28 -109 -77 -182 -145 -72 -68 -131 -148 -154 -209 l-14 -38 0 20 c-1 42 29 155 54 205 36 71 96 134 158 165 l51 25 48 0 49 0 5 -14z m1975 -364 c18 -30 44 -90 57 -135 l24 -82 4 -115 3 -115 -14 102 c-15 103 -48 208 -87 273 -17 29 -59 151 -58 170 1 8 37 -42 71 -98z m-2126 7 c-69 -122 -184 -259 -216 -259 l-11 0 6 26 c4 14 17 47 28 73 l22 46 70 66 c39 37 84 81 101 99 42 44 42 24 0 -51z m2144 -173 c30 -85 52 -214 46 -271 -17 -139 -29 -215 -36 -215 -8 0 -11 41 -27 302 -10 150 -17 221 -29 262 l-5 19 10 -7 c6 -3 24 -44 41 -90z m-2198 -575 c-17 -62 -33 -116 -37 -120 -4 -3 -4 36 -1 87 l6 92 27 58 28 57 3 -30 c2 -16 -10 -81 -26 -144z m2203 -32 c8 -98 -7 -266 -29 -324 l-15 -40 4 30 c11 76 18 202 18 330 0 147 10 149 22 4z m-2384 96 l24 -26 -16 -27 c-9 -15 -22 -56 -29 -92 l-13 -65 -8 30 c-11 39 -15 177 -5 193 12 18 21 15 47 -13z m211 -115 c-5 -19 -19 -78 -30 -130 -11 -52 -23 -104 -25 -115 -3 -11 -4 21 -2 70 3 77 33 237 54 285 11 26 14 -73 3 -110z m28 -231 l1 -75 -16 -20 -15 -19 5 34 c3 18 7 84 7 145 l2 111 7 -50 c5 -27 9 -84 9 -126z m-43 -81 l-14 -33 -1 89 c-1 49 5 107 12 130 l12 41 3 -97 3 -96 -15 -34z m-7 -741 c11 -47 29 -111 40 -143 27 -76 20 -80 -13 -8 -41 88 -56 160 -61 279 l-4 110 9 -77 c5 -42 18 -115 29 -161z m45 -217 c50 -97 124 -216 183 -293 70 -90 246 -270 338 -344 203 -164 606 -405 673 -402 l27 1 -18 5 c-9 2 -15 9 -12 14 4 5 -1 9 -10 9 -9 0 -34 9 -56 20 -22 12 -44 18 -50 15 -5 -4 -8 -2 -7 2 2 5 -22 29 -52 54 -30 25 -72 72 -93 104 -145 227 -225 341 -292 418 l-76 88 35 -23 c19 -13 80 -54 136 -91 116 -80 173 -104 290 -123 153 -25 291 -16 406 27 55 21 171 104 166 120 -1 5 2 8 6 7 4 -2 38 17 75 41 37 24 70 41 73 38 3 -3 -17 -36 -44 -74 -47 -67 -93 -140 -250 -408 -80 -136 -130 -190 -193 -210 -24 -7 -36 -14 -27 -14 9 -1 29 4 44 9 42 16 40 4 -3 -19 -21 -11 -33 -20 -27 -21 20 0 107 64 110 81 1 8 19 39 41 67 21 28 67 101 102 162 35 61 66 109 68 106 14 -13 -122 -241 -180 -304 -17 -17 -26 -32 -19 -32 7 0 39 36 71 80 51 69 101 161 178 330 l20 45 7 -80 c4 -44 16 -141 27 -215 26 -181 56 -461 64 -590 l6 -105 -19 22 c-11 12 -53 78 -93 145 -88 150 -148 227 -202 265 l-40 28 -52 0 -51 -1 -35 -20 -34 -19 -37 -74 c-48 -93 -49 -77 -3 25 19 42 33 79 31 81 -2 2 -59 -109 -126 -246 l-123 -250 -43 62 c-156 226 -211 303 -408 567 -389 522 -508 713 -570 908 l-26 83 0 63 c0 34 3 66 7 69 3 4 16 -23 28 -60 12 -38 39 -102 59 -143z m1378 -1067 l-12 -5 32 -22 c18 -12 40 -35 48 -51 l15 -30 3 -167 4 -168 -31 0 c-35 0 -108 -27 -98 -36 3 -3 14 -1 25 5 12 6 24 11 29 11 4 -1 -4 -8 -20 -16 -15 -8 -32 -12 -38 -8 -6 3 -24 -6 -40 -21 l-28 -28 -5 14 c-3 8 -14 50 -24 95 -11 45 -37 117 -57 162 l-37 81 33 71 c36 79 48 89 134 106 65 13 88 15 67 7z m-152 -438 c12 -49 24 -93 27 -97 2 -5 5 -78 6 -163 2 -167 -10 -175 -19 -12 -8 156 -23 233 -65 345 -22 56 -39 115 -38 130 l1 27 33 -70 c19 -38 44 -110 55 -160z"/><path d="M5560 4180 c58 -22 127 -45 154 -51 l49 -12 101 8 c134 11 182 11 236 3 l45 -7 -25 10 c-32 13 -125 15 -266 4 l-110 -8 -135 47 c-165 56 -193 60 -49 6z"/><path d="M4924 3941 c-36 -22 -105 -101 -99 -112 3 -4 0 -11 -6 -15 l-12 -7 7 11 c4 7 5 12 2 12 -13 0 -80 -107 -82 -132 l-2 -28 14 0 c7 0 11 6 9 13 -3 7 15 22 40 35 56 28 59 21 4 -11 l-40 -24 16 -7 17 -6 26 28 c15 16 45 41 68 55 l40 27 65 2 64 3 130 -39 c191 -56 205 -59 212 -53 10 10 -27 58 -39 51 -6 -4 -8 -3 -5 3 9 14 -100 116 -141 132 -18 8 -31 16 -29 18 3 2 29 -7 59 -20 l54 -24 38 -44 c21 -24 48 -61 59 -81 12 -21 30 -38 40 -38 l17 0 0 43 0 42 10 -15 c12 -19 13 -77 1 -82 -5 -1 -4 -11 4 -21 l13 -19 16 24 c17 27 36 104 28 113 -3 3 -14 -9 -24 -27 l-17 -33 -1 32 c0 37 -19 83 -33 83 -5 0 -6 -12 -3 -26 4 -15 3 -23 -2 -20 -6 3 -9 -14 -8 -39 1 -25 -2 -45 -6 -45 -5 0 -8 9 -8 19 0 11 -23 50 -51 86 -28 37 -43 62 -32 57 24 -14 57 -51 75 -86 l15 -28 0 32 0 32 -46 34 c-49 36 -72 45 -166 64 -33 7 -89 21 -124 31 -80 24 -128 24 -167 0z m173 -47 c58 -25 126 -80 118 -95 -3 -4 11 -17 30 -29 47 -29 37 -39 -10 -11 -20 12 -42 18 -48 15 -7 -4 -9 -4 -5 1 9 9 -9 35 -24 35 -6 0 -5 -7 2 -15 l12 -15 -16 -6 c-9 -3 -42 10 -78 32 l-63 39 -63 0 -62 0 17 13 c27 19 85 14 139 -13 55 -28 58 -29 49 -15 -4 6 1 7 12 4 l18 -6 -25 21 c-14 11 -50 30 -80 41 l-55 20 35 -4 c19 -2 44 -7 55 -11 l20 -6 -25 15 c-38 23 -17 19 47 -10z m164 -73 c22 -18 46 -46 55 -63 l15 -30 -14 9 c-8 4 -52 44 -98 87 l-84 79 43 -24 c24 -13 61 -39 83 -58z"/><path d="M6237 3825 c-15 -9 -53 -20 -85 -26 -65 -11 -184 -54 -223 -81 -31 -21 -44 -60 -29 -87 l10 -19 -24 -15 -24 -16 -20 22 c-33 37 -43 65 -51 150 l-8 82 -2 -60 c-1 -77 13 -128 48 -167 l28 -32 -24 -53 -25 -54 1 -65 c0 -35 2 -68 5 -73 3 -4 14 -59 25 -123 12 -63 33 -146 47 -184 l27 -69 0 -60 1 -60 -28 -55 c-57 -112 -121 -149 -213 -124 l-23 6 0 22 c0 30 -63 102 -96 110 -32 8 -80 -9 -89 -32 l-6 -16 17 -13 c20 -15 38 -17 30 -4 -13 20 69 -10 96 -36 l31 -28 -12 22 c-6 12 -23 31 -37 42 l-27 21 -40 0 -39 0 12 15 c16 19 59 19 87 0 27 -19 66 -82 58 -94 -6 -11 25 -31 70 -43 l30 -8 -37 4 c-20 3 -50 14 -66 26 l-30 22 -48 1 c-27 0 -67 -8 -89 -18 -22 -10 -50 -19 -61 -20 -12 0 -32 -8 -45 -16 -13 -9 -46 -19 -74 -23 -90 -14 -139 -50 -214 -160 l-32 -46 -26 -6 -26 -7 -19 23 -18 22 0 -25 c0 -14 8 -34 18 -46 l17 -21 88 -16 89 -16 26 12 c28 12 233 43 240 35 6 -5 -63 -22 -123 -30 -73 -10 -142 -31 -174 -54 -15 -11 -59 -64 -96 -117 -38 -53 -83 -105 -100 -115 -60 -37 -123 -19 -198 57 l-48 49 -51 103 c-28 56 -59 131 -69 165 -10 34 -18 54 -18 44 -2 -30 39 -138 85 -227 96 -186 206 -258 301 -200 18 11 54 50 80 87 27 37 68 89 91 115 l44 47 46 -3 c26 -2 81 -20 122 -39 41 -19 102 -43 135 -52 l60 -18 140 -1 140 -1 45 23 c25 12 59 34 75 48 l30 26 -30 -18 c-16 -10 -50 -29 -75 -43 l-45 -26 -142 3 -141 2 -65 20 c-35 11 -97 35 -137 53 l-72 34 160 7 159 7 43 -17 43 -17 63 12 64 13 87 -12 c92 -13 120 -23 141 -49 l12 -16 -6 20 -6 20 9 -12 c5 -7 10 -50 12 -95 3 -97 11 -117 12 -32 l1 59 22 -70 c12 -38 30 -85 40 -102 l17 -33 28 0 c17 0 43 11 60 26 32 27 105 165 116 219 3 17 -7 -2 -23 -42 -57 -141 -104 -198 -154 -191 l-23 3 -17 35 c-18 35 -53 140 -66 195 l-8 30 -34 22 c-19 12 -48 32 -65 43 l-30 20 18 0 18 0 -21 30 c-12 17 -32 64 -45 106 -13 41 -35 93 -49 114 -31 48 -33 60 -5 34 28 -25 52 -74 77 -156 12 -37 28 -80 36 -96 8 -16 13 -32 10 -35 -4 -3 11 -9 32 -13 20 -4 49 -13 63 -20 14 -8 52 -14 84 -14 l57 0 0 14 c0 8 -7 17 -16 20 -21 8 -26 8 -20 -2 9 -15 -59 -10 -77 6 -9 8 -31 44 -47 79 -16 34 -32 63 -35 63 -6 0 19 -70 39 -109 21 -41 2 -41 -23 0 -17 28 -31 69 -46 141 -3 15 -28 57 -55 93 l-50 65 23 -12 c12 -7 26 -11 30 -10 5 1 6 -1 3 -6 -2 -4 6 -21 20 -38 l25 -29 -11 25 -11 25 23 -25 c13 -14 31 -37 41 -50 11 -15 9 -8 -4 15 l-22 40 31 -29 32 -30 31 -79 c33 -87 56 -127 72 -127 5 0 3 8 -7 19 -12 13 -86 174 -86 187 0 1 7 1 15 0 25 -4 53 -36 74 -89 12 -29 26 -60 31 -69 14 -25 12 -32 -4 -19 -7 6 -23 37 -35 69 -11 31 -30 68 -42 82 -25 30 -24 28 29 -83 l42 -88 17 5 c10 3 25 1 33 -5 l15 -10 -24 6 -24 7 7 -11 c12 -18 42 -12 71 15 33 30 27 42 -9 19 -37 -25 -52 -14 -85 60 -44 95 -63 118 -133 155 -35 18 -80 49 -100 68 -21 20 -38 32 -38 26 0 -5 -8 -10 -17 -10 -10 -1 -31 -4 -48 -9 l-30 -7 36 25 c19 14 51 32 71 40 43 18 64 47 73 102 l6 41 -36 114 c-20 63 -40 140 -45 170 -5 30 -19 100 -31 155 -27 115 -28 195 -4 231 8 13 13 30 9 37 -4 7 -3 9 1 4 10 -8 55 31 55 48 l0 12 63 7 c34 3 76 9 92 12 17 3 -3 -7 -44 -21 -109 -38 -170 -85 -171 -131 l0 -22 25 -6 c27 -7 51 3 100 40 144 109 297 73 336 -80 17 -70 57 -73 73 -6 l6 25 -15 -32 c-17 -38 -35 -43 -35 -10 -1 33 -33 98 -65 130 -15 15 -52 34 -82 43 l-54 16 -49 -12 c-28 -7 -80 -32 -117 -56 -38 -24 -78 -44 -90 -44 l-23 0 0 18 c0 20 41 62 80 82 36 19 308 101 353 107 l39 5 28 -27 c16 -15 35 -46 43 -69 l14 -41 -13 -35 c-7 -19 -12 -44 -12 -55 0 -11 7 3 15 30 9 28 19 53 24 56 5 3 12 32 15 65 l7 61 -28 60 c-15 34 -39 73 -55 88 l-28 27 -38 4 -39 4 -28 -15z m68 -51 c-22 -8 -73 -39 -114 -69 -41 -30 -79 -55 -85 -55 -6 0 0 9 14 20 14 11 21 20 16 20 -5 0 -3 7 4 15 19 23 7 18 -50 -20 -29 -19 -57 -35 -63 -35 l-11 0 10 8 c29 25 122 91 143 102 l23 12 12 -12 11 -11 -16 6 c-9 3 -22 -1 -29 -11 -18 -21 -22 -46 -7 -41 7 3 11 10 9 16 -1 7 2 10 7 7 5 -3 19 3 32 13 40 31 83 50 109 50 l25 -1 -40 -14z m-136 2 c-12 -11 -167 -115 -189 -126 l-25 -13 25 27 c14 15 42 37 62 48 20 12 35 25 32 30 -8 13 -24 10 -21 -4 1 -7 -4 -12 -12 -10 -7 1 -33 -16 -58 -39 -24 -22 -47 -38 -51 -35 -9 10 49 66 91 88 l39 19 13 -11 13 -11 34 21 c28 17 60 28 47 16z m-644 -1152 c-19 -25 -35 -53 -35 -62 l0 -17 -8 13 -8 12 -24 -57 c-26 -66 -60 -126 -67 -120 -6 7 82 193 96 201 6 4 16 17 22 29 l12 22 -23 -20 c-13 -11 -48 -71 -78 -133 -53 -110 -71 -132 -122 -147 l-25 -8 45 44 c26 25 64 80 88 129 24 47 51 94 60 105 l17 20 -22 -19 c-12 -10 -41 -54 -64 -98 -39 -76 -101 -158 -120 -158 -4 0 5 21 20 48 16 26 43 73 62 105 40 68 98 130 116 123 7 -3 15 -1 19 5 3 6 12 8 19 5 7 -2 21 2 32 9 10 8 19 15 20 15 2 0 -13 -21 -32 -46z m52 25 c-26 -15 -52 -75 -72 -163 l-17 -79 -24 -23 c-37 -38 -45 -28 -19 24 13 26 29 67 35 92 21 77 75 161 104 160 6 0 3 -5 -7 -11z m30 -61 l-5 -63 9 33 c14 47 22 39 17 -15 -6 -58 -33 -120 -60 -134 l-19 -10 25 48 c14 26 26 55 26 63 0 8 -10 -5 -21 -30 -11 -25 -32 -58 -47 -74 l-27 -29 18 6 18 7 -6 -11 c-4 -6 -13 -8 -20 -5 -7 2 -19 -1 -26 -7 l-13 -12 13 17 c7 9 14 32 16 50 9 75 39 172 60 196 l23 26 -20 -78 c-10 -44 -28 -97 -39 -119 -11 -21 -16 -36 -10 -32 20 11 41 63 55 132 26 120 42 140 33 41z m245 15 c48 -53 88 -116 88 -142 1 -14 9 -49 18 -77 l18 -52 -10 2 c-26 4 -37 21 -60 94 -34 107 -51 144 -75 166 -22 20 -27 36 -13 36 5 0 20 -12 34 -27z m-138 7 l32 0 23 -47 c13 -27 32 -73 41 -103 10 -30 21 -64 26 -74 l7 -19 -12 7 c-18 12 -67 116 -81 174 l-12 52 -19 0 c-10 0 -19 -6 -20 -12 l-1 -13 -5 13 c-8 19 -21 14 -25 -10 l-4 -23 -5 33 -6 33 14 -6 c8 -3 29 -5 47 -5z m-336 -32 c-14 -18 -39 -60 -56 -93 l-32 -60 -58 -36 c-80 -52 -98 -60 -116 -53 l-15 6 29 25 c17 14 53 58 81 98 44 64 109 125 133 125 12 0 -107 -140 -167 -197 -31 -29 -53 -53 -50 -53 17 0 77 58 143 137 73 88 116 133 127 133 3 0 -6 -15 -19 -32z m428 -6 c22 -33 83 -222 72 -222 -13 0 -46 59 -53 97 -5 28 -33 97 -63 156 -10 19 29 -8 44 -31z m-584 -19 c-22 -16 -65 -59 -94 -97 -65 -86 -95 -100 -40 -20 47 69 97 119 132 133 44 17 44 12 2 -16z m15 -32 c-20 -22 -43 -53 -51 -69 -36 -70 -132 -127 -173 -103 l-18 10 29 1 29 0 41 43 c22 23 54 60 70 81 26 35 80 76 100 76 4 0 -8 -18 -27 -39z m463 -59 c6 -24 20 -52 30 -62 l20 -20 -31 -16 c-30 -15 -59 -14 -88 5 l-14 9 26 32 c15 17 30 50 34 73 3 23 8 37 9 32 2 -6 8 -29 14 -53z m-22 -122 c13 0 36 7 52 15 l30 15 81 -40 c45 -23 79 -44 76 -46 -3 -3 -41 0 -85 7 l-79 12 -33 -11 c-44 -16 -76 -15 -128 3 l-43 15 -131 -10 c-135 -10 -176 -8 -91 5 26 4 81 18 122 30 41 13 78 22 83 19 4 -3 20 1 35 9 l27 14 30 -18 c17 -11 41 -19 54 -19z"/><path d="M5326 3663 l69 -48 23 -47 24 -47 -7 -21 c-9 -29 -17 -26 -103 34 -42 29 -93 62 -112 71 l-35 18 -70 0 -70 0 -36 -16 c-55 -25 -97 -64 -131 -124 -17 -29 -39 -58 -50 -64 -30 -16 -94 -1 -150 37 -28 19 -45 28 -38 19 23 -27 93 -64 136 -71 l41 -6 22 11 c11 7 32 33 45 59 30 59 70 100 121 123 l40 19 68 0 68 0 32 -16 c18 -9 53 -34 79 -56 27 -22 53 -36 60 -32 l11 7 -7 -11 c-9 -15 50 -54 77 -51 48 7 59 -33 36 -127 -14 -53 -7 -64 22 -38 32 28 49 76 49 139 0 61 -13 99 -53 158 l-26 38 6 -53 c3 -29 0 -65 -6 -80 l-11 -28 -27 1 -28 0 22 9 c52 21 36 96 -36 163 -44 41 -99 77 -117 77 -4 0 24 -21 62 -47z m184 -135 l20 -43 0 -55 c0 -56 -26 -130 -51 -145 l-12 -8 7 24 c14 48 18 126 8 145 -9 17 -5 124 5 124 2 0 13 -19 23 -42z"/><path d="M5091 3674 c-86 -23 -150 -63 -203 -129 -27 -33 -62 -68 -76 -77 -15 -10 -21 -18 -14 -18 8 0 53 40 100 89 l87 88 57 21 c32 12 86 26 120 31 l63 9 -40 0 c-22 0 -64 -6 -94 -14z"/><path d="M5035 3527 c-61 -20 -85 -36 -140 -87 -27 -25 -58 -51 -69 -57 l-18 -10 7 -41 c3 -22 18 -58 32 -79 26 -41 89 -90 100 -79 3 3 1 6 -5 6 -7 0 -30 16 -52 36 l-40 36 -16 56 -16 55 23 18 c12 9 35 24 50 33 l28 16 7 -11 7 -12 -11 7 c-28 17 -9 -11 21 -30 48 -32 103 -47 177 -47 62 -1 164 24 175 43 3 5 -10 3 -30 -6 -20 -8 -59 -19 -87 -24 l-51 -10 -56 9 c-58 10 -117 29 -110 35 2 3 29 -2 59 -10 l55 -15 60 4 c33 3 80 12 105 21 25 9 66 16 93 16 l47 0 0 13 c-1 19 -208 116 -260 122 -25 2 -63 -1 -85 -8z m123 -29 c18 -18 14 -44 -11 -74 l-24 -27 -33 0 -33 0 -24 28 c-27 30 -27 68 -1 73 l16 3 4 -23 3 -23 33 -3 32 -3 6 30 c7 34 14 37 32 19z m83 -25 l49 -26 0 -18 0 -18 -66 -21 c-101 -31 -199 -22 -270 25 l-26 17 34 24 c18 14 34 21 35 17 0 -4 4 -19 7 -33 6 -29 53 -60 91 -60 l27 0 29 29 29 29 0 31 c0 38 0 38 61 4z"/><path d="M6019 3455 c-20 -7 -51 -21 -70 -30 -18 -10 -43 -18 -54 -19 -11 -1 -21 -9 -23 -18 l-3 -17 28 -6 c15 -3 62 -15 103 -27 147 -41 218 -41 262 -1 10 9 18 12 18 6 0 -22 -42 -46 -90 -51 -43 -4 -90 3 -156 23 -11 4 -6 -1 10 -10 15 -9 61 -19 101 -22 l74 -6 35 21 35 21 35 -35 c19 -19 40 -34 46 -34 7 0 -2 10 -20 23 -19 12 -35 28 -38 35 l-4 14 18 -10 19 -9 40 12 c46 15 36 20 -12 6 l-32 -9 -18 14 c-10 7 -15 14 -10 14 15 0 -24 60 -55 83 -64 47 -162 61 -239 32z m125 -11 c9 -4 16 -18 16 -34 l0 -29 -26 -20 c-34 -27 -64 -27 -98 0 l-27 21 3 26 c4 33 21 38 33 10 6 -13 21 -25 34 -26 l25 -4 12 17 c7 9 10 23 7 31 -6 16 -2 17 21 8z m66 -21 c91 -62 52 -109 -85 -104 l-30 1 33 20 c34 21 55 60 46 85 -8 20 6 19 36 -2z"/><path d="M5381 3338 c-1 -23 -66 -95 -113 -124 -20 -13 -65 -33 -100 -45 l-63 -21 -56 6 c-31 3 -64 8 -75 11 l-19 7 17 -11 c9 -6 43 -14 75 -17 l58 -6 61 20 c110 35 238 141 221 184 l-5 13 -1 -17z"/><path d="M5628 3255 c4 -27 7 -81 7 -120 l-1 -70 -26 -58 c-33 -75 -33 -75 -63 -38 -15 17 -30 31 -35 31 -4 0 8 -17 26 -37 l34 -37 11 11 c6 6 23 38 37 70 l25 58 4 65 c2 37 -3 89 -11 120 l-15 55 7 -50z"/><path d="M5970 3266 c36 -40 126 -92 194 -111 l58 -17 29 21 c16 12 29 18 29 13 0 -19 -44 -65 -74 -78 -17 -7 -23 -13 -14 -14 24 0 79 49 94 87 21 50 17 58 -13 23 l-27 -32 -50 4 c-58 5 -140 43 -206 96 l-45 36 25 -28z"/><path d="M5434 2985 c-35 -16 -98 -83 -153 -165 -46 -67 -53 -80 -48 -80 2 0 21 25 41 56 21 31 40 54 43 51 8 -9 -77 -128 -87 -122 -10 6 -53 -71 -48 -86 4 -12 135 176 166 238 12 23 26 44 32 48 l10 6 -10 -26 c-6 -15 -10 -51 -10 -81 l0 -54 33 -35 32 -35 34 -7 34 -6 -7 11 c-4 7 -16 12 -26 12 -11 0 -34 13 -52 29 l-33 29 1 59 0 58 23 43 22 43 32 14 c18 8 25 14 17 14 -8 0 -29 -7 -46 -14z"/><path d="M6391 2835 l-31 -87 -10 -92 c-5 -50 -9 -136 -9 -191 -1 -55 -3 -120 -6 -145 l-4 -45 9 40 c5 22 13 126 18 230 l9 190 31 90 c17 49 30 91 28 93 -2 2 -18 -36 -35 -83z"/><path d="M5498 2135 c9 -5 72 -9 139 -7 168 2 206 -14 146 -66 -16 -13 -21 -20 -13 -16 52 25 66 68 26 83 -13 5 -89 11 -169 13 l-146 3 17 -10z"/><path d="M5100 2061 c0 -7 20 -33 44 -57 l43 -44 42 0 41 0 85 35 c49 20 119 40 165 47 l80 11 68 -12 c37 -7 78 -19 92 -26 l25 -14 -15 -1 c-8 0 -1 -8 15 -17 51 -27 73 -53 85 -105 l12 -49 -12 -44 c-15 -55 -59 -108 -118 -142 l-47 -28 -149 -2 c-82 -2 -152 -5 -154 -8 -3 -3 61 -5 142 -5 l147 0 47 24 c64 32 128 103 143 158 l12 43 -10 45 c-6 25 -13 53 -18 63 l-7 17 46 0 c49 0 90 20 101 48 l6 17 -28 -28 -29 -27 -46 0 -45 0 -26 20 c-14 11 -51 32 -82 46 l-55 26 -73 5 -72 5 -72 -15 c-39 -9 -103 -29 -141 -46 -39 -17 -85 -31 -104 -31 -42 0 -93 31 -118 72 -11 18 -20 27 -20 19z"/><path d="M5484 2020 c-61 -13 -165 -57 -191 -82 -13 -12 -31 -46 -40 -75 l-17 -53 20 -46 c20 -49 71 -97 114 -108 14 -4 5 4 -20 17 -50 26 -86 73 -96 123 l-6 33 25 54 25 54 55 27 c31 14 86 33 124 42 l68 16 80 -6 c44 -3 91 -8 105 -11 l25 -6 -17 11 c-23 14 -201 22 -254 10z"/><path d="M6276 4719 c52 -58 94 -116 109 -153 17 -40 20 -102 5 -111 -26 -16 -6 -23 24 -8 19 9 41 13 50 10 18 -7 22 -52 4 -63 l-11 -7 7 11 7 12 -23 0 -23 0 43 -36 c23 -20 52 -54 62 -75 30 -58 23 -71 -8 -15 -29 52 -70 83 -97 73 l-17 -7 57 -67 c31 -38 75 -105 97 -151 l42 -83 0 -48 c1 -27 4 -47 9 -44 14 9 7 63 -18 130 -29 77 -78 155 -137 219 l-41 44 16 0 c26 0 74 -48 91 -90 16 -40 36 -46 36 -12 0 21 -36 90 -60 117 l-19 20 10 18 11 18 -17 26 -17 25 -29 -4 -29 -5 0 42 0 41 -36 60 c-49 81 -81 122 -107 135 l-22 12 31 -34z"/><path d="M6120 1684 c0 -11 137 -182 313 -390 59 -70 120 -147 136 -171 l29 -43 -5 -20 c-3 -11 -29 -40 -59 -65 -61 -53 -65 -67 -26 -92 15 -9 78 -50 140 -91 l114 -74 14 -34 14 -34 10 -183 c6 -100 12 -216 14 -257 2 -41 2 29 0 155 -3 127 -9 252 -14 280 l-10 49 -35 36 c-19 20 -85 67 -145 104 -61 38 -110 73 -110 79 0 7 25 34 55 62 l55 51 0 21 c0 25 -54 99 -191 262 -103 123 -219 264 -271 331 -15 19 -28 30 -28 24z"/><path d="M3190 734 c0 -2 18 -27 40 -56 53 -70 108 -178 160 -316 24 -62 45 -110 48 -108 2 3 -10 42 -27 87 -17 45 -30 83 -28 85 5 6 87 -168 102 -218 8 -24 14 -35 14 -26 2 44 -102 273 -119 263 -5 -3 -8 0 -5 7 6 15 -132 254 -144 251 -5 -1 -8 5 -7 14 0 8 -7 17 -16 18 -10 2 -18 1 -18 -1z"/><path d="M6460 643 c0 -10 22 -27 123 -96 38 -26 72 -47 78 -47 19 0 8 29 -21 53 -58 49 -180 110 -180 90z"/></g></svg>