<?xml version="1.0" standalone="no"?><!DOCTYPE svg PUBLIC "-//W3C//DTD SVG 20010904//EN" "http://www.w3.org/TR/2001/REC-SVG-20010904/DTD/svg10.dtd"><svg version="1.0" xmlns="http://www.w3.org/2000/svg" width="1024.000000" height="572.000000" viewBox="0 0 1024.000000 572.000000" preserveAspectRatio="xMidYMid meet"><g transform="translate(0.000000,572.000000) scale(0.100000,-0.100000)" fill="#000000" stroke="none"><path d="M5853 5328 c3 -13 15 -57 25 -98 29 -113 45 -244 37 -305 l-6 -54 -51 -46 c-28 -25 -78 -61 -112 -80 -58 -32 -232 -95 -305 -110 l-34 -7 23 32 c31 43 69 159 82 250 16 118 -5 380 -32 380 -5 0 -5 -14 0 -31 5 -17 14 -73 20 -125 l10 -94 -10 -92 c-16 -143 -59 -267 -107 -311 -11 -9 -74 -33 -139 -51 -66 -19 -166 -52 -224 -74 -58 -21 -118 -42 -133 -46 l-29 -7 6 10 c16 26 -211 143 -418 216 -196 69 -226 93 -226 180 0 83 29 233 66 340 19 55 37 109 40 120 l5 20 -15 -19 c-44 -54 -105 -304 -107 -442 l-2 -84 -19 0 c-62 0 -229 -139 -355 -295 -86 -107 -194 -281 -473 -765 -120 -208 -197 -328 -239 -373 l-25 -28 10 -17 c6 -9 43 -29 81 -43 107 -39 193 -108 193 -154 l0 -15 -39 0 c-22 0 -44 -6 -51 -15 l-12 -15 17 -27 c20 -30 40 -47 140 -123 86 -65 120 -80 184 -80 l50 0 20 -45 20 -46 37 -15 37 -15 99 -2 100 -2 18 22 18 22 5 223 c7 290 14 317 58 238 13 -22 36 -46 51 -52 16 -7 31 -23 35 -36 6 -26 39 -52 65 -52 l17 0 4 33 4 32 1 -45 c3 -62 39 -133 103 -205 30 -34 67 -82 82 -108 40 -68 96 -88 140 -49 l20 17 -7 -35 c-3 -19 -9 -94 -13 -167 l-6 -133 27 -84 c16 -47 54 -129 85 -184 l58 -100 5 -59 c8 -83 28 -117 121 -205 77 -74 103 -88 91 -50 -3 9 11 -14 33 -51 62 -110 173 -207 263 -231 14 -4 -6 10 -45 31 -166 90 -229 198 -291 495 -10 48 -22 84 -27 81 -17 -10 0 -155 27 -229 14 -39 26 -77 26 -84 0 -7 -31 15 -69 49 l-69 61 -23 48 -23 47 -4 165 c-2 91 -9 171 -14 178 -19 22 -27 12 -12 -15 7 -16 14 -53 13 -83 l0 -55 -10 20 -9 20 4 -43 c2 -24 3 -42 1 -40 -16 16 -88 158 -110 218 l-28 75 0 100 c-1 55 5 123 11 150 7 28 14 68 16 89 2 22 10 43 20 48 9 5 23 23 32 40 9 16 11 27 5 24 -14 -9 -14 -10 10 54 12 30 21 80 22 110 l1 55 -32 56 -32 56 0 34 c0 43 22 124 44 167 10 19 20 66 23 105 l6 71 41 44 c45 49 71 63 202 115 164 64 291 94 484 112 l65 6 102 -15 c56 -8 137 -29 180 -46 82 -32 173 -91 173 -113 l0 -12 -47 4 -48 3 -68 -23 -68 -24 -9 15 -9 14 -10 -27 c-6 -16 -10 -42 -10 -60 1 -18 -6 -52 -16 -77 -20 -54 -18 -70 29 -230 20 -69 43 -157 51 -196 l14 -70 -10 -37 c-5 -20 -21 -45 -36 -57 l-26 -20 -38 0 -39 0 0 15 c0 39 -100 43 -120 5 -14 -25 -35 -25 -60 0 l-20 20 0 33 0 34 23 20 c12 12 31 23 42 26 l20 5 -30 1 c-41 1 -70 -21 -112 -87 -47 -73 -144 -254 -139 -259 2 -3 26 35 52 84 43 79 123 213 128 213 1 0 1 -18 1 -41 l0 -41 24 -19 c33 -27 110 -22 99 7 -1 5 13 9 32 10 l35 1 -34 -4 -35 -4 13 -8 13 -8 -105 -57 c-115 -64 -192 -125 -237 -191 -39 -57 -39 -70 0 -17 39 54 46 53 19 0 l-22 -43 -7 -125 c-4 -69 -11 -134 -16 -145 l-8 -20 -8 40 c-4 22 -7 82 -7 133 -1 54 -5 91 -10 88 -5 -4 -22 -38 -37 -77 l-28 -72 -17 96 c-20 113 -52 187 -102 241 -43 45 -49 44 -37 -4 l8 -35 1 24 1 24 19 -17 c29 -26 68 -105 87 -176 l18 -65 -3 -110 c-2 -60 -4 -146 -4 -190 l-1 -80 17 -32 c10 -18 23 -33 29 -33 6 0 4 8 -5 18 -9 10 -21 41 -27 69 l-11 51 11 82 c11 78 52 214 71 234 l9 10 1 -100 c1 -54 4 -110 8 -124 l7 -25 16 25 c24 36 36 103 36 198 l-1 82 32 65 c43 88 113 143 305 243 l29 15 32 -12 c17 -6 42 -11 54 -11 26 0 94 34 129 64 l22 19 0 32 0 32 -23 22 -24 22 -13 57 c-7 31 -27 108 -46 169 -38 126 -42 174 -18 233 l16 40 37 0 c20 0 56 9 80 20 24 11 58 20 77 20 l33 0 27 -23 27 -24 -14 -69 -15 -69 -17 32 c-9 17 -29 41 -43 52 l-27 21 -43 0 -42 0 -32 -26 c-35 -30 -60 -73 -60 -104 0 -28 11 -25 45 10 31 33 45 38 45 17 0 -22 34 -47 63 -47 l27 0 19 30 18 31 13 -16 c17 -20 6 -43 -27 -56 l-28 -11 -83 7 -84 6 7 -23 c19 -63 84 -109 152 -107 l38 1 -42 8 c-60 12 -101 36 -123 73 -11 17 -18 32 -16 34 1 2 26 -1 55 -7 70 -13 125 -3 156 28 l25 25 0 -28 c0 -15 12 -65 26 -111 l26 -84 -5 -67 c-13 -165 -28 -330 -32 -350 -7 -32 -17 -29 -43 17 -29 51 -162 150 -162 121 0 -5 9 -12 20 -16 10 -3 39 -27 64 -52 l45 -45 51 -102 51 -101 8 -60 9 -60 0 50 1 50 -29 75 c-16 41 -25 77 -20 80 18 11 30 63 30 130 0 72 13 101 23 51 3 -16 9 -42 12 -57 l6 -29 -16 20 c-21 24 -20 21 33 -86 24 -47 45 -103 49 -125 l6 -39 -21 19 c-26 23 -26 26 -1 -54 l21 -65 5 -118 c3 -65 10 -120 14 -123 18 -11 5 203 -18 294 l-6 26 49 -35 c27 -20 103 -69 169 -109 249 -152 331 -244 490 -545 85 -160 134 -246 242 -423 53 -86 118 -202 145 -256 50 -103 66 -129 53 -86 -16 53 -117 243 -210 396 -54 87 -142 241 -196 341 -127 236 -184 320 -284 418 l-81 80 -176 109 -175 108 -6 50 c-4 27 -20 77 -37 111 -17 34 -38 96 -46 137 -9 41 -20 81 -26 88 l-11 12 13 95 13 94 -23 83 c-13 46 -24 110 -24 142 l-1 60 32 8 c58 15 117 122 111 201 l-2 39 15 9 c9 5 27 32 39 61 l23 53 5 82 4 82 -17 87 -17 87 12 94 c20 147 5 227 -55 293 l-22 25 -7 70 -7 70 -31 68 -31 67 -48 45 c-27 25 -52 45 -57 45 -5 0 -12 -22 -16 -49 l-7 -50 -49 -54 c-99 -108 -222 -179 -525 -301 -373 -151 -549 -265 -766 -494 -197 -208 -330 -419 -405 -640 l-28 -83 12 -7 c6 -4 7 -13 3 -20 l-8 -13 -26 21 c-15 12 -32 30 -37 41 l-11 19 27 117 c14 65 45 170 68 233 l42 115 86 132 c158 242 279 368 474 499 132 88 258 145 374 168 47 10 117 31 155 47 39 16 125 45 193 64 194 55 357 143 402 218 l20 32 0 86 c0 96 -20 221 -51 317 -20 59 -38 87 -26 40z m157 -504 c52 -56 84 -127 100 -221 l12 -73 -34 -39 c-18 -22 -41 -54 -51 -73 l-18 -33 18 22 c10 11 31 38 47 59 34 43 42 34 26 -26 -33 -123 -185 -198 -544 -271 -385 -77 -567 -145 -796 -296 -267 -177 -446 -357 -543 -548 -53 -104 -57 -105 -21 -3 116 323 391 664 709 878 101 68 262 148 454 225 233 94 283 118 375 179 129 86 206 176 206 242 0 34 12 30 60 -22z m-1758 -61 c33 -29 70 -47 214 -99 131 -48 329 -140 374 -174 l25 -20 -101 0 c-191 0 -361 46 -468 127 -58 44 -87 89 -96 149 l-7 43 18 -2 c10 -2 29 -13 41 -24z m-62 -23 c0 -75 65 -147 185 -205 95 -46 176 -65 330 -79 l130 -11 -105 -28 c-193 -50 -341 -60 -474 -32 -79 17 -120 38 -150 78 l-21 28 -5 82 -5 81 26 42 c25 39 64 74 81 74 5 0 8 -14 8 -30z m-88 -17 c-11 -16 -31 -51 -45 -79 -14 -28 -33 -54 -41 -57 -33 -13 -150 -199 -205 -326 -16 -36 -57 -151 -91 -256 -34 -104 -71 -212 -82 -240 -11 -27 -21 -66 -23 -85 -2 -19 -18 -93 -35 -164 -58 -239 -117 -571 -100 -561 4 3 11 26 14 52 28 199 133 652 201 863 40 123 174 468 207 535 32 62 89 148 94 142 3 -3 -6 -36 -19 -74 -14 -38 -40 -136 -58 -218 l-33 -150 0 -125 -1 -126 18 -28 19 -28 38 4 38 3 -34 -37 -34 -38 0 -71 c0 -117 59 -308 109 -353 l19 -17 -16 -32 -17 -32 -5 -227 -5 -227 -13 -13 -13 -13 -105 3 -105 2 -28 15 c-37 19 -41 31 -41 123 0 80 25 482 36 587 4 33 4 57 0 54 -10 -10 -24 -158 -40 -423 -8 -131 -17 -241 -20 -243 -3 -3 -38 -1 -77 5 l-73 11 -25 21 c-14 11 -51 39 -81 61 -75 57 -120 100 -120 116 l0 13 31 0 c42 0 69 17 69 43 0 13 20 74 46 136 25 62 43 115 41 117 -2 2 -17 -29 -32 -68 -16 -40 -37 -93 -47 -117 l-18 -43 -21 26 c-32 41 -106 87 -178 112 l-66 22 1 14 c1 8 22 42 48 76 26 34 153 243 282 464 271 464 333 560 439 681 62 72 198 197 213 197 2 0 -5 -12 -16 -27z m-6 -270 c33 -45 96 -73 197 -90 l92 -15 80 6 c118 10 276 45 413 93 9 3 -30 -26 -88 -65 -256 -171 -378 -313 -640 -742 -55 -91 -79 -162 -87 -252 -3 -38 -10 -68 -14 -68 -27 0 -98 213 -106 315 l-5 70 24 35 c13 18 111 105 218 192 107 86 217 180 244 208 l49 51 -11 11 -10 10 -61 -31 c-101 -50 -199 -81 -275 -87 l-71 -6 -37 15 c-20 8 -44 27 -54 42 l-17 26 6 67 c7 75 43 199 90 312 l32 75 5 -72 5 -72 21 -28z m2084 -19 l22 -44 1 -53 c0 -28 -3 -100 -7 -158 l-9 -106 14 -54 c27 -112 6 -291 -40 -333 l-17 -16 -40 61 c-74 116 -223 213 -399 260 l-80 22 -160 1 -160 1 -85 -18 c-292 -61 -540 -196 -785 -426 l-90 -85 75 78 c289 302 612 477 1040 566 515 107 646 170 666 322 l7 48 13 -11 c7 -6 23 -31 34 -55z m-2244 -284 l16 -41 29 -14 28 -15 84 0 c96 0 158 16 268 70 44 21 79 35 79 30 0 -23 -355 -303 -446 -352 l-44 -23 -17 11 c-28 17 -36 88 -28 237 4 75 9 137 11 137 2 0 11 -18 20 -40z m1684 -160 c193 -28 382 -135 469 -267 l31 -46 0 -58 c0 -66 -13 -82 -34 -42 -59 116 -231 226 -403 259 -352 67 -829 -83 -1161 -364 -48 -41 -137 -146 -148 -176 -3 -7 -21 -18 -40 -25 -43 -16 -72 -60 -80 -123 -7 -54 -11 -56 -42 -28 l-22 21 0 40 c0 77 95 217 255 374 233 230 545 393 830 434 83 12 267 13 345 1z m469 -437 l12 -23 -16 -29 c-8 -17 -25 -37 -37 -45 -12 -9 -17 -16 -11 -16 7 0 15 5 18 10 3 6 12 10 18 10 15 0 -34 -39 -49 -40 l-11 0 13 73 c7 39 13 79 13 87 l1 15 -11 -15 -11 -15 5 23 c3 12 1 20 -4 16 -5 -3 -9 -2 -9 3 0 4 -3 19 -7 32 l-6 24 40 -44 c22 -24 45 -54 52 -66z m-1947 -15 c-19 -57 -40 -134 -47 -173 l-13 -70 -1 67 -1 66 19 61 c16 50 65 151 74 151 2 0 -12 -46 -31 -102z m1842 86 c9 -8 16 -24 16 -35 l0 -20 -22 15 c-32 22 -70 20 -138 -9 -33 -14 -65 -25 -72 -25 -25 0 -40 17 -34 37 l6 19 31 2 c17 1 43 9 58 17 14 8 52 14 83 15 l57 0 15 -16z m-1303 -106 l-29 -65 -47 -39 c-75 -61 -115 -104 -115 -122 l1 -17 15 28 c8 15 42 47 76 72 69 50 98 88 123 163 9 29 19 51 21 49 3 -2 0 -16 -6 -31 -5 -15 -10 -47 -10 -71 0 -59 -12 -87 -71 -167 -28 -37 -59 -89 -68 -114 l-18 -46 -27 46 c-28 49 -68 76 -111 76 l-26 0 18 31 c33 56 123 148 211 214 47 35 87 63 89 61 2 -2 -10 -32 -26 -68z m1218 -42 c15 -8 34 -22 42 -32 l14 -17 -22 11 c-12 7 -42 12 -66 12 l-44 0 -47 -41 c-25 -22 -46 -38 -46 -34 0 17 33 66 60 89 35 29 68 33 109 12z m-1239 -180 c-5 -15 -10 -48 -10 -74 l1 -47 29 -55 30 -55 0 -48 c0 -26 -9 -72 -19 -103 -11 -30 -18 -61 -15 -68 3 -8 -8 -23 -24 -35 l-29 -20 -6 62 c-3 35 -17 87 -31 117 l-26 55 0 51 c0 69 20 131 65 198 39 59 53 68 35 22z m-206 -40 c47 -20 75 -72 90 -168 8 -46 23 -104 35 -130 l22 -48 0 -53 c1 -58 -22 -117 -46 -117 -7 0 -25 4 -39 9 l-24 10 -37 63 c-21 35 -57 84 -82 111 -57 61 -83 118 -83 185 l0 53 20 38 19 39 28 10 c39 14 59 14 97 -2z"/><path d="M3852 3853 c-41 -320 -36 -916 9 -1050 l9 -28 -5 40 c-3 22 -10 103 -16 180 l-11 140 5 295 c3 162 11 342 17 398 7 57 10 106 7 108 -2 3 -9 -35 -15 -83z"/><path d="M4345 3195 c-14 -13 -25 -33 -25 -44 0 -11 -3 -27 -7 -37 l-6 -17 11 7 c7 4 12 17 12 29 0 13 7 33 16 45 l15 22 28 0 c33 0 77 -31 86 -61 l7 -21 -22 -15 c-12 -9 -28 -31 -36 -49 l-14 -33 9 -24 c18 -48 102 -100 124 -78 l11 11 -24 32 -23 32 -2 61 c-3 72 -24 119 -68 145 -42 26 -63 25 -92 -5z m145 -147 l0 -53 20 -32 20 -33 -15 0 c-24 0 -85 60 -85 84 0 25 35 86 50 86 5 0 10 -24 10 -52z"/><path d="M5123 3650 c-57 -13 -203 -136 -188 -160 3 -5 44 11 90 36 l85 44 43 0 c23 0 94 -12 158 -26 127 -29 160 -27 185 10 l15 24 -21 25 -22 25 -26 -3 c-24 -3 -251 21 -277 29 -5 1 -24 0 -42 -4z m157 -31 c36 -4 88 -8 116 -9 27 0 55 -5 62 -12 7 -7 12 -8 12 -2 0 5 4 2 9 -5 l10 -15 -10 -18 -10 -18 -35 0 c-19 0 -81 12 -137 26 l-102 26 -47 -5 c-27 -2 -75 -18 -109 -34 l-60 -30 37 38 c21 21 56 48 78 59 l41 21 40 -6 c22 -4 69 -11 105 -16z"/><path d="M5208 3484 l-47 -14 -61 -57 c-33 -30 -58 -58 -55 -61 2 -3 28 17 57 45 29 27 74 58 100 67 l47 18 35 -6 34 -7 31 -35 c42 -47 39 -63 -4 -25 l-36 31 -47 0 c-54 0 -110 -24 -166 -69 -21 -17 -56 -36 -76 -42 l-38 -12 -33 12 c-39 14 -53 6 -15 -9 34 -13 67 -13 101 0 l27 10 51 -15 c65 -19 130 -19 196 1 29 8 64 14 79 12 l27 -3 -39 -43 c-39 -43 -77 -68 -126 -83 l-25 -7 23 -1 c38 -2 87 25 131 70 43 45 52 78 26 99 -8 7 -15 21 -15 30 0 27 -49 81 -87 96 -38 16 -35 17 -95 -2z m47 -104 c13 0 29 8 34 18 l10 17 1 -27 0 -27 -21 -11 c-41 -23 -95 15 -73 51 l7 12 9 -17 c5 -9 20 -16 33 -16z m-41 -42 c35 -23 96 1 99 40 2 27 1 27 37 0 36 -26 38 -38 6 -38 -13 0 -43 -7 -67 -16 l-44 -16 -56 6 c-30 3 -66 9 -79 14 l-24 9 44 32 44 32 14 -28 c8 -15 20 -31 26 -35z"/><path d="M4213 3059 l-33 -21 -31 -66 c-17 -37 -39 -83 -48 -102 -8 -19 -40 -70 -69 -113 l-53 -78 5 -17 c10 -32 98 -127 218 -235 l116 -106 49 -73 c28 -42 60 -108 75 -153 27 -82 39 -173 23 -177 -13 -4 -50 75 -92 197 -21 62 -55 136 -78 170 l-40 60 -105 75 c-58 41 -128 98 -156 127 -28 29 -58 53 -66 53 -15 0 -232 -135 -458 -285 -277 -183 -424 -356 -490 -573 -12 -40 -20 -76 -16 -79 3 -3 7 0 10 8 40 131 54 169 83 217 80 132 200 257 348 361 87 61 425 280 491 318 l41 23 37 -45 c21 -25 81 -76 134 -114 163 -116 191 -152 258 -338 54 -148 88 -204 114 -188 l11 7 -7 56 c-8 68 -39 172 -66 227 -37 71 -94 138 -229 265 -128 121 -189 190 -189 215 0 7 22 41 49 76 27 35 66 106 88 156 36 87 72 143 91 143 4 0 6 -19 5 -42 l-2 -43 10 45 c5 25 8 50 7 57 l-3 12 -32 -20z"/><path d="M4211 2981 c-1 -49 47 -150 165 -346 118 -196 151 -274 187 -435 15 -63 46 -205 71 -315 25 -110 53 -252 62 -315 l18 -115 1 -200 0 -200 -38 -105 c-56 -154 -127 -415 -134 -492 l-6 -68 10 0 c38 0 150 367 172 565 l10 90 36 85 c97 228 208 370 275 353 23 -6 46 -63 59 -144 6 -34 13 -64 17 -68 4 -3 4 10 1 29 -3 19 -9 56 -13 83 -3 26 -16 62 -28 80 l-22 32 -38 -1 -37 -1 -31 -29 c-46 -44 -107 -137 -165 -254 l-52 -105 5 90 c12 184 -21 407 -130 889 -67 293 -83 334 -217 552 -81 132 -124 221 -134 277 -4 20 -11 34 -16 32 -5 -3 -11 7 -15 22 -10 47 -12 49 -13 14z m469 -2158 c-26 -126 -84 -323 -111 -373 l-18 -35 -1 21 c-1 55 141 547 148 512 2 -10 -6 -66 -18 -125z"/><path d="M5707 2780 c8 -29 -5 -70 -22 -70 l-15 0 0 34 c0 39 -17 57 -27 29 -19 -54 -89 -116 -177 -156 l-38 -18 4 13 c3 7 8 23 12 36 l7 22 -15 0 c-8 0 -27 -17 -41 -37 l-25 -38 0 -111 0 -112 -39 -69 c-66 -113 -68 -157 -20 -316 l23 -77 -13 -48 c-6 -26 -24 -67 -39 -92 l-26 -45 -9 35 c-24 100 -40 141 -57 150 l-19 10 -17 -25 -16 -25 4 -58 c8 -102 78 -237 172 -335 44 -45 142 -99 202 -112 l32 -6 6 -22 c3 -12 6 -43 6 -68 0 -75 27 -204 75 -364 25 -82 57 -213 71 -290 28 -152 32 -170 38 -164 13 13 -21 306 -59 514 -8 44 -24 136 -36 205 l-20 125 10 28 11 27 19 0 c34 0 81 -50 172 -187 50 -74 119 -171 154 -217 35 -46 103 -143 150 -216 86 -134 113 -162 51 -52 -44 78 -110 176 -158 233 -89 109 -170 284 -188 406 l-9 68 3 -70 3 -70 31 -77 c36 -93 29 -92 -29 4 -60 99 -113 165 -149 183 l-30 16 -19 -10 c-45 -25 -44 -36 44 -535 14 -81 24 -150 22 -152 -2 -2 -20 58 -40 133 -21 76 -48 179 -62 228 -14 50 -30 139 -37 199 l-12 110 -18 18 -18 18 55 0 55 0 19 19 20 20 20 -6 c11 -3 37 -2 56 1 l36 7 44 43 c25 23 47 41 49 39 2 -3 21 25 41 62 21 36 35 68 32 71 -3 3 -28 -27 -55 -68 -60 -88 -88 -116 -137 -133 -104 -35 -111 55 -13 162 67 73 103 124 121 171 18 44 23 147 9 156 -5 3 -7 -17 -4 -43 l4 -49 -16 -48 c-15 -45 -36 -76 -140 -199 -22 -26 -45 -67 -52 -93 l-13 -47 0 43 -1 43 33 62 32 62 0 55 0 55 -23 46 c-13 25 -47 72 -75 105 -61 71 -97 146 -104 217 l-5 53 16 56 16 56 32 33 33 34 0 77 0 78 29 10 c16 5 44 10 62 10 l32 0 27 -32 c26 -31 52 -80 91 -176 9 -23 23 -47 31 -54 l15 -12 -21 45 c-11 24 -33 73 -49 109 -16 36 -44 83 -62 103 l-32 37 19 0 c23 0 63 27 63 42 0 6 -8 4 -18 -5 l-18 -17 -103 -11 -103 -11 -24 11 -24 11 0 -10 c0 -16 51 -32 80 -25 l25 6 -23 -18 -23 -18 12 -33 c16 -47 6 -93 -35 -152 -46 -67 -60 -119 -53 -202 l6 -66 25 -49 c13 -26 47 -75 75 -108 29 -33 62 -80 74 -105 l22 -45 0 -51 -1 -51 -23 -39 c-13 -21 -30 -56 -37 -78 l-14 -39 11 -38 12 -38 -14 -17 -14 -17 -82 6 -83 6 -46 20 c-64 29 -144 115 -204 222 l-51 91 -9 55 c-11 64 -3 113 17 113 16 0 52 -74 53 -107 0 -12 5 -34 10 -48 l10 -27 15 12 c8 7 28 39 45 73 l30 60 0 42 c0 23 -11 75 -25 115 -14 41 -25 96 -25 125 l0 52 60 118 60 118 0 36 c0 20 3 53 6 74 l7 37 44 20 c68 30 120 42 203 46 41 3 95 5 119 7 l44 2 29 -28 28 -29 0 -32 0 -31 45 -80 c25 -43 48 -97 52 -120 3 -22 9 -47 14 -55 l8 -15 1 36 c0 43 -19 93 -66 169 l-34 55 -9 66 c-9 64 -33 119 -52 119 -5 0 0 -15 11 -32 28 -46 25 -56 -7 -27 -16 14 -45 38 -66 53 -21 15 -46 43 -54 62 -18 37 -34 46 -26 14z m-39 -84 c15 -9 43 4 50 24 l7 18 41 -37 41 -36 -91 -2 c-50 -1 -105 -5 -122 -8 l-31 -5 41 43 41 43 7 -17 c4 -9 11 -20 16 -23z m-253 -101 c-8 -26 -15 -62 -16 -79 0 -17 -5 -40 -10 -51 l-9 -20 3 76 2 75 18 28 c25 38 29 29 12 -29z"/><path d="M4890 2777 c0 -3 11 -29 23 -58 13 -30 30 -75 37 -102 l13 -47 -6 -93 c-4 -50 -9 -105 -12 -122 l-5 -30 9 22 c5 11 15 57 22 100 l12 78 -8 80 c-4 44 -10 72 -14 62 l-6 -17 -24 60 c-20 51 -41 85 -41 67z"/><path d="M4530 2483 c1 -30 37 -153 85 -283 113 -310 133 -414 137 -727 1 -112 6 -203 10 -203 11 0 10 263 -3 405 -17 199 -27 237 -173 653 -20 56 -36 113 -36 127 0 13 -4 27 -10 30 -5 3 -10 3 -10 -2z"/><path d="M6101 2350 c0 -30 11 -98 25 -150 49 -185 49 -303 0 -414 -14 -31 -26 -56 -28 -56 -2 0 -3 49 -3 109 0 60 -4 113 -8 117 -18 19 -27 -29 -27 -154 l0 -133 -16 -32 c-30 -58 -76 -108 -128 -138 -28 -17 -40 -27 -26 -24 44 12 104 59 135 107 17 26 32 47 35 47 3 1 13 -26 23 -58 39 -123 164 -287 421 -551 100 -102 198 -207 220 -233 21 -27 40 -46 43 -43 10 9 -70 100 -247 281 -279 286 -392 438 -437 587 l-14 49 34 52 c50 78 68 133 74 232 l6 90 -28 105 c-15 58 -33 141 -40 185 l-13 80 -1 -55z"/><path d="M4176 2178 c-11 -96 -6 -251 14 -423 44 -380 21 -554 -141 -1037 -99 -297 -109 -333 -88 -326 20 7 135 204 182 312 82 185 160 451 171 576 l6 65 -24 -110 c-47 -222 -114 -422 -198 -590 -55 -111 -118 -218 -124 -212 -2 2 32 109 76 237 136 395 171 557 172 805 l0 140 -22 185 -22 185 6 123 c6 129 3 157 -8 70z"/><path d="M6375 1668 c74 -242 109 -326 227 -537 51 -91 107 -204 125 -251 18 -47 32 -77 33 -67 0 34 -71 191 -160 352 -95 173 -119 225 -174 383 -41 118 -40 116 -23 106 6 -4 3 2 -7 14 -24 28 -29 28 -21 0z"/><path d="M6596 1255 c41 -93 93 -214 115 -268 22 -54 51 -121 65 -148 13 -27 22 -55 18 -61 l-7 -11 13 8 13 8 -6 -16 c-3 -9 3 -27 14 -41 11 -14 35 -58 55 -98 19 -40 32 -61 29 -45 -3 15 -26 71 -51 125 -66 141 -130 282 -223 493 -45 103 -89 195 -96 205 -8 11 19 -57 61 -151z"/></g></svg>