<?xml version="1.0" standalone="no"?><!DOCTYPE svg PUBLIC "-//W3C//DTD SVG 20010904//EN" "http://www.w3.org/TR/2001/REC-SVG-20010904/DTD/svg10.dtd"><svg version="1.0" xmlns="http://www.w3.org/2000/svg" width="1024.000000" height="572.000000" viewBox="0 0 1024.000000 572.000000" preserveAspectRatio="xMidYMid meet"><g transform="translate(0.000000,572.000000) scale(0.100000,-0.100000)" fill="#000000" stroke="none"><path d="M4930 5200 c-163 -17 -315 -79 -516 -212 -273 -180 -352 -300 -426 -648 l-22 -105 0 -146 -1 -147 18 -20 18 -19 -42 -54 c-23 -30 -83 -97 -133 -149 -100 -104 -153 -178 -182 -255 l-19 -50 0 -95 1 -95 31 -67 c17 -37 33 -84 35 -104 l3 -37 -30 -8 c-67 -18 -144 -75 -145 -107 0 -7 -15 -27 -32 -45 l-33 -33 -42 -140 c-44 -148 -58 -222 -68 -349 l-6 -80 14 -25 c7 -14 21 -24 30 -24 l17 2 0 -57 0 -56 20 -33 c22 -36 35 -39 60 -17 l17 15 -5 -48 -4 -48 21 -42 c12 -23 30 -46 42 -52 l21 -12 19 18 c10 9 19 22 19 27 0 6 -7 2 -15 -9 l-15 -19 15 37 15 37 0 118 c0 118 11 186 32 199 l11 7 -9 -14 c-5 -8 -12 -75 -16 -149 -4 -74 -10 -172 -13 -218 l-6 -84 21 -44 c12 -24 31 -49 41 -55 27 -14 64 -8 65 11 0 8 6 33 12 55 7 22 12 91 12 153 l0 113 13 32 c8 18 22 39 32 47 l17 14 -21 -34 -21 -35 0 -85 c0 -47 -5 -114 -11 -150 -17 -105 -18 -129 -8 -162 10 -36 5 -48 -13 -30 -38 38 -138 4 -413 -141 -104 -55 -246 -129 -316 -163 l-125 -64 -62 -56 c-95 -86 -80 -106 45 -58 38 14 96 31 129 39 l62 13 48 -9 49 -9 65 -44 c114 -76 351 -297 502 -467 80 -90 153 -170 162 -178 l16 -13 6 15 c23 62 -161 415 -302 578 -64 74 -187 184 -242 216 -23 14 -42 27 -40 28 3 2 117 67 211 119 23 13 85 47 137 75 52 29 99 56 104 61 4 4 24 -3 43 -16 90 -61 123 -2 123 217 l0 110 14 34 15 35 29 0 30 0 30 -28 c16 -16 35 -45 40 -65 l10 -37 -10 -36 -9 -36 -75 -71 -74 -71 -11 -40 -11 -40 12 -40 c7 -23 28 -55 47 -73 l34 -33 30 0 c65 0 89 52 98 222 l8 127 17 25 16 26 36 0 36 0 34 -34 34 -34 0 -49 0 -48 -95 -90 c-55 -53 -99 -103 -106 -122 l-10 -31 10 -40 11 -40 35 -31 c19 -16 51 -33 72 -37 l37 -7 25 14 26 14 17 50 17 50 -6 115 -5 115 22 28 21 27 41 0 40 0 39 -39 39 -39 0 -36 c0 -52 -9 -65 -99 -140 -45 -38 -86 -81 -96 -102 l-17 -37 5 -36 6 -36 42 -37 c67 -61 140 -63 183 -5 l21 28 -1 82 c0 45 -2 113 -5 150 l-4 69 24 19 23 19 43 0 43 0 31 -25 c16 -14 35 -41 41 -61 l12 -34 -19 -34 c-10 -18 -51 -61 -90 -95 -106 -90 -124 -136 -80 -202 43 -65 144 -97 206 -64 l29 14 16 41 c20 50 20 78 0 175 -9 43 -13 92 -9 111 l6 34 25 16 24 17 39 -6 c61 -8 121 -64 121 -114 0 -10 -39 -55 -89 -103 l-89 -85 -12 -41 -12 -41 17 -37 18 -37 36 -19 c92 -47 199 -17 216 60 l7 30 -28 82 c-15 46 -28 102 -28 126 l-1 44 28 24 28 24 56 0 55 0 29 -17 c15 -9 33 -29 39 -44 l12 -27 -12 -24 c-7 -12 -43 -54 -80 -93 -37 -38 -75 -85 -84 -104 l-18 -33 6 -33 c12 -61 68 -95 160 -95 l65 0 19 -52 c11 -29 23 -68 27 -86 3 -18 10 -30 15 -27 4 3 6 -3 4 -12 -3 -10 6 -65 20 -123 26 -108 44 -166 45 -141 1 24 -41 236 -48 241 -3 3 -7 23 -8 44 -2 22 -7 42 -11 45 -5 3 -20 32 -35 63 l-26 58 19 13 c11 8 27 31 36 52 l16 39 -7 40 c-3 23 -18 78 -32 123 l-25 83 16 25 c40 62 162 58 196 -6 l11 -20 -11 -35 c-7 -19 -39 -71 -72 -116 l-61 -82 -4 -41 -5 -40 27 -27 c31 -31 79 -43 132 -33 l37 7 34 34 35 35 8 -12 c4 -7 16 -49 27 -93 25 -98 98 -307 117 -333 l14 -18 1 36 c0 20 -11 79 -24 130 -13 52 -27 121 -31 155 l-7 60 14 11 c7 6 30 16 51 23 49 15 103 62 111 96 l7 27 29 -28 29 -27 34 6 c59 11 137 84 137 129 0 20 4 21 31 6 l20 -10 34 11 c41 14 89 65 105 115 l12 36 14 -5 c15 -6 69 36 86 68 6 11 14 36 17 54 3 18 9 32 12 30 23 -11 65 60 79 132 l10 50 -21 88 -21 87 6 63 c4 34 11 74 17 89 l10 26 10 -10 c14 -14 15 -64 5 -179 -5 -51 -6 -104 -2 -119 l7 -28 16 16 16 16 9 78 c5 43 11 146 14 230 l6 151 -13 23 c-7 13 -13 51 -13 85 l-1 62 -21 24 -21 23 -2 39 c-3 52 -37 112 -72 126 l-28 12 -6 29 c-8 37 -66 99 -92 99 -12 0 -32 15 -47 35 -28 36 -73 65 -101 65 -9 0 -26 11 -38 25 -23 27 -95 57 -111 47 -5 -3 10 -11 33 -18 40 -11 81 -39 81 -53 0 -4 -16 -15 -35 -25 -19 -11 -33 -21 -31 -23 2 -3 18 3 35 11 16 9 46 16 67 16 l36 0 34 -34 c19 -19 34 -39 34 -44 0 -11 -74 -42 -149 -62 -55 -14 -156 -59 -149 -65 2 -3 73 20 157 50 84 30 162 55 175 55 32 0 110 -90 92 -107 -3 -3 -68 -18 -144 -33 -151 -31 -305 -70 -299 -77 3 -2 51 7 108 21 152 36 306 66 343 66 l33 0 21 -23 c22 -24 42 -75 42 -109 l0 -18 -202 0 -203 0 -89 -15 c-50 -8 -96 -21 -105 -30 l-15 -15 29 0 c17 0 110 9 208 20 99 11 224 21 279 22 l100 3 19 -23 c23 -29 34 -85 21 -108 l-10 -18 -53 3 c-30 1 -108 9 -174 17 -66 8 -189 13 -275 12 l-155 -2 165 -6 c91 -4 239 -15 330 -25 l165 -18 0 -103 0 -102 -12 10 -13 10 -15 -12 c-19 -15 -35 -73 -35 -124 l0 -39 -17 15 c-43 37 -557 221 -601 216 l-27 -4 30 -13 c17 -7 69 -24 116 -36 77 -21 187 -59 381 -132 62 -23 94 -43 69 -43 -6 0 -23 -21 -38 -47 l-27 -47 0 -51 0 -50 28 -77 28 -77 -6 -44 -7 -43 -30 -37 c-17 -20 -36 -37 -44 -37 -31 0 -33 73 -5 180 11 41 20 94 20 116 l0 42 -37 33 c-50 45 -181 132 -190 126 -11 -6 -57 12 -50 19 3 3 16 0 29 -6 l23 -11 -25 20 c-36 30 -229 127 -267 136 l-33 7 0 -10 c0 -15 53 -46 239 -138 91 -45 190 -98 219 -117 l54 -34 -29 -12 c-15 -6 -39 -28 -53 -48 l-25 -37 1 -55 0 -56 32 -62 c40 -77 40 -116 4 -174 -37 -57 -56 -72 -82 -64 l-20 6 0 38 c0 20 14 77 30 126 52 152 44 172 -125 307 -61 49 -142 116 -181 148 -71 59 -92 72 -78 48 4 -8 3 -10 -2 -5 -5 5 -9 14 -9 20 0 5 -6 12 -12 15 -7 2 -13 -3 -13 -10 0 -13 86 -81 275 -218 33 -24 81 -64 107 -88 l48 -44 6 -32 6 -32 -36 -105 c-19 -57 -35 -97 -35 -88 -1 8 10 49 24 89 39 116 32 180 -21 180 -43 0 -114 -85 -114 -137 0 -10 -15 7 -33 37 -93 155 -307 393 -307 342 0 -15 49 -75 152 -185 57 -60 111 -122 121 -138 l18 -28 -41 1 -41 0 -39 -27 c-21 -15 -46 -43 -56 -63 l-18 -37 -6 31 c-4 17 -20 55 -37 85 -69 125 -148 257 -151 254 -5 -4 57 -121 123 -235 l55 -94 0 -31 c0 -32 -41 -128 -59 -139 -6 -4 3 21 19 56 36 76 37 92 5 123 l-24 25 -39 0 -39 0 -34 -23 c-19 -12 -41 -37 -50 -55 l-17 -32 -6 16 c-3 8 -6 46 -6 82 0 37 -7 96 -15 132 -16 70 -71 219 -87 235 -5 6 -2 -8 7 -30 38 -88 74 -219 79 -288 3 -39 3 -63 -1 -52 -3 11 -27 92 -53 180 -26 88 -50 173 -54 188 l-7 29 12 -8 12 -7 -7 12 c-13 21 -25 1 -19 -32 3 -18 28 -106 54 -197 27 -90 49 -168 49 -172 0 -4 -20 2 -45 13 l-45 20 -37 -7 c-23 -4 -51 -20 -70 -39 l-31 -31 -4 245 -4 246 -13 33 c-7 17 -18 32 -24 32 l-10 0 6 -133 c4 -73 11 -155 16 -182 5 -28 12 -91 16 -140 l6 -90 -15 33 -15 33 -47 21 -47 20 -43 -5 c-23 -2 -56 -14 -72 -26 l-31 -21 25 77 c52 165 104 433 84 433 -4 0 -10 -33 -14 -73 -4 -39 -16 -108 -26 -152 l-20 -80 5 80 c4 86 31 226 44 235 4 3 10 13 14 23 l6 17 -27 31 -28 32 -42 0 -42 0 -5 18 c-8 25 -61 52 -91 46 l-23 -4 -12 29 c-14 34 -37 48 -76 48 l-28 0 -13 29 -13 29 -37 15 c-35 14 -65 38 -167 138 -22 21 -45 39 -51 39 -6 0 -16 11 -22 24 -6 14 -22 32 -36 41 -33 22 -43 57 -57 195 -6 63 -18 135 -25 159 l-13 44 17 13 c26 20 32 17 32 -16 0 -44 56 -214 101 -303 62 -127 154 -229 329 -369 47 -37 159 -104 293 -173 42 -22 77 -46 77 -52 0 -7 5 -13 11 -13 6 0 41 -20 78 -44 36 -24 107 -65 156 -91 50 -27 102 -57 117 -67 36 -25 46 -23 21 4 -29 32 -102 142 -141 213 -18 33 -30 49 -27 35 6 -22 67 -124 113 -190 l17 -24 -15 9 c-8 5 -21 10 -27 11 -27 4 -84 47 -129 97 -47 51 -50 49 -11 -6 l19 -28 -53 32 c-67 40 -144 113 -160 151 -6 15 -16 28 -21 28 -5 0 -6 5 -2 12 l7 11 -13 -8 -12 -8 6 24 c3 13 3 17 -1 9 l-7 -15 -13 40 -13 40 4 -30 c3 -16 8 -39 12 -49 l7 -19 -10 6 c-13 8 -43 92 -43 122 0 11 9 37 19 58 10 20 15 37 10 37 -16 0 -39 -59 -39 -100 0 -47 20 -100 56 -147 14 -18 21 -33 16 -33 -18 0 -236 131 -305 184 -89 68 -224 205 -262 266 -66 105 -134 282 -150 393 l-7 47 -14 0 c-7 0 -18 -9 -24 -20 l-11 -20 -31 0 c-17 0 -46 9 -64 21 -37 22 -149 183 -185 263 l-21 48 15 15 14 14 6 -29 c3 -16 29 -54 56 -83 62 -67 67 -58 6 11 -60 68 -71 123 -27 138 l12 4 0 -27 c0 -54 42 -105 87 -105 11 0 29 -13 41 -30 13 -16 31 -30 42 -30 l20 0 0 28 c0 15 -14 47 -30 72 l-30 45 0 33 c0 18 8 47 17 65 l17 32 11 -74 12 -74 27 -24 27 -23 19 10 c44 23 50 112 19 258 l-21 97 4 80 5 80 49 100 49 100 0 65 -1 65 -28 75 c-16 43 -30 105 -33 145 l-5 70 16 68 c20 85 64 172 134 266 l56 74 111 53 c123 59 220 93 346 120 l84 19 150 -1 150 0 67 -17 c37 -9 104 -31 148 -48 l81 -31 58 -54 c113 -104 212 -276 251 -436 l21 -83 9 -190 c5 -104 13 -206 19 -225 15 -48 15 -48 -19 -15 l-31 30 -72 3 -72 3 -58 -20 c-32 -11 -73 -33 -93 -49 -39 -32 -98 -146 -109 -209 l-6 -41 19 -64 c11 -35 30 -110 42 -167 12 -57 35 -136 51 -176 16 -40 29 -91 29 -112 0 -104 -111 -163 -211 -112 l-41 20 -36 -3 c-21 -2 -36 1 -35 7 4 17 73 17 99 0 14 -9 30 -15 36 -13 18 6 -43 40 -82 45 -20 3 -47 0 -60 -7 l-22 -12 5 -19 5 -19 -14 0 c-8 0 -26 11 -39 25 l-25 24 0 45 0 44 26 31 c32 38 64 40 95 6 49 -53 79 -54 104 -4 21 41 18 50 -4 13 -29 -48 -38 -49 -81 -10 -48 44 -79 46 -121 8 l-32 -28 -5 -52 -5 -52 16 -24 c9 -13 32 -29 51 -36 l34 -11 38 16 38 16 59 -26 58 -27 40 7 c68 12 129 79 129 143 0 16 -15 72 -34 123 -18 52 -43 140 -55 197 -12 56 -29 121 -37 144 -8 23 -11 44 -6 47 4 3 14 21 21 39 29 72 126 142 196 142 65 0 135 -58 135 -112 l0 -18 -20 20 c-42 42 -129 53 -198 25 -45 -19 -112 -83 -112 -107 l0 -17 38 -7 c20 -4 51 -13 69 -21 63 -26 218 -5 198 27 -3 5 -2 11 3 14 18 11 10 -44 -11 -75 l-23 -34 -44 -12 -45 -11 28 -1 c16 -1 43 7 59 17 l30 17 19 44 19 44 -11 13 -12 14 -32 -20 c-47 -29 -108 -33 -198 -12 l-78 17 38 40 38 39 5 -27 c13 -68 95 -95 145 -46 l19 19 0 35 c0 19 3 35 7 35 9 0 59 -51 59 -61 0 -15 43 -10 62 8 l18 16 -6 -45 c-4 -27 1 -95 11 -163 l18 -116 -7 -75 c-3 -41 -15 -112 -27 -157 -11 -45 -31 -134 -43 -197 l-23 -115 -21 -3 c-29 -4 -90 29 -153 84 -30 25 -73 55 -97 66 l-43 19 -34 -11 c-20 -6 -40 -21 -46 -32 l-11 -21 11 -37 c16 -54 47 -77 155 -115 97 -35 170 -44 206 -25 l18 10 -15 -68 c-9 -37 -32 -112 -53 -167 l-38 -100 -7 28 c-4 15 -11 27 -16 27 -11 0 -79 -123 -78 -141 0 -8 5 -4 11 9 14 27 30 24 40 -9 4 -14 5 -6 2 19 -4 25 -1 56 6 73 l13 30 10 -10 10 -10 -24 -111 -24 -112 -6 43 -6 44 -1 -51 -2 -51 -35 -69 c-19 -38 -44 -80 -55 -94 l-20 -25 19 45 c11 25 22 70 25 100 l6 55 -14 -61 c-22 -93 -107 -251 -129 -237 -5 3 -7 1 -3 -5 3 -6 2 -13 -3 -16 -5 -4 -12 2 -14 11 -3 10 -4 6 -4 -9 1 -16 6 -28 12 -28 31 0 167 180 228 301 l47 94 19 90 c11 50 31 117 45 150 27 60 66 198 66 233 0 11 11 27 25 36 25 17 65 72 65 90 0 6 -13 -3 -30 -19 -16 -16 -33 -26 -36 -22 -6 5 42 253 52 269 3 4 11 8 17 8 40 0 137 127 137 179 0 7 22 37 49 67 l50 54 21 58 22 57 -4 87 -3 86 -82 164 -82 163 -15 75 c-8 41 -19 118 -25 170 -28 232 -110 408 -265 568 l-71 73 3 28 3 27 -42 63 c-47 71 -200 243 -278 313 -93 84 -204 123 -395 138 -123 11 -208 11 -306 0z m450 -34 c41 -10 107 -33 146 -51 l70 -34 75 -78 c145 -152 265 -303 240 -303 -5 0 -14 7 -21 15 -21 25 -132 83 -208 109 -259 88 -564 45 -917 -129 -341 -168 -594 -400 -730 -671 l-44 -88 -5 25 c-32 155 26 493 118 694 55 118 179 235 383 359 246 150 344 176 633 172 l185 -3 75 -17z m150 -321 c112 -17 190 -42 275 -90 61 -34 132 -91 123 -100 -2 -2 -38 13 -80 35 -145 76 -264 104 -448 104 l-135 0 -83 -18 c-408 -88 -803 -346 -1082 -707 -38 -50 -70 -87 -70 -82 0 14 85 154 129 213 241 321 733 603 1137 649 105 13 131 12 234 -4z m569 -405 c100 -144 143 -267 170 -486 l19 -151 26 -73 c13 -40 48 -112 75 -160 59 -102 77 -147 86 -222 l7 -55 -16 -62 c-18 -71 -34 -98 -93 -163 -24 -26 -43 -53 -43 -61 0 -29 -53 -117 -86 -142 -19 -15 -37 -25 -39 -23 -2 2 2 27 9 55 8 29 17 82 21 120 l7 68 -14 85 c-17 111 -17 246 1 343 l15 77 -13 68 c-7 37 -16 146 -21 242 -16 321 -59 443 -236 680 -14 19 -1 8 31 -25 31 -33 73 -85 94 -115z m-1451 79 c-18 -23 -59 -78 -91 -122 -220 -310 -244 -368 -253 -612 -6 -160 -14 -193 -57 -241 -39 -45 -65 -58 -162 -79 -125 -28 -198 -73 -235 -146 l-20 -38 0 -73 0 -73 28 -60 c44 -93 152 -175 235 -179 l32 -1 -4 20 c-9 52 -12 135 -4 135 5 0 14 -15 21 -34 17 -47 117 -204 155 -244 18 -19 51 -38 77 -46 l45 -13 11 -63 c7 -34 14 -99 18 -144 l6 -81 -24 48 c-35 71 -63 95 -133 117 -85 26 -116 43 -160 89 l-38 39 -53 7 c-30 4 -84 23 -122 41 l-69 35 -45 50 c-43 48 -88 127 -101 179 l-6 25 28 -31 c47 -51 139 -121 177 -134 69 -22 60 -3 -15 33 l-75 36 -52 55 c-30 31 -67 86 -85 123 l-32 68 -3 83 -4 83 17 52 c25 78 69 140 188 267 l109 115 111 159 c161 229 338 409 537 545 41 28 77 51 78 51 2 0 -11 -18 -30 -41z m-134 -244 c-9 -28 -16 -88 -17 -135 l-1 -85 33 -92 33 -92 -4 -64 -4 -65 -42 -80 c-23 -44 -44 -98 -48 -121 -11 -69 -24 -46 -24 42 l1 82 23 70 c29 84 27 95 -4 23 l-23 -53 -6 -170 -7 -170 -23 -48 c-26 -54 -80 -101 -166 -146 -117 -60 -160 -129 -136 -216 l10 -36 -12 4 c-23 7 -68 84 -74 123 -12 92 44 178 164 254 121 77 143 112 173 276 l19 105 26 42 c14 23 41 64 60 90 37 52 59 115 52 150 l-4 22 -2 -30 c-3 -51 -26 -101 -79 -172 -53 -72 -70 -116 -95 -252 l-16 -84 -27 -38 c-15 -21 -56 -57 -93 -80 -131 -82 -191 -162 -191 -255 0 -67 49 -148 100 -167 l15 -5 -21 -1 c-32 -1 -141 57 -179 96 -69 71 -103 203 -75 287 28 86 96 134 237 167 48 11 99 27 114 34 42 22 87 81 104 137 l15 52 0 119 0 119 16 61 c8 33 29 90 45 125 29 64 138 237 145 230 2 -2 -4 -26 -12 -53z m1635 -593 c19 -9 41 -28 50 -40 l15 -24 -35 21 c-56 34 -97 28 -264 -43 -63 -27 -77 -21 -51 19 20 30 58 51 128 69 72 20 117 19 157 -2z m31 -62 l28 -20 5 -32 c6 -42 -15 -122 -38 -148 -22 -24 -27 -21 -31 24 -5 62 -56 116 -121 130 -74 16 -177 -43 -226 -129 l-28 -50 5 38 c3 21 14 58 26 82 l21 42 38 6 c21 2 74 21 117 41 l79 36 48 0 49 0 28 -20z m-146 -166 c12 -31 6 -53 -21 -74 -34 -27 -70 -22 -96 11 l-19 27 7 21 c3 11 13 21 21 21 8 0 12 -4 9 -10 -10 -15 14 -50 34 -50 25 0 45 25 38 50 l-5 20 13 0 c7 0 16 -7 19 -16z m-1554 -178 l22 -119 -7 -36 c-10 -50 -23 -71 -45 -71 -27 0 -42 33 -50 114 -5 39 -13 72 -18 74 -6 2 3 26 20 53 l31 50 5 57 5 57 8 -30 c3 -16 17 -84 29 -149z m-146 -95 l-16 -32 6 -32 c3 -17 20 -52 37 -79 l31 -48 -7 -18 -7 -17 -26 31 c-15 17 -39 34 -54 38 -15 3 -37 16 -48 28 -22 24 -38 90 -23 95 6 2 34 18 64 37 30 18 55 32 57 31 1 -1 -5 -16 -14 -34z m-604 -243 c13 -29 48 -77 77 -106 l53 -53 62 -29 c35 -16 87 -34 117 -40 l54 -10 15 -21 c23 -33 101 -78 174 -100 l67 -19 25 -31 c15 -17 24 -35 20 -40 -3 -5 0 -9 7 -9 7 0 10 -2 8 -4 -2 -3 -51 9 -109 25 -182 51 -532 99 -731 99 l-65 0 -21 -19 c-25 -23 -37 -70 -58 -226 -16 -117 -27 -155 -44 -155 -14 0 -21 28 -21 89 l0 57 35 72 c47 99 75 194 75 258 l0 54 36 0 c35 0 254 -42 394 -76 140 -33 309 -87 394 -125 48 -22 90 -38 92 -36 2 2 -35 22 -83 45 -143 66 -351 124 -672 187 l-134 27 -24 -11 c-27 -13 -27 -13 -7 39 9 22 25 45 36 51 l19 10 57 -11 c49 -10 116 -28 262 -69 l35 -10 -20 15 c-52 42 -257 111 -296 101 l-19 -5 0 16 c0 23 9 34 47 60 26 19 92 48 113 51 3 1 16 -23 30 -51z m-285 -346 c-10 -42 -30 -102 -46 -132 l-29 -55 6 40 c9 65 46 198 62 230 l16 30 4 -18 c2 -10 -4 -53 -13 -95z m2370 98 c15 -6 54 -36 88 -67 l62 -57 -60 62 c-76 79 -65 80 22 1 79 -72 129 -99 180 -99 l38 0 -15 -10 c-23 -15 -62 -12 -103 9 -20 10 -34 14 -30 8 l6 -10 -19 6 -19 7 20 -16 c11 -8 32 -18 48 -21 29 -6 38 -23 12 -23 -28 0 -97 41 -146 87 -27 25 -49 42 -49 38 0 -15 62 -84 81 -90 11 -4 18 -9 15 -12 -11 -11 -84 43 -138 103 l-58 63 0 -19 c0 -10 11 -32 25 -47 l25 -28 -6 18 c-9 25 -1 21 25 -14 13 -18 17 -28 10 -23 -8 5 -21 9 -29 11 -22 3 -60 51 -60 74 0 28 18 59 35 59 7 0 26 -5 40 -10z m-2064 -115 c231 -20 361 -41 524 -81 76 -19 140 -36 141 -37 22 -34 57 -107 53 -112 -4 -3 -19 0 -35 6 l-29 12 -135 0 c-135 0 -183 -5 -443 -44 l-138 -22 -33 -22 -33 -22 5 46 4 47 -15 37 c-9 20 -20 37 -25 37 -5 0 0 -18 11 -41 l20 -41 -11 -56 c-7 -32 -13 -127 -14 -212 l-3 -155 -13 -22 c-25 -44 -56 -20 -73 57 -11 46 2 92 46 164 20 33 34 64 32 70 -2 5 -18 -16 -36 -48 -18 -31 -34 -56 -36 -54 -1 2 1 35 6 73 4 39 8 98 8 132 1 72 12 107 44 135 l22 19 245 -3 c135 -2 211 -1 170 2 l-75 6 80 2 c44 1 98 -1 120 -5 l40 -8 -45 -6 -45 -6 91 -1 c50 -1 127 -4 170 -7 l79 -5 -25 9 c-14 5 -88 17 -165 26 l-140 17 -250 -3 -250 -4 -22 -13 c-13 -7 -30 -26 -38 -42 l-16 -30 -8 -133 -8 -132 -16 -37 -15 -36 -16 2 c-9 1 -22 8 -29 16 l-12 13 14 -8 14 -8 -7 19 c-34 82 -30 112 24 204 71 121 98 242 65 286 -31 40 -23 41 226 19z m-230 -42 l11 -28 -11 -52 c-5 -28 -23 -78 -40 -110 -30 -58 -65 -111 -56 -83 3 8 11 62 20 120 18 133 32 180 51 180 8 0 19 -12 25 -27z m859 -193 c-34 -8 -437 -31 -495 -29 -85 4 252 36 380 37 l150 0 -35 -8z m114 -22 c14 -6 33 -22 41 -35 l15 -23 -73 0 c-88 0 -256 -28 -453 -75 -170 -42 -218 -59 -243 -91 l-19 -24 5 63 4 62 -20 33 c-12 18 -31 36 -43 41 l-22 8 25 6 c14 4 135 11 269 17 135 7 283 15 330 19 129 12 157 12 184 -1z m-765 -83 c25 -33 34 -75 26 -125 l-7 -40 -56 -73 -57 -73 3 110 c3 144 10 192 28 211 22 22 40 19 63 -10z m766 10 c-18 -7 -289 -45 -315 -44 -28 1 84 25 175 38 62 9 158 12 140 6z m99 -16 c14 -11 26 -26 26 -33 l0 -13 -66 -7 c-130 -13 -523 -154 -516 -185 1 -7 -2 -10 -8 -6 -16 10 -71 -35 -86 -71 l-14 -33 0 -133 0 -133 -18 -35 c-9 -19 -25 -36 -35 -38 -28 -6 -67 26 -88 71 -34 77 -22 122 51 192 24 22 55 60 71 84 l29 45 0 47 0 47 -27 33 c-15 17 -41 37 -57 44 l-30 13 49 15 c65 19 194 40 440 73 110 14 207 30 215 35 23 13 35 11 64 -12z m1795 7 c-2 -3 -51 -9 -109 -15 -58 -6 -123 -14 -145 -17 l-40 -5 16 10 c28 18 295 44 278 27z m-1799 -71 c0 -2 -80 -30 -177 -61 -98 -30 -218 -69 -267 -85 -49 -16 -91 -27 -93 -25 -6 6 165 76 275 112 139 46 262 74 262 59z m101 -23 c34 -31 33 -52 -4 -52 -50 0 -312 -141 -444 -239 -34 -25 -73 -64 -87 -86 l-26 -39 0 -116 c0 -128 -10 -178 -41 -206 l-20 -18 -37 19 c-20 11 -47 35 -59 54 l-23 34 0 40 0 39 79 78 80 77 11 44 12 43 -11 38 c-13 43 -62 95 -94 100 l-22 3 20 12 c11 6 112 39 223 72 112 34 242 76 290 95 109 42 115 42 153 8z m-796 -78 c28 -31 39 -72 30 -116 l-7 -32 -68 -71 -67 -71 4 96 c6 157 9 189 23 205 19 23 58 18 85 -11z m805 2 c-17 -16 -471 -248 -476 -243 -5 5 177 122 256 164 84 44 197 92 220 93 l14 0 -14 -14z m98 -2 c12 -8 26 -24 32 -34 l10 -19 -54 -27 c-30 -15 -100 -68 -154 -118 -55 -50 -132 -118 -170 -151 -38 -33 -80 -75 -92 -93 l-23 -33 1 -140 2 -139 -14 -35 c-8 -19 -25 -39 -38 -44 l-23 -9 -35 15 c-49 20 -79 51 -90 94 l-11 38 15 35 14 34 76 63 c42 35 83 79 92 98 l16 34 -5 33 c-8 47 -39 88 -83 109 l-36 17 -24 -11 c-13 -6 -33 -25 -44 -43 -11 -18 -20 -28 -20 -21 0 6 12 26 26 43 l27 31 246 124 c135 67 257 132 271 143 30 26 58 27 88 6z m-1043 -24 c-4 -12 -10 -86 -14 -165 l-7 -145 -17 -17 -17 -18 -18 11 c-51 32 -70 130 -37 194 16 32 106 158 113 160 2 0 0 -9 -3 -20z m1170 -65 c34 -33 32 -46 -15 -84 -62 -49 -163 -173 -252 -306 -44 -66 -81 -121 -82 -122 -1 -1 -2 16 -2 39 -2 49 -27 86 -84 117 l-43 24 -29 -11 c-16 -6 -28 -7 -26 -3 7 20 91 85 343 268 39 28 81 63 94 77 31 33 65 33 96 1z m-111 -3 c-5 -4 -43 -32 -84 -62 -41 -31 -91 -66 -110 -79 l-35 -24 55 52 c63 59 170 134 179 126 3 -3 1 -9 -5 -13z m226 -57 c16 -8 31 -23 35 -33 l5 -19 -41 -63 c-42 -63 -150 -297 -195 -422 -28 -79 -30 -128 -8 -233 24 -114 8 -151 -70 -166 l-48 -9 -26 14 c-37 19 -61 47 -71 83 l-9 30 13 30 c7 17 49 61 93 97 81 68 102 98 102 142 0 79 -101 152 -173 125 l-26 -10 4 19 c7 39 148 231 235 322 160 167 87 53 -119 -187 -91 -106 -136 -165 -80 -104 98 105 271 317 286 350 10 21 27 40 38 42 11 2 21 5 23 6 2 0 16 -6 32 -14z m140 -70 c37 -19 40 -33 19 -70 -20 -35 -45 -164 -54 -280 -6 -78 -30 -206 -45 -234 l-7 -13 -6 29 c-11 56 -76 103 -142 103 -90 0 -109 -51 -81 -213 l14 -77 -8 -35 c-10 -44 -36 -85 -54 -85 l-14 0 29 29 29 29 0 34 c0 18 -7 67 -16 108 l-16 75 7 49 c3 27 13 63 22 80 9 17 17 40 18 51 5 46 171 385 196 401 l11 7 -7 -24 c-10 -35 -107 -232 -156 -319 -23 -41 -37 -70 -31 -65 36 34 181 316 202 394 l11 41 25 0 c14 0 38 -7 54 -15z m885 -35 c74 -32 161 -83 148 -87 -13 -5 -228 101 -238 117 l-6 10 23 -9 c13 -5 46 -19 73 -31z m653 -110 c-3 -65 -9 -115 -16 -122 l-12 -12 0 22 c0 39 23 222 28 222 2 0 3 -50 0 -110z m-1343 -160 l4 -135 -9 55 c-4 30 -11 102 -14 160 l-6 105 11 -25 c6 -14 12 -86 14 -160z m1240 143 c3 -10 -4 -76 -17 -147 l-22 -130 -19 44 c-36 82 -35 156 3 218 22 35 44 42 55 15z m-639 -188 l46 -60 -74 75 c-40 41 -84 91 -97 110 l-24 35 52 -50 c28 -27 72 -77 97 -110z m681 -7 c-5 -58 -33 -122 -52 -119 -15 2 -11 86 10 188 l19 93 14 -53 c8 -30 12 -76 9 -109z m-2907 111 l35 -22 -24 -16 c-14 -9 -67 -39 -120 -67 -53 -28 -149 -81 -213 -117 l-117 -66 -57 19 c-31 11 -73 20 -93 20 l-36 0 195 102 c204 106 341 168 375 168 11 0 36 -10 55 -21z m2735 -80 c6 -18 0 -56 -33 -202 l-18 -79 -32 63 -32 62 0 49 c0 56 20 97 58 120 30 18 49 14 57 -13z m-1897 -217 l3 -147 -20 -31 c-11 -18 -30 -33 -44 -36 -38 -7 -98 17 -129 52 l-28 30 0 42 0 42 56 51 c46 42 159 144 159 145 0 0 1 -66 3 -148z m1706 92 l16 -6 0 -33 c0 -18 -14 -77 -31 -131 -17 -55 -32 -126 -33 -159 l-3 -59 -46 -42 c-25 -23 -56 -44 -69 -47 l-23 -5 19 11 c69 44 96 84 99 147 0 21 5 36 9 34 14 -9 9 5 -22 59 l-30 54 0 45 0 45 23 34 c12 18 34 39 47 46 30 15 25 14 44 7z m-3029 -84 l30 -12 -70 -34 -70 -35 -30 3 -30 3 -3 24 c-2 12 -1 34 2 46 l6 24 28 3 c33 4 97 -6 137 -22z m-192 -25 l-6 -35 13 -15 c21 -25 80 -18 159 20 l73 35 51 -27 c28 -16 101 -75 160 -133 l109 -105 63 -95 c89 -134 118 -187 159 -280 54 -121 67 -202 23 -140 -8 11 -75 89 -151 174 -146 164 -396 394 -503 463 -104 67 -160 69 -332 9 -56 -19 -101 -31 -101 -27 0 24 141 129 223 166 67 31 67 31 60 -10z m3038 -18 l11 -24 -46 -115 c-25 -64 -46 -127 -46 -140 l0 -23 -45 80 -44 80 -1 42 0 41 32 32 c36 36 61 48 101 49 l27 1 11 -23z m-252 -53 l21 -26 -6 -27 c-4 -14 -19 -50 -35 -78 -32 -58 -35 -68 -17 -57 l11 7 -7 -12 c-4 -6 -12 -9 -17 -6 -11 8 -49 -77 -50 -113 l0 -27 -9 20 c-5 11 -9 31 -9 45 -1 14 -15 54 -31 88 -34 71 -38 116 -14 151 23 33 74 61 111 61 l32 0 20 -26z m-730 -152 c12 -29 21 -70 21 -91 l0 -38 -23 -21 c-30 -28 -77 -37 -119 -23 -39 13 -92 64 -103 99 l-7 23 99 102 98 102 7 -51 c4 -27 16 -74 27 -102z m1060 89 l23 -55 -5 -44 -5 -44 -32 -33 c-34 -35 -68 -47 -94 -33 -26 15 -19 51 29 149 25 51 45 102 45 113 0 28 13 11 39 -53z m-765 -158 c39 -84 30 -129 -30 -158 l-34 -16 -50 7 c-28 4 -62 15 -75 26 l-25 19 0 30 c0 40 13 63 77 133 29 33 61 76 70 96 l18 37 12 -59 c7 -32 23 -84 37 -115z m544 53 c18 -27 35 -65 38 -83 l6 -34 -18 -20 c-39 -43 -118 -72 -174 -63 l-36 6 -2 29 c-2 30 22 81 84 179 19 30 38 68 41 84 l6 30 12 -40 c6 -21 26 -61 43 -88z m-288 -10 c16 -54 30 -116 30 -136 l0 -38 -31 -26 -31 -26 -38 0 c-52 0 -86 14 -106 44 l-16 26 6 24 c3 14 29 53 56 88 28 35 60 82 72 105 12 24 23 41 25 40 1 -2 16 -47 33 -101z m143 -212 l22 -5 1 -72 c1 -40 11 -109 23 -154 11 -45 21 -90 21 -100 -1 -27 -57 126 -89 245 l-28 103 14 -5 c8 -4 25 -9 36 -12z"/><path d="M5060 3711 c-93 -31 -279 -165 -258 -186 4 -4 31 7 60 25 29 18 82 44 118 57 l65 25 65 0 65 1 70 -21 c91 -27 168 -42 210 -42 l35 0 0 -50 0 -50 -20 -20 c-28 -28 -38 -26 -84 26 -22 25 -59 55 -81 67 l-40 21 -65 0 -65 1 -52 -29 c-29 -16 -73 -51 -99 -78 -51 -54 -85 -72 -117 -62 l-20 6 8 -12 7 -12 32 6 c17 4 39 8 48 9 9 2 37 26 62 54 26 28 70 63 98 77 l52 26 45 0 c63 -1 128 -32 177 -85 47 -51 71 -56 103 -21 l23 24 0 47 0 47 20 -19 c12 -10 34 -38 50 -62 15 -25 28 -40 28 -34 0 6 -20 38 -45 70 l-44 59 6 24 6 23 -10 -6 c-6 -4 -16 0 -23 9 -28 33 -75 58 -134 70 -77 17 -263 26 -296 15z m260 -26 c47 -8 86 -15 87 -15 11 0 73 -66 73 -77 l0 -15 -46 7 c-25 3 -89 18 -142 33 l-97 27 -85 0 -85 0 -65 -28 c-36 -16 -72 -31 -80 -34 -18 -8 35 36 72 60 15 9 49 26 75 37 l48 19 80 0 c44 1 118 -6 165 -14z"/><path d="M5101 3459 c-25 -11 -64 -35 -87 -54 -52 -43 -89 -57 -128 -50 l-31 5 23 -12 24 -12 45 12 46 13 21 -20 c25 -23 88 -51 113 -50 10 0 -3 7 -29 15 -26 8 -50 19 -53 24 -3 5 9 3 28 -5 18 -8 56 -17 84 -20 l50 -7 76 21 c43 12 88 21 102 21 13 0 27 5 31 11 9 15 -56 71 -120 104 l-50 25 -50 0 c-29 0 -70 -9 -95 -21z m46 -18 c-7 -27 11 -51 38 -51 27 0 50 32 41 57 l-6 15 12 -4 c40 -14 33 -80 -12 -103 -40 -21 -57 -19 -85 10 -29 28 -33 70 -7 84 24 14 25 14 19 -8z m145 -2 c11 -6 41 -26 65 -45 l45 -34 -20 0 c-10 0 -45 -9 -78 -20 -93 -33 -198 -26 -262 16 l-26 17 34 28 33 28 18 -39 c20 -44 44 -60 89 -60 l31 0 25 26 26 25 -4 35 c-4 38 -5 38 24 23z"/><path d="M5529 2707 c-36 -13 -124 -56 -195 -95 l-129 -72 -44 0 -44 0 -33 21 -34 21 0 -16 c0 -27 59 -84 105 -101 l43 -17 49 5 c46 4 87 11 238 43 126 26 204 78 219 146 l6 27 -22 26 -23 26 -35 5 -35 5 -66 -24z m85 -19 l-19 -21 29 19 29 19 5 -13 c2 -7 8 -10 12 -7 5 3 4 -8 -1 -25 -6 -16 -15 -33 -21 -36 -5 -4 -5 4 2 16 6 12 9 24 6 28 -3 3 -6 0 -6 -6 0 -16 -51 -73 -60 -67 -4 3 -28 -11 -52 -31 -37 -32 -94 -64 -113 -64 -3 0 11 14 30 32 20 17 54 57 76 89 37 55 73 89 93 89 5 0 1 -10 -10 -22z m-55 -15 c-14 -16 -38 -45 -53 -66 -32 -44 -104 -99 -118 -91 -5 3 -16 0 -25 -8 l-17 -13 8 12 7 13 -15 -6 c-9 -3 -14 -9 -12 -13 2 -3 -19 -7 -47 -8 l-52 -2 33 9 c19 4 38 12 44 18 5 5 -14 3 -43 -4 -86 -22 -171 -11 -194 26 -4 6 7 4 26 -5 l32 -17 45 6 c25 3 82 26 126 50 45 24 104 56 131 71 l50 27 -25 -24 c-14 -13 -34 -34 -45 -48 l-20 -25 40 34 c46 40 125 91 139 91 5 0 -1 -12 -15 -27z"/><path d="M5746 2521 l-29 -19 -41 15 -41 15 -110 -42 -109 -42 -50 -1 c-29 -1 -51 -7 -53 -14 l-5 -13 119 7 c65 3 141 5 168 4 73 -3 129 -2 232 5 l92 5 12 15 11 14 -22 0 c-12 0 -50 16 -84 35 l-62 34 -28 -18z m84 -31 c14 -10 32 -20 40 -23 8 -3 -13 -6 -46 -6 -34 -1 -78 -8 -98 -16 l-35 -15 -41 16 -41 17 -69 -12 c-38 -6 -75 -11 -82 -11 -19 1 121 59 158 66 l32 6 29 -16 30 -15 34 18 c36 19 49 18 89 -9z"/><path d="M5842 2369 c-30 -36 -85 -51 -192 -53 l-85 0 -47 21 c-27 12 -48 18 -48 14 0 -18 105 -52 177 -59 l76 -7 20 -27 21 -28 2 -62 c2 -35 0 -52 -2 -38 -13 66 -35 129 -50 141 l-17 14 22 -43 c12 -24 25 -72 28 -108 3 -37 10 -63 16 -61 16 5 57 159 51 189 -7 35 -26 48 -23 16 1 -12 1 -39 0 -58 l-1 -35 -28 55 -28 55 21 6 c56 16 121 66 114 87 -2 5 -14 -4 -27 -19z"/><path d="M5550 2253 c0 -22 11 -55 25 -78 14 -22 25 -51 25 -64 0 -42 10 -16 24 60 l14 74 2 -80 c4 -143 28 -175 54 -71 18 72 19 120 5 151 l-9 20 6 -41 c3 -23 -2 -72 -12 -115 l-17 -74 -8 35 c-4 19 -8 66 -8 103 l1 68 -18 20 c-9 10 -22 19 -28 18 -6 0 -6 -3 2 -6 l12 -5 -1 -41 c-1 -23 -5 -53 -10 -67 l-8 -25 4 65 5 65 -9 -20 -9 -20 -4 25 -5 25 -2 -40 -2 -40 -10 18 c-6 11 -9 32 -7 48 3 16 1 29 -4 29 -4 0 -8 -17 -8 -37z"/><path d="M5220 2103 c0 -58 70 -239 99 -257 5 -4 -4 18 -20 46 -29 53 -69 166 -69 196 l0 15 23 -19 c12 -11 38 -27 57 -37 l35 -18 -25 18 c-14 10 -42 33 -62 52 l-38 33 0 -29z"/><path d="M5552 1983 l-13 -43 7 -48 c6 -48 113 -283 114 -252 l0 15 10 -15 c12 -18 12 -2 0 25 l-9 20 0 -20 c-1 -11 -23 27 -51 85 l-49 105 -6 55 -5 55 8 -20 c23 -51 57 -136 78 -195 l24 -65 -6 35 c-3 19 -22 73 -41 120 -20 47 -38 108 -42 135 l-6 50 -13 -42z"/><path d="M6080 2008 c152 -18 398 -60 494 -84 54 -14 101 -23 104 -20 5 6 2 7 -58 25 -113 34 -477 92 -565 90 l-50 -2 75 -9z"/><path d="M5814 1922 l0 -77 -42 -89 c-51 -107 -54 -122 -8 -40 55 99 84 231 58 271 -4 6 -7 -23 -8 -65z"/><path d="M6720 1429 c0 -6 8 -23 19 -37 45 -64 84 -191 102 -336 l12 -99 -7 -111 c-4 -61 -11 -131 -15 -156 l-8 -45 -2 127 c-2 186 -34 421 -79 566 -8 28 -19 52 -22 52 -4 0 4 -37 17 -82 13 -46 33 -141 44 -213 l21 -130 4 -190 c2 -104 4 -201 4 -215 l1 -25 9 16 c32 54 50 405 29 555 -11 82 -57 230 -84 271 -23 35 -16 37 49 13 64 -25 203 -113 291 -187 59 -49 141 -157 184 -240 12 -24 24 -43 27 -43 3 0 -16 41 -42 92 l-48 91 -58 63 c-102 109 -391 282 -430 258 l-11 -7 7 11 c4 7 2 12 -3 12 -6 0 -11 -5 -11 -11z"/></g></svg>