<?xml version="1.0" standalone="no"?><!DOCTYPE svg PUBLIC "-//W3C//DTD SVG 20010904//EN" "http://www.w3.org/TR/2001/REC-SVG-20010904/DTD/svg10.dtd"><svg version="1.0" xmlns="http://www.w3.org/2000/svg" width="1024.000000" height="572.000000" viewBox="0 0 1024.000000 572.000000" preserveAspectRatio="xMidYMid meet"><g transform="translate(0.000000,572.000000) scale(0.100000,-0.100000)" fill="#000000" stroke="none"><path d="M5513 5156 c-43 -11 -103 -39 -103 -49 0 -1 48 -2 108 -2 l107 0 50 -27 c104 -55 179 -155 211 -281 l16 -62 -5 -65 c-6 -71 -23 -120 -57 -162 -29 -37 -33 -36 -58 20 -28 62 -37 97 -61 222 -36 185 -67 260 -123 304 -39 29 -120 52 -141 39 l-16 -8 44 -2 c122 -4 179 -91 225 -342 36 -196 82 -291 139 -291 28 0 101 44 101 60 0 6 5 10 10 10 6 0 10 -6 10 -14 0 -15 115 -140 131 -142 5 -1 12 -3 17 -4 4 -1 10 -2 14 -1 3 0 28 -19 55 -42 26 -24 78 -66 115 -95 147 -115 188 -198 223 -446 19 -134 27 -161 57 -193 l21 -23 38 0 c21 0 41 5 44 10 3 6 12 10 18 10 7 0 -3 -14 -20 -30 -34 -31 -73 -46 -97 -37 -7 3 -44 97 -80 209 l-67 203 -39 65 c-22 36 -71 103 -111 150 -39 47 -87 109 -107 137 -19 29 -38 50 -43 48 -4 -3 -13 4 -19 16 -7 11 -14 19 -16 16 -3 -2 11 -31 30 -63 71 -118 105 -263 107 -442 0 -48 5 -109 10 -137 6 -27 12 -79 14 -115 l3 -65 -6 61 -7 61 -28 40 c-15 22 -39 45 -54 52 l-26 12 -51 -25 c-28 -14 -78 -30 -110 -36 -64 -11 -135 -47 -162 -83 l-16 -22 5 17 c4 10 2 20 -3 23 -9 6 -33 -57 -28 -77 1 -7 -6 -40 -16 -72 l-19 -59 7 -86 c7 -92 21 -158 55 -260 11 -35 21 -84 21 -108 l0 -43 -20 -18 c-11 -9 -42 -25 -68 -35 -27 -10 -34 -15 -17 -11 17 3 43 12 59 20 50 24 50 11 1 -39 l-36 -37 -41 0 -41 0 -39 36 c-22 20 -56 42 -74 50 l-34 14 -32 -16 -31 -16 14 -9 c8 -5 32 -9 54 -9 l40 0 34 -23 c62 -40 76 -47 99 -47 78 0 159 -103 177 -224 4 -25 12 -46 17 -46 5 0 6 -5 3 -11 -10 -15 -16 -5 -32 48 l-13 48 6 -50 6 -50 -24 23 c-14 12 -27 20 -30 17 -8 -9 -43 53 -62 110 -15 45 -71 123 -81 113 -8 -7 10 -58 20 -57 5 0 17 -28 26 -61 9 -34 22 -67 28 -73 6 -6 2 15 -10 47 -11 32 -18 63 -16 70 2 6 12 -14 21 -44 10 -30 27 -67 37 -82 11 -16 15 -28 10 -28 -5 0 -12 8 -15 17 l-7 17 -8 -13 -8 -13 -21 27 c-12 15 -24 50 -28 83 l-7 57 -8 -20 c-4 -11 -8 -14 -8 -7 -1 20 -31 86 -36 80 -3 -3 1 -18 10 -34 8 -16 15 -42 15 -57 0 -29 -32 -101 -50 -112 -6 -4 -7 -11 -4 -17 l7 -11 -12 7 c-6 4 -18 2 -26 -4 -8 -6 -19 -9 -25 -5 -6 4 -18 1 -26 -6 -8 -6 -1 13 15 44 l29 55 7 63 c8 78 14 99 26 99 5 0 9 -32 9 -70 0 -70 -12 -109 -47 -160 l-17 -25 21 18 c35 30 51 77 54 160 l4 79 -15 8 c-8 4 -35 10 -60 14 l-46 7 -47 -25 -48 -24 6 19 6 19 -12 0 c-21 0 -77 -40 -81 -58 -3 -10 -43 -37 -92 -62 -155 -78 -208 -144 -246 -304 -25 -109 -33 -124 -76 -142 l-34 -14 -40 9 c-22 5 -42 5 -45 1 -8 -13 47 -48 89 -55 l37 -7 83 26 c130 43 172 94 210 259 33 138 65 205 133 275 57 59 58 57 11 -17 -15 -24 -44 -94 -64 -155 -20 -61 -45 -124 -56 -139 -19 -26 -29 -60 -29 -100 0 -9 -4 -15 -8 -12 -5 2 -19 -10 -31 -28 -30 -43 -83 -83 -136 -102 -24 -8 -65 -22 -91 -31 l-48 -17 -42 -43 -42 -44 -32 -102 c-33 -105 -40 -175 -26 -238 l8 -35 -30 46 c-37 59 -61 128 -61 181 l0 41 35 73 c40 82 40 84 21 84 -18 0 -71 -84 -85 -135 -25 -92 -8 -193 44 -261 15 -19 25 -37 22 -40 -9 -9 -75 75 -115 147 l-41 74 -6 51 -7 50 29 65 c17 35 36 79 43 97 l13 33 66 39 c37 21 80 42 97 46 40 9 105 47 129 75 l20 23 -30 -24 c-17 -14 -51 -33 -75 -43 -91 -37 -187 -88 -208 -110 -11 -12 -32 -51 -45 -87 l-24 -65 -8 160 -7 160 12 45 c17 66 46 106 105 151 57 43 115 120 136 181 16 46 54 96 65 85 5 -5 -2 -36 -15 -70 -13 -34 -38 -102 -54 -150 l-31 -88 10 -27 10 -27 24 2 c41 2 65 9 66 19 0 5 10 29 21 54 l21 45 5 110 c2 61 1 101 -4 90 -4 -11 -8 -58 -9 -105 l0 -85 -19 -40 c-10 -22 -30 -51 -44 -64 l-26 -24 -17 7 -17 6 6 58 6 57 43 105 c25 58 54 124 66 147 41 79 28 127 -57 217 -32 33 -70 79 -85 100 l-26 39 0 48 c0 59 13 90 48 112 15 9 22 17 15 17 -7 0 -24 -11 -39 -23 l-28 -24 -4 -61 -4 -61 25 -44 c14 -23 56 -75 92 -115 l68 -73 4 -43 5 -43 -17 -32 -17 -33 -11 11 -11 11 -28 -27 -28 -27 0 35 c0 19 -4 41 -10 49 l-9 14 -5 -14 c-3 -8 -14 -39 -24 -68 l-18 -53 -1 60 c-3 93 -34 181 -64 181 l-9 0 6 -98 7 -97 -26 -63 c-14 -35 -19 -58 -12 -52 7 6 20 36 30 67 l18 56 -7 89 -6 89 10 -6 c5 -3 17 -31 26 -62 l16 -56 -4 -76 -5 -76 -31 -60 c-40 -76 -59 -99 -101 -120 -19 -9 -55 -38 -81 -64 l-47 -47 -21 -64 c-28 -80 -28 -149 -1 -235 27 -89 32 -79 7 15 l-19 75 5 50 c3 27 14 72 23 100 l18 50 51 52 c62 66 81 68 46 6 l-27 -48 -3 -248 -3 -248 11 -54 c14 -69 51 -138 140 -262 39 -54 107 -152 153 -218 96 -141 145 -191 327 -334 167 -132 279 -258 369 -416 l23 -40 -32 35 c-271 293 -271 294 -412 333 -108 30 -128 43 -181 117 -23 32 -58 68 -78 79 l-37 21 -66 0 c-36 0 -126 -13 -199 -29 -216 -47 -345 -61 -377 -41 l-15 9 -6 138 c-4 76 -12 225 -19 331 l-13 193 12 54 12 54 67 74 c37 41 83 102 102 135 19 34 38 62 41 62 3 0 11 -22 18 -49 16 -63 55 -138 94 -178 31 -34 47 -41 47 -23 0 6 -6 10 -12 10 -22 0 -87 100 -107 164 -40 130 -36 298 10 394 13 26 62 88 109 138 48 49 97 112 110 140 l24 49 4 93 4 93 -12 44 c-19 67 -29 55 -25 -29 l4 -75 -15 -57 c-20 -76 -66 -139 -145 -196 -35 -26 -85 -65 -110 -87 l-46 -41 18 54 c11 30 22 92 25 139 l7 84 -11 19 -11 19 6 -42 c7 -51 -12 -190 -33 -239 -8 -19 -12 -40 -8 -46 4 -6 3 -8 -3 -5 -6 4 -18 -5 -27 -18 -10 -14 -32 -33 -50 -42 l-34 -16 -36 7 c-47 9 -101 57 -131 116 l-24 47 1 59 0 59 11 -34 c13 -37 47 -67 87 -76 l26 -6 27 21 27 21 0 38 c0 41 -13 63 -82 140 -27 29 -59 72 -70 95 l-22 41 0 75 0 75 34 69 c32 64 121 176 104 131 -4 -11 -16 -45 -27 -75 l-19 -55 5 -95 4 -95 33 -90 c18 -49 39 -115 48 -145 l15 -55 -7 -38 -7 -38 -32 -20 c-31 -19 -49 -20 -92 -4 l-20 7 19 -16 c11 -9 33 -16 49 -16 l29 0 34 34 34 34 0 50 0 49 -40 107 c-22 59 -45 137 -52 174 l-11 67 7 68 8 69 31 61 c18 33 37 62 43 64 l11 4 2 -57 c0 -32 3 -59 5 -61 2 -3 -7 -28 -20 -56 l-24 -52 0 -50 c0 -59 17 -99 94 -219 l56 -90 0 -28 c0 -37 -40 -116 -78 -151 -16 -16 -47 -33 -68 -37 l-39 -9 -37 10 c-20 5 -46 21 -57 36 -12 14 -21 21 -21 16 0 -21 53 -63 87 -69 74 -14 146 26 193 110 l30 51 0 40 0 39 -55 87 c-30 48 -65 108 -76 134 l-21 48 4 46 c3 25 12 61 19 80 l14 33 33 -115 c19 -63 44 -138 57 -166 24 -51 82 -131 95 -131 4 0 10 27 12 59 l4 59 27 39 c15 21 42 59 61 86 19 26 42 72 51 102 8 30 17 55 18 55 1 0 2 -48 2 -107 l-1 -108 -12 -23 c-7 -12 -42 -55 -77 -94 -36 -39 -74 -90 -85 -113 -21 -43 -27 -110 -11 -120 12 -7 107 92 138 143 13 21 33 66 44 101 l22 65 -6 115 c-3 64 -4 112 -2 106 2 -5 9 -30 15 -54 6 -23 13 -41 15 -39 2 2 -5 40 -15 83 -11 44 -20 88 -20 98 0 32 -17 18 -29 -25 l-13 -43 -66 -62 c-36 -35 -64 -65 -61 -68 3 -2 35 24 72 59 l66 63 -6 -31 c-8 -44 -25 -73 -82 -144 -28 -35 -53 -77 -57 -97 -3 -19 -10 -35 -15 -35 -14 0 -10 97 5 134 8 18 12 44 9 58 -6 32 25 94 67 133 39 36 90 104 90 119 0 6 -5 4 -11 -4 l-11 -15 5 15 c2 8 10 15 18 15 l14 0 7 45 c3 25 7 79 7 121 1 94 15 136 80 237 46 72 64 122 43 122 -11 0 -87 -81 -101 -107 -6 -12 -20 -60 -31 -108 -22 -93 -41 -138 -88 -199 l-30 -40 -38 -13 c-22 -7 -27 -10 -11 -8 34 7 34 6 -4 -41 -65 -81 -83 -148 -53 -207 l16 -32 -22 21 c-23 23 -36 87 -26 128 3 14 20 42 37 61 18 20 29 38 26 41 -10 10 -68 -71 -78 -110 l-11 -39 17 -42 c8 -24 25 -51 35 -60 23 -21 27 -55 7 -55 -39 0 -96 144 -100 253 l-2 62 39 -1 38 -1 -13 8 c-23 14 -66 10 -73 -7 -12 -31 -5 -94 19 -178 27 -94 47 -131 77 -147 l19 -10 17 13 16 13 -9 -20 c-14 -34 -18 -132 -7 -165 l11 -31 -10 6 c-23 15 -62 93 -94 188 -58 174 -79 303 -55 348 l11 19 60 0 c138 0 228 91 259 260 17 92 30 118 96 189 l59 64 2 97 c3 226 73 385 195 448 l46 24 59 -18 58 -18 115 0 115 -1 40 20 c22 11 39 26 37 33 l-2 12 64 0 c60 0 88 11 71 28 -4 4 -57 9 -118 12 l-112 6 -76 36 c-88 41 -146 90 -199 168 -48 71 -99 116 -148 131 l-38 11 -41 -11 c-22 -6 -83 -40 -134 -76 -52 -36 -102 -70 -112 -76 l-19 -11 13 24 c21 39 122 131 174 160 28 14 79 34 115 43 l65 17 45 -5 c59 -7 222 -62 284 -95 l49 -27 84 -96 c90 -104 183 -183 218 -184 12 -1 32 -9 45 -18 24 -16 50 -23 50 -12 0 3 -11 22 -25 43 -13 20 -44 90 -68 154 -51 133 -92 197 -161 249 -91 69 -207 85 -376 53 -45 -8 -91 -14 -102 -12 l-21 3 74 29 c41 15 109 35 152 44 l77 15 68 -12 c162 -29 231 -107 329 -376 47 -129 94 -217 130 -241 30 -19 29 -6 -6 64 -41 82 -59 145 -71 247 -12 102 -26 161 -40 170 -5 3 -3 -14 5 -37 7 -24 18 -87 24 -141 10 -86 45 -210 70 -241 4 -6 11 -20 15 -30 l6 -19 -13 11 c-24 20 -67 109 -112 232 -24 65 -56 143 -71 171 -37 73 -115 152 -177 180 l-52 24 -105 -1 -105 0 -74 -27 c-120 -43 -164 -76 -124 -92 10 -4 70 -7 133 -6 l115 1 53 -14 c118 -32 179 -89 281 -262 35 -60 71 -117 79 -126 8 -10 11 -18 5 -18 -25 0 -98 61 -218 184 l-130 133 -87 31 c-192 69 -249 75 -355 39 -103 -36 -180 -92 -250 -183 l-25 -34 6 -24 6 -24 -89 -71 c-189 -151 -273 -291 -301 -503 -5 -40 -14 -117 -20 -171 l-11 -98 -29 -46 c-31 -48 -31 -67 -2 -56 9 4 -14 -22 -51 -57 -76 -71 -106 -121 -132 -225 l-18 -70 -1 -105 c-1 -117 13 -182 50 -225 13 -15 24 -34 24 -40 0 -17 81 -178 86 -172 2 2 -7 25 -21 50 -15 25 -35 72 -46 103 l-20 57 0 82 0 82 26 82 26 82 47 48 47 48 120 42 c152 53 195 79 244 144 45 60 72 125 91 217 16 81 41 131 95 195 23 28 52 66 64 85 l22 35 -6 -50 c-7 -53 -12 -64 -93 -215 -27 -52 -64 -141 -81 -197 -53 -173 -105 -230 -267 -291 -171 -65 -218 -102 -263 -203 -11 -25 -23 -65 -26 -89 l-5 -45 15 52 c29 104 76 173 145 216 14 8 70 32 125 52 192 72 225 108 291 317 32 98 92 226 136 289 l17 24 0 -63 c1 -75 -6 -90 -71 -159 -56 -60 -72 -94 -93 -193 -34 -162 -119 -241 -256 -238 l-45 1 -55 -35 c-108 -69 -186 -191 -196 -307 l-6 -58 17 -51 17 -50 63 -74 c95 -111 107 -148 64 -188 l-23 -21 -25 6 c-36 9 -68 42 -81 84 -21 65 -29 58 -29 -25 l0 -79 19 -40 c62 -137 191 -178 268 -87 l23 27 -20 -53 c-11 -29 -20 -77 -20 -106 0 -54 27 -137 50 -151 l11 -7 -6 59 -7 58 12 45 c7 25 21 58 32 75 l20 30 -26 -28 c-29 -31 -46 -83 -47 -147 l-1 -45 -13 30 c-31 66 -10 182 45 258 16 22 70 69 121 105 l93 67 33 48 c43 64 57 115 56 207 l0 75 8 -20 c4 -11 8 -57 8 -102 l1 -82 -21 -57 -22 -58 -91 -96 c-128 -135 -156 -201 -156 -366 l0 -73 -45 -74 c-25 -41 -74 -107 -110 -147 -36 -40 -70 -89 -76 -109 l-11 -36 -90 -39 -90 -39 -212 -140 c-116 -77 -274 -174 -351 -215 -204 -109 -299 -168 -334 -207 -35 -40 -71 -106 -71 -131 l0 -16 21 5 20 5 -55 -62 c-51 -59 -130 -176 -171 -255 -19 -37 -175 -490 -174 -506 0 -13 44 105 115 310 44 125 95 243 118 272 5 6 216 -86 252 -109 57 -37 157 -130 198 -187 44 -59 99 -167 131 -257 21 -58 27 -52 8 10 -3 10 -1 16 3 13 5 -3 -13 41 -40 98 -28 57 -54 101 -59 98 -5 -3 -7 3 -3 13 3 11 1 26 -5 34 l-10 15 7 -24 7 -25 -89 94 c-104 109 -172 156 -280 194 -92 33 -105 41 -97 64 20 58 215 272 275 303 52 26 67 24 134 -19 170 -111 334 -386 435 -731 51 -176 49 -200 -6 -71 -102 235 -154 320 -189 307 -22 -9 -20 -33 10 -172 16 -71 27 -156 28 -206 0 -48 4 -82 8 -75 15 23 7 111 -24 267 l-31 160 12 12 12 12 20 -25 c27 -34 95 -170 154 -307 46 -107 65 -135 65 -95 0 24 -54 232 -85 327 -14 44 -52 134 -85 200 -137 279 -301 455 -424 455 -49 0 -70 -12 -135 -74 l-53 -51 7 25 c11 42 58 103 107 140 26 19 131 79 233 133 103 54 274 156 383 229 108 72 242 153 297 180 l100 49 7 -153 c4 -84 12 -200 18 -258 5 -58 10 -142 10 -188 l0 -83 26 -26 25 -25 52 6 c29 4 68 9 87 12 l35 6 -3 -45 c-4 -42 26 -205 48 -262 16 -41 37 -53 110 -60 36 -3 82 -8 103 -11 l37 -6 0 -17 c0 -9 -14 -55 -31 -101 l-30 -83 12 -28 c20 -50 317 -268 457 -336 l55 -27 46 0 46 -1 0 50 c-1 82 -91 328 -256 698 -49 110 -89 203 -89 206 1 3 15 -10 33 -31 18 -20 62 -58 99 -86 l67 -49 57 -109 c106 -204 199 -355 297 -486 50 -67 77 -85 77 -50 l0 17 -9 -13 -8 -14 -35 44 c-76 94 -190 278 -288 463 l-63 120 32 -30 c79 -72 238 -314 322 -487 22 -46 37 -72 33 -58 -10 42 -122 247 -189 349 -86 130 -162 217 -239 276 -67 51 -79 67 -29 42 15 -8 56 -22 90 -31 35 -8 80 -24 102 -35 43 -22 261 -246 324 -333 39 -53 57 -69 57 -50 0 16 -104 190 -155 258 -86 115 -159 187 -288 286 -173 133 -200 159 -285 282 -42 61 -114 163 -160 226 -72 98 -162 250 -148 250 2 0 19 -26 36 -57 33 -59 156 -191 167 -180 3 4 -13 32 -36 62 -23 31 -53 79 -67 108 l-24 52 0 50 c0 63 15 118 47 173 35 61 40 45 7 -19 l-28 -53 -4 -56 -4 -57 24 -59 c30 -73 126 -203 170 -228 18 -11 72 -57 120 -103 l86 -83 24 -1 c89 -6 129 11 185 78 98 118 99 196 4 329 -57 79 -67 167 -25 209 9 8 14 23 11 33 l-4 17 -17 -38 c-41 -92 -34 -139 36 -243 l52 -76 4 -59 4 -58 -25 -43 c-30 -52 -119 -138 -142 -138 l-16 0 20 26 21 27 0 43 0 44 -35 84 -35 85 0 49 c0 83 45 191 128 305 l35 49 7 -13 8 -12 6 20 c9 28 65 79 138 127 l63 41 23 43 c27 48 42 54 42 16 l0 -26 -79 -78 -80 -78 -14 -50 -15 -49 9 -47 c8 -44 48 -130 56 -122 2 2 -8 27 -22 57 -50 108 -30 178 81 286 l75 74 -3 32 -3 32 -15 1 c-8 0 -24 5 -34 9 l-19 8 -24 -27 c-13 -15 -23 -39 -22 -54 l1 -27 10 38 c10 35 42 66 56 52 10 -10 -31 -77 -61 -99 l-28 -21 -7 12 -7 11 -19 -14 -20 -14 19 0 18 0 -46 -35 c-26 -20 -52 -45 -58 -56 -6 -11 -13 -18 -16 -16 -2 3 3 19 11 36 9 16 16 51 16 76 0 46 -24 115 -40 115 -4 0 1 -17 12 -37 l19 -38 -4 -52 -4 -52 -65 -98 c-92 -139 -96 -146 -120 -210 l-22 -58 1 -60 0 -60 32 -69 c18 -39 34 -89 38 -111 l5 -42 -16 -31 c-18 -34 -51 -48 -88 -37 -23 8 -190 156 -183 163 2 3 18 -8 36 -22 59 -50 76 -6 35 87 -14 31 -29 75 -32 96 l-6 39 17 51 17 51 66 58 c36 31 89 78 117 105 l53 48 28 62 28 62 1 94 0 93 47 38 47 37 80 -38 81 -39 111 0 111 0 -6 -16 c-3 -9 -6 -21 -6 -27 0 -6 -9 -1 -20 11 -28 30 -37 28 -50 -14 l-12 -35 11 -46 c7 -25 30 -75 51 -111 45 -74 54 -110 48 -185 l-4 -52 -43 -95 c-24 -52 -52 -117 -64 -145 l-20 -50 1 -66 c0 -70 18 -123 58 -176 30 -40 98 -76 130 -70 13 2 24 3 24 1 0 -9 -60 -32 -98 -39 l-43 -7 -16 14 -16 13 5 -15 5 -15 56 1 56 1 46 27 c51 31 63 29 45 -5 -27 -50 -130 -387 -180 -589 -41 -165 -80 -391 -80 -464 0 -65 7 -37 19 74 14 128 49 302 96 475 53 195 152 496 175 533 l20 32 25 0 24 0 70 70 70 69 37 76 38 77 8 -23 9 -23 -11 -27 c-7 -15 -34 -47 -61 -72 -27 -24 -49 -51 -49 -58 0 -21 109 92 132 136 11 22 22 41 23 43 3 4 65 -27 65 -32 0 -1 -13 -1 -30 2 l-30 4 0 -12 c0 -19 61 -115 146 -231 42 -57 83 -119 91 -138 l14 -34 -10 -10 -10 -10 -62 18 c-35 9 -97 19 -139 22 l-75 5 -19 -20 -18 -21 6 -33 c14 -73 18 -126 10 -140 -5 -8 -56 -55 -114 -105 -130 -112 -217 -202 -262 -273 -55 -86 -110 -201 -104 -217 3 -8 2 -12 -3 -9 -5 4 -16 -15 -25 -41 -22 -64 -19 -80 4 -18 23 63 25 44 4 -40 l-16 -65 -15 0 c-8 0 -11 -5 -7 -12 l7 -11 17 20 c9 12 28 71 43 131 29 121 74 221 135 298 44 57 192 204 204 204 5 0 8 -42 8 -92 0 -176 50 -608 70 -608 4 0 1 35 -7 78 -25 138 -43 314 -48 457 l-4 140 34 -235 c42 -297 62 -406 81 -442 l15 -28 21 0 c64 0 298 384 298 491 l0 32 -42 42 c-24 22 -49 48 -56 57 l-12 16 50 32 c28 18 59 44 71 58 l20 26 -7 30 c-8 40 -102 236 -112 236 -5 0 15 -48 45 -107 29 -60 53 -122 53 -139 l0 -31 -22 -20 c-29 -26 -100 -73 -110 -73 -22 0 -2 34 42 71 l50 42 0 25 c0 14 -18 70 -40 125 -22 55 -38 102 -35 105 3 3 0 11 -7 19 l-11 14 27 -11 c103 -39 110 12 20 141 -24 35 -76 111 -115 169 l-71 105 15 3 c23 5 113 -33 208 -88 49 -28 130 -68 181 -89 51 -21 113 -50 136 -65 l44 -27 23 -54 c56 -125 157 -575 196 -868 12 -92 27 -167 32 -167 l10 0 -7 167 c-4 93 -16 242 -26 333 l-19 165 -34 115 c-18 63 -43 139 -55 168 -12 28 -17 52 -12 52 22 0 127 -77 184 -134 l61 -62 58 -107 c74 -134 151 -306 217 -484 48 -127 73 -184 55 -123 -60 205 -248 619 -331 729 -68 90 -239 220 -261 197 -4 -4 3 -35 16 -69 45 -117 89 -292 105 -417 16 -128 38 -421 32 -427 -2 -2 -9 36 -15 84 -34 249 -130 687 -182 830 l-22 58 -37 35 c-44 42 -193 125 -315 175 -73 30 -255 122 -255 128 0 1 11 24 25 51 14 27 25 56 25 64 0 8 9 29 19 46 28 45 60 136 62 176 1 19 -1 82 -4 140 l-7 105 9 -25 c5 -14 12 -37 15 -52 12 -53 32 -26 55 75 12 52 8 83 -21 140 -11 21 -26 72 -34 113 -13 72 -26 104 -60 152 -26 35 1 26 34 -13 33 -37 51 -88 53 -145 1 -19 4 -46 8 -60 l8 -25 18 59 17 59 -6 41 c-7 39 -53 132 -62 123 -3 -2 7 -24 21 -48 l25 -44 0 -67 c0 -37 -4 -70 -10 -73 l-10 -6 0 38 c0 21 -5 56 -11 78 l-11 40 -61 63 -62 63 -1 27 c-1 15 -7 54 -14 87 l-12 60 21 102 c11 56 21 114 21 129 l0 28 36 -60 c56 -90 71 -125 77 -179 3 -27 9 -59 13 -70 l7 -20 -37 35 c-47 44 -74 96 -83 157 l-7 48 -6 -30 -6 -30 19 -46 c10 -26 45 -77 78 -113 60 -68 89 -121 89 -160 l-1 -21 -19 48 c-10 27 -44 75 -77 111 -53 57 -67 79 -87 140 -12 35 -16 10 -5 -29 l11 -39 58 -60 c63 -67 93 -117 111 -191 l12 -49 9 24 9 24 -11 50 c-6 28 -21 69 -33 91 -23 42 -25 69 -9 145 l10 45 -10 51 -10 52 -39 48 c-56 70 -95 159 -102 229 l-6 60 9 -31 c5 -17 37 -63 71 -103 69 -83 89 -122 90 -183 l1 -43 13 35 c30 78 13 151 -54 230 -48 57 -89 123 -106 169 -8 20 -14 29 -14 21 -1 -28 46 -115 98 -180 59 -73 81 -118 81 -164 l-1 -31 -23 47 c-13 26 -44 70 -68 96 -25 27 -53 63 -62 80 -23 44 -45 159 -45 227 l1 58 9 -14 c14 -22 11 -8 -11 50 l-21 53 -9 177 c-5 101 -16 197 -24 226 l-15 50 11 10 11 10 -6 -11 c-3 -5 14 -39 39 -74 24 -35 51 -87 59 -114 16 -52 19 -183 6 -271 l-7 -50 -23 68 c-29 85 -37 84 -11 -1 11 -35 26 -105 34 -156 l14 -94 26 -49 c15 -27 52 -80 82 -118 31 -39 65 -87 75 -107 l19 -37 0 -63 0 -63 -21 -34 c-24 -39 -18 -55 6 -17 41 62 41 160 0 231 -13 22 -46 69 -75 104 -45 56 -100 148 -100 167 0 4 13 -11 28 -32 16 -22 59 -66 95 -98 l66 -58 22 -45 22 -46 0 -72 c0 -40 -6 -82 -13 -94 -13 -26 -7 -39 13 -23 l13 11 -1 93 -1 93 -19 39 c-11 22 -58 78 -106 124 l-87 84 -22 49 -21 50 -1 57 c0 31 4 98 10 148 6 50 8 111 6 135 l-4 44 9 -22 c6 -12 17 -71 26 -130 24 -159 70 -244 153 -280 l33 -14 40 -82 40 -82 -3 -95 -3 -95 -22 -44 c-12 -25 -20 -47 -18 -49 3 -3 17 22 32 54 l28 59 0 85 0 85 -38 79 c-20 43 -37 80 -37 82 0 2 10 4 23 4 52 0 104 53 121 123 l6 27 -10 0 c-5 0 -10 -6 -10 -14 0 -7 -9 -25 -21 -40 l-20 -26 -35 0 -35 0 -24 26 -23 25 -12 72 c-45 283 -58 329 -116 415 l-37 52 -116 94 c-186 150 -203 176 -117 176 98 0 167 -43 254 -158 83 -109 108 -151 133 -224 l21 -63 2 -80 c0 -44 -2 -105 -6 -135 l-7 -55 9 22 c5 12 12 56 16 96 l7 74 -12 69 c-15 88 -46 154 -118 257 -103 147 -187 208 -285 210 -51 0 -75 -13 -80 -44 l-3 -20 -57 58 -57 58 24 29 24 30 -6 -41 -5 -41 22 -12 22 -12 59 22 59 22 58 -4 58 -4 32 -22 c17 -13 54 -61 82 -107 28 -47 58 -85 66 -85 20 0 18 8 -19 70 -18 30 -45 80 -59 110 -44 97 -128 172 -190 169 l-23 -1 31 -8 c74 -17 139 -81 178 -174 9 -21 16 -40 16 -42 0 -2 -21 18 -47 45 l-48 49 -41 11 c-46 12 -90 7 -145 -16 -20 -8 -49 -13 -65 -11 l-29 3 -3 26 -3 26 27 34 28 34 -27 -24 c-15 -14 -27 -20 -27 -15 1 23 79 121 110 138 l36 19 38 -7 c51 -10 109 -65 146 -139 l31 -62 -7 40 c-10 67 -60 162 -116 221 l-53 57 -84 39 c-46 21 -88 37 -94 35 -6 -2 -28 22 -48 53 -63 98 -170 175 -284 205 -70 18 -121 18 -192 1z m207 -18 c101 -30 216 -119 266 -204 l24 -41 -15 -36 c-9 -21 -15 -67 -15 -109 0 -40 -5 -104 -10 -143 l-10 -70 -40 -37 -39 -38 -31 0 c-31 0 -41 14 -16 23 24 10 68 113 73 176 7 72 -10 164 -43 238 l-23 54 -63 63 -63 63 -58 21 -58 22 -72 1 -72 0 25 10 c68 28 161 30 240 7z m-397 -116 c56 -25 130 -92 162 -146 13 -23 42 -89 65 -148 22 -59 52 -123 65 -142 13 -20 21 -36 16 -36 -24 0 -69 55 -140 173 -93 155 -142 208 -231 250 l-65 31 -145 6 -145 5 95 13 c52 8 100 16 105 18 6 2 46 2 91 0 l81 -4 46 -20z m-437 -148 l34 -16 70 -94 c88 -117 139 -156 262 -199 l43 -15 92 0 c50 0 95 -4 98 -10 l6 -10 -88 0 -88 0 -102 25 c-172 41 -228 74 -308 181 -57 76 -102 106 -165 114 l-45 6 35 16 c46 21 113 22 156 2z m1254 -28 c77 -36 144 -100 184 -176 l30 -55 -46 46 c-95 98 -197 70 -276 -75 -15 -27 -35 -51 -45 -52 l-18 -2 6 28 c3 16 10 88 14 160 5 72 13 136 18 141 l10 10 13 -32 c7 -17 13 -64 13 -103 l0 -72 -26 -58 c-15 -33 -25 -61 -23 -63 2 -2 16 22 31 53 41 87 43 159 9 273 l-7 23 24 -7 c13 -4 53 -22 89 -39z m-1343 -22 c19 -10 51 -37 71 -62 118 -145 170 -179 336 -217 l101 -24 -80 0 c-44 0 -114 4 -154 9 l-75 10 -60 29 c-34 16 -86 50 -116 76 -30 27 -71 55 -90 63 -45 19 -135 19 -180 0 l-36 -15 0 18 c0 9 3 16 7 14 3 -3 15 5 25 17 11 11 46 38 78 60 l59 38 40 0 c21 0 55 -7 74 -16z m-64 -130 c18 -9 59 -39 92 -67 111 -92 197 -117 413 -117 l123 0 -6 -10 c-19 -31 -219 -44 -320 -21 -27 7 -106 40 -174 74 l-124 62 -86 0 -86 0 -67 -33 -67 -33 -68 -73 -69 -73 -56 -109 c-53 -103 -98 -230 -114 -319 -11 -64 2 -37 24 51 29 114 66 204 130 314 67 115 138 187 229 232 l67 33 76 -1 75 -1 45 -19 c25 -11 74 -34 109 -53 l65 -33 -35 -15 c-69 -29 -140 -113 -175 -207 -13 -34 -23 -53 -23 -43 l-1 18 -21 -6 c-41 -13 -142 -80 -194 -127 -29 -26 -81 -90 -116 -141 -97 -142 -122 -169 -247 -266 -147 -113 -216 -203 -236 -306 l-5 -30 10 25 c62 148 98 195 222 289 123 93 173 146 265 282 l78 114 59 47 c71 57 93 63 43 11 -52 -55 -80 -105 -122 -218 -70 -186 -132 -271 -252 -341 -25 -15 -43 -29 -40 -31 8 -8 94 47 143 92 63 57 106 130 159 272 52 140 97 209 176 270 93 71 87 42 -14 -80 -63 -76 -81 -114 -103 -212 -32 -145 -83 -230 -169 -280 -55 -32 -181 -76 -198 -70 -20 8 -128 -65 -161 -108 -16 -21 -40 -63 -54 -94 l-27 -58 -6 -90 -6 -90 -11 40 c-6 22 -14 65 -18 96 l-6 55 16 104 15 104 28 61 c33 70 60 99 160 179 90 71 118 109 165 223 21 50 54 109 74 132 l36 42 116 56 c153 74 238 131 306 206 l56 61 -3 20 c-4 28 -55 55 -127 67 l-61 11 -61 -11 c-82 -14 -143 -46 -205 -108 l-52 -52 -36 -73 -36 -73 -40 -159 c-46 -182 -68 -238 -113 -284 l-32 -33 18 7 c23 9 72 79 96 140 10 27 40 92 65 145 l46 96 43 40 c24 22 74 57 113 78 38 20 119 70 179 111 200 133 249 123 95 -19 l-72 -66 -135 -66 c-75 -36 -151 -78 -169 -91 -42 -33 -83 -98 -125 -199 l-33 -80 -40 -43 c-48 -52 -67 -64 -86 -52 l-14 9 17 18 c9 10 25 39 37 65 l20 46 -6 29 c-8 41 22 231 52 330 l24 82 50 75 c75 110 220 239 308 271 20 7 63 14 95 14 l58 1 32 -16z m52 -178 l40 -18 -46 -12 c-25 -7 -88 -41 -140 -77 -52 -36 -134 -88 -184 -115 -49 -27 -110 -69 -135 -94 l-45 -45 -34 -78 c-19 -42 -35 -76 -37 -75 -7 8 60 237 86 295 50 111 131 192 228 228 l37 14 95 -2 95 -3 40 -18z m1548 -450 c32 -44 68 -98 79 -120 23 -44 147 -418 142 -425 -11 -12 -83 53 -107 98 l-28 51 -25 134 c-28 154 -35 173 -105 287 -62 99 -40 87 44 -25z m-1643 -246 c-28 -52 -110 -174 -110 -163 0 31 44 124 77 163 36 42 56 42 33 0z m1460 -90 c-19 -4 -26 -8 -15 -9 l19 -1 -67 -47 c-37 -25 -65 -48 -63 -51 3 -2 32 15 65 37 53 37 127 74 108 55 -3 -4 1 -13 11 -20 l17 -13 -35 -1 c-19 0 -46 -8 -60 -16 l-25 -15 20 7 c11 4 35 9 53 12 l33 4 19 -17 c11 -10 20 -23 20 -28 0 -6 -9 -2 -19 7 -27 25 -106 23 -166 -4 -16 -7 -41 -14 -55 -16 -14 -1 -52 -11 -84 -23 -74 -26 -81 -26 -62 0 24 35 77 65 168 94 48 16 87 31 86 34 -1 17 5 21 35 20 l32 -2 -35 -7z m45 -134 l23 -23 7 -49 c9 -72 13 -83 14 -48 0 17 7 37 15 43 l14 11 6 -97 c3 -54 9 -149 12 -211 l7 -112 -12 -61 c-16 -77 -30 -109 -47 -102 l-13 5 -23 -44 -23 -43 0 -110 0 -110 18 -34 c28 -51 37 -25 21 59 -8 41 -14 91 -14 110 l0 35 43 -85 c24 -49 48 -85 57 -85 8 -1 14 -7 12 -14 -2 -8 4 -21 11 -30 27 -30 48 -83 58 -141 5 -32 20 -83 34 -114 27 -62 31 -104 14 -172 -11 -44 -29 -60 -29 -26 0 30 -48 171 -69 206 -12 19 -47 55 -78 82 l-56 48 -23 52 -23 51 -2 70 c-1 38 1 75 5 81 3 6 2 13 -4 17 -14 9 -23 -20 -16 -50 4 -14 4 -36 0 -50 l-6 -26 -15 21 c-8 11 -18 18 -22 16 -4 -3 -31 18 -59 47 l-52 52 -38 80 c-21 44 -42 94 -46 110 l-6 30 12 -17 c7 -9 19 -25 26 -35 7 -10 5 -3 -3 14 -8 18 -35 57 -60 87 l-44 54 -27 87 c-14 47 -24 88 -21 92 3 3 11 -16 18 -41 6 -26 13 -45 16 -43 2 3 -5 42 -17 87 -12 45 -20 103 -18 128 l3 46 35 20 35 19 -27 -29 c-44 -48 -40 -54 47 -68 17 -2 60 -10 96 -17 l66 -12 46 22 46 23 21 -15 c11 -7 17 -17 13 -21 -4 -4 -6 -24 -4 -44 l2 -37 -27 -40 c-14 -22 -19 -33 -10 -25 29 23 48 71 44 106 l-4 34 21 -6 c11 -4 32 -15 48 -26 15 -11 27 -15 27 -10 0 5 -12 14 -27 21 l-27 13 22 16 22 17 -36 0 -36 0 -13 40 c-19 53 -55 80 -128 95 l-59 11 -52 -12 c-28 -6 -63 -18 -78 -25 -39 -20 -45 -17 -19 10 l22 24 79 22 c44 13 77 26 74 31 -3 5 8 7 23 4 15 -2 44 -7 64 -10 46 -7 74 -37 98 -106 11 -30 20 -47 19 -39 0 8 -7 37 -16 64 -21 60 -56 88 -120 96 l-47 6 35 11 c19 6 54 12 78 12 l43 1 24 -24z m-1627 -103 l-5 -78 -21 -41 c-11 -22 -53 -69 -92 -104 l-71 -63 -6 -29 c-7 -35 -19 -36 -27 -3 -14 54 18 122 103 220 34 39 73 94 89 122 15 29 29 53 31 53 2 0 1 -35 -1 -77z m1399 -9 c3 -9 0 -20 -8 -25 l-14 -8 -17 16 c-10 9 -18 11 -18 6 0 -19 29 -35 50 -28 l20 6 0 26 0 25 13 -4 c19 -7 20 -53 2 -72 -22 -22 -68 -20 -89 3 -21 23 -17 56 6 56 9 0 20 4 24 8 12 12 24 8 31 -9z m113 -28 l12 -16 -12 -14 c-13 -17 -78 -41 -87 -32 -3 3 2 13 11 22 9 9 20 29 23 45 l5 28 18 -9 c9 -5 22 -16 30 -24z m-1550 -143 c0 -5 -27 -36 -59 -70 -32 -34 -65 -76 -72 -92 -14 -32 -29 -41 -29 -18 0 30 48 98 100 140 61 51 60 50 60 40z m1801 -135 c12 -24 36 -60 54 -80 38 -46 55 -97 54 -169 l0 -54 -23 63 c-13 35 -41 88 -61 119 l-37 56 -7 53 c-4 30 -6 54 -5 54 2 0 13 -19 25 -42z m-454 -215 l5 -48 -17 -20 -17 -20 6 19 6 18 -20 -5 -20 -5 11 20 c6 11 9 44 7 74 l-3 54 19 -19 19 -19 4 -49z m-1327 -61 c-28 -82 -53 -122 -119 -193 l-50 -54 -1 38 c0 52 26 99 104 185 36 41 68 83 72 95 l7 22 5 -13 c2 -8 -6 -44 -18 -80z m1384 -64 c14 -32 24 -58 23 -58 -2 0 -20 9 -42 20 -41 21 -95 27 -95 11 0 -6 14 -25 31 -43 28 -29 59 -85 59 -105 0 -4 -13 13 -29 38 -29 46 -75 89 -95 89 -6 0 3 -9 20 -20 38 -25 82 -89 91 -133 l7 -32 8 38 8 38 -16 32 c-9 18 -30 47 -47 65 -35 37 -24 43 19 10 46 -37 73 -69 104 -129 l29 -57 16 -98 16 -99 22 -37 c13 -22 49 -55 87 -80 l65 -43 3 -52 c2 -29 -2 -62 -8 -73 -6 -11 -7 -20 -1 -20 15 0 41 78 41 125 l0 44 -63 63 -62 63 -18 79 c-9 44 -15 81 -13 84 7 7 107 -148 137 -212 15 -33 33 -90 38 -126 6 -36 24 -98 41 -138 35 -81 46 -151 35 -209 l-7 -38 -18 53 c-18 54 -24 63 -96 143 l-42 46 -7 53 c-10 75 -27 110 -83 171 -57 63 -78 99 -87 154 -17 102 -49 129 -43 38 l3 -58 21 -30 c11 -16 37 -48 57 -69 20 -22 34 -43 31 -48 -3 -4 2 -8 10 -8 8 0 24 -12 35 -26 34 -43 24 -49 -13 -9 -19 20 -35 39 -34 42 0 3 -27 20 -59 37 l-58 31 -6 35 -6 35 -2 -31 -1 -31 18 -15 c9 -9 35 -25 57 -37 l40 -22 -25 5 c-14 3 -40 6 -59 6 l-35 0 -49 53 c-28 28 -46 45 -41 37 15 -27 76 -110 81 -110 2 0 1 5 -3 11 l-7 11 19 -5 c11 -3 42 -9 69 -13 l50 -7 37 -37 c20 -20 40 -50 43 -66 20 -87 29 -107 64 -148 22 -25 41 -43 44 -40 11 12 38 -51 43 -103 l6 -58 -15 -38 c-18 -41 -15 -50 5 -14 7 12 15 47 19 77 l6 55 1 -50 c2 -63 -47 -215 -70 -215 -4 0 -8 24 -8 54 0 30 -4 57 -9 60 -5 4 -7 -27 -4 -74 l6 -80 -11 0 c-17 0 -29 97 -23 185 l3 40 13 -30 c16 -34 20 -19 5 19 -16 44 -27 29 -34 -45 l-7 -70 -37 53 c-84 120 -89 137 -67 218 38 141 -10 243 -134 286 l-55 19 -45 48 c-25 26 -51 47 -58 47 -24 0 -13 15 25 32 20 10 51 31 69 47 l32 29 17 -19 c9 -10 23 -19 30 -19 l12 0 -5 43 c-3 23 -9 60 -14 82 l-8 40 2 -68 2 -67 -12 17 c-7 9 -13 27 -13 39 0 13 -7 29 -15 38 -8 8 -15 21 -15 29 0 39 -37 114 -77 156 -24 25 -43 48 -42 51 2 3 21 17 43 31 23 14 52 38 65 53 29 31 32 29 65 -46z m-1173 -142 c-16 -34 -49 -79 -72 -101 l-42 -40 22 35 c32 50 78 152 98 218 l18 57 3 -54 3 -54 -30 -61z m773 108 l15 -6 -19 -36 c-11 -21 -24 -71 -31 -112 -13 -87 -29 -123 -66 -147 l-26 -18 -5 13 c-2 7 -8 9 -14 6 l-10 -6 10 18 c5 11 12 26 16 34 3 8 4 2 1 -13 -3 -17 -2 -26 3 -23 6 3 15 36 22 73 19 98 37 144 72 180 18 18 27 33 22 33 -6 0 -19 -9 -29 -20 l-19 -20 -6 11 -7 11 -20 -29 c-27 -37 -65 -114 -60 -119 2 -2 14 19 27 46 13 28 32 58 43 67 l20 18 -6 -15 c-26 -65 -72 -180 -80 -204 -13 -34 -60 -92 -89 -107 l-19 -10 25 48 c14 26 28 68 31 93 l5 45 -15 -55 c-15 -53 -63 -146 -71 -138 -2 3 5 22 15 44 10 21 31 77 46 124 15 47 36 93 46 103 11 10 19 22 19 27 0 14 65 60 91 65 12 3 27 9 33 15 12 12 10 12 30 4z m47 -21 c-5 -10 -14 -51 -20 -91 -12 -74 -27 -114 -64 -164 -29 -39 -40 -35 -17 5 11 18 25 69 31 112 6 44 15 89 21 100 14 27 39 55 50 55 5 0 5 -8 -1 -17z m405 -59 c45 -55 90 -154 107 -241 17 -84 36 -119 83 -153 33 -24 64 -67 64 -89 0 -5 -13 3 -28 17 -16 15 -50 39 -76 54 l-47 28 -19 42 c-10 24 -25 83 -33 131 -18 104 -50 175 -110 243 l-42 48 34 -20 c18 -10 48 -37 67 -60z m-721 -76 c-18 -35 -45 -108 -59 -164 -27 -111 -45 -158 -73 -189 -24 -27 -73 -61 -101 -69 l-22 -7 25 36 c13 20 27 53 30 74 4 20 14 72 22 115 l17 79 31 46 c25 37 143 141 160 141 3 0 -11 -28 -30 -62z m-97 -25 c-61 -63 -82 -109 -103 -223 -20 -111 -44 -164 -85 -185 -35 -18 -120 -20 -143 -2 l-17 12 49 0 49 0 27 25 c32 30 41 52 60 142 24 114 68 181 169 256 46 35 44 26 -6 -25z m925 25 c2 4 3 2 1 -5 -1 -6 6 -19 17 -29 10 -9 32 -45 48 -79 l29 -62 63 -54 62 -54 20 -44 19 -44 9 -131 c4 -72 8 -151 8 -176 l-1 -45 -13 60 c-7 33 -24 85 -38 115 -13 30 -30 87 -36 125 -7 39 -23 93 -35 121 -27 58 -142 234 -154 234 -5 0 -18 21 -31 47 l-22 46 25 -16 c13 -9 26 -13 29 -9z m-378 -88 c9 -10 29 -22 43 -26 l27 -8 -50 -7 c-27 -4 -72 -8 -100 -8 l-50 -1 36 30 c20 16 42 44 50 61 l13 33 7 -28 c4 -16 15 -36 24 -46z m134 -72 l34 -14 -55 -37 -56 -36 -128 -2 -129 -1 -67 27 c-63 25 -85 44 -55 46 6 1 26 2 43 4 17 1 41 8 54 15 l23 12 81 -6 c44 -3 97 -2 116 3 43 12 94 8 139 -11z m-19 -177 l45 -47 43 -14 c24 -7 63 -31 87 -52 l44 -39 11 -52 11 -52 -9 -40 -10 -40 -1 26 c-1 14 -8 48 -16 76 l-15 51 -40 36 c-22 20 -47 36 -55 36 -28 0 -140 57 -167 85 -26 26 -36 63 -21 78 13 14 49 -6 93 -52z m-588 -73 c-7 -38 -22 -88 -33 -113 l-21 -46 -71 -62 c-39 -34 -94 -85 -122 -112 l-51 -51 -13 -47 c-17 -59 -10 -115 24 -191 14 -32 25 -68 23 -80 l-3 -21 -33 32 c-18 18 -36 33 -40 34 -24 6 -35 16 -53 50 -20 41 -32 52 -23 22 l6 -18 -21 25 c-11 14 -21 21 -21 17 0 -5 23 -33 51 -63 59 -61 53 -72 -9 -18 l-42 35 -16 56 -16 57 5 65 c3 36 17 103 32 149 l26 83 35 39 c21 23 54 46 82 56 155 54 205 85 243 148 l19 31 0 -25 c0 -33 -40 -116 -74 -157 -35 -42 -77 -66 -156 -93 -80 -27 -113 -50 -134 -94 l-16 -34 0 -66 0 -67 30 -77 c26 -66 60 -129 60 -110 0 3 -16 40 -36 83 l-36 78 -5 58 c-7 76 2 122 33 158 l25 30 78 26 c152 50 203 111 252 295 l12 45 10 -30 10 -30 -11 -67z m628 -33 c41 -16 85 -35 97 -42 27 -18 59 -83 68 -138 l6 -41 -29 -56 c-16 -30 -35 -72 -41 -91 l-12 -36 11 -43 c7 -24 25 -65 42 -92 l30 -49 -1 -58 0 -59 -26 -45 c-26 -44 -108 -125 -127 -125 -5 0 -6 -4 -3 -10 3 -6 -1 -7 -10 -4 l-16 6 16 22 c30 40 55 101 55 134 l0 34 -60 63 c-93 96 -99 148 -29 256 58 89 71 126 71 200 l0 66 -22 42 c-12 24 -23 41 -26 39 -2 -2 5 -22 16 -43 l20 -39 0 -63 0 -63 -25 -51 c-13 -28 -38 -73 -56 -101 l-32 -50 -5 -48 -4 -49 20 -33 c12 -18 41 -53 66 -78 l46 -44 6 -32 6 -33 -28 -51 c-33 -60 -66 -90 -101 -90 l-24 0 15 16 16 15 0 56 0 55 -36 81 -37 80 6 56 5 56 38 85 c21 48 39 107 42 135 l4 51 -15 34 c-8 19 -38 62 -67 95 -29 33 -59 74 -66 92 -14 33 -19 125 -8 136 4 4 34 -22 68 -57 l61 -63 75 -28z m-74 -181 l17 -44 -6 -38 c-4 -21 -25 -81 -47 -134 l-40 -96 0 -60 0 -60 35 -73 35 -73 0 -46 c0 -46 -13 -70 -36 -70 -25 0 -74 52 -100 107 l-26 56 4 71 5 71 59 130 59 130 0 85 c0 47 -4 94 -9 105 l-9 20 21 -19 c12 -10 29 -38 38 -62z m303 -246 c28 -41 56 -88 62 -107 l11 -32 -35 -72 c-38 -76 -107 -161 -160 -199 l-32 -22 32 37 c18 21 43 57 55 80 l22 42 0 55 0 55 -37 66 -37 66 0 44 0 45 27 55 28 54 6 -47 7 -47 51 -73z m254 -631 l28 -12 40 -94 c22 -52 42 -111 45 -130 l6 -36 -47 -33 c-26 -18 -51 -45 -57 -62 -5 -17 -13 -30 -17 -30 -4 0 -16 -7 -27 -15 l-19 -15 39 17 39 18 5 -15 c3 -8 30 -39 60 -67 l55 -53 -6 -34 c-6 -39 -107 -245 -163 -331 -45 -71 -102 -135 -120 -135 -34 0 -54 78 -89 360 -9 69 -23 167 -31 219 -8 51 -17 111 -19 132 l-4 38 17 13 17 13 -14 -17 c-7 -10 -10 -18 -6 -18 14 0 77 52 71 58 -3 3 -16 -3 -28 -14 -13 -10 -4 1 20 24 23 24 42 48 42 54 0 6 3 9 6 5 3 -3 -4 -20 -17 -38 l-22 -32 14 5 c8 2 22 21 33 42 l18 37 -11 44 c-15 58 -14 102 2 108 23 10 112 6 140 -6z m-1551 -7 l37 -11 12 -37 c6 -20 47 -114 89 -208 151 -330 270 -649 270 -720 l0 -34 -30 0 c-16 0 -49 8 -72 17 -88 34 -359 218 -450 304 l-38 36 0 24 c0 13 13 58 30 99 47 120 39 137 -72 160 -31 6 -72 21 -90 33 l-32 22 -12 40 c-7 22 -13 32 -13 22 -2 -35 28 -86 58 -102 17 -8 57 -22 88 -30 l58 -15 -85 6 c-46 3 -92 10 -101 15 -26 13 -79 202 -79 278 l0 30 18 10 c9 5 51 14 92 21 41 6 111 20 155 30 95 22 118 23 167 10z"/><path d="M5255 4064 c-171 -20 -277 -51 -296 -86 -12 -22 -6 -48 12 -48 l11 0 -12 15 -13 15 18 20 c35 38 174 67 380 80 l120 7 -95 0 c-52 0 -108 -2 -125 -3z"/><path d="M5030 3927 l-44 -11 -52 -50 -51 -51 -28 -75 c-15 -41 -36 -89 -46 -106 -32 -53 -18 -99 19 -62 7 7 12 8 12 3 0 -6 -17 -19 -37 -30 -20 -11 -39 -26 -41 -34 -3 -7 5 -4 17 8 11 11 26 21 32 21 6 0 28 15 48 33 20 17 47 39 61 49 l25 16 -18 7 -18 8 -27 -25 c-31 -29 -71 -52 -79 -44 -9 9 32 56 47 53 8 -1 26 6 40 16 13 9 38 17 55 16 l30 -1 -25 -7 -25 -7 12 -7 c6 -4 23 -2 37 4 l26 12 92 -11 c93 -12 223 -47 269 -73 28 -16 50 -21 102 -22 20 -1 37 -5 37 -10 0 -5 16 -53 36 -106 20 -53 47 -136 60 -186 14 -52 21 -71 18 -45 -3 25 -28 111 -55 192 -27 81 -49 158 -48 170 l1 23 8 -25 8 -25 1 32 c1 42 -15 51 -27 16 l-10 -28 -1 33 -1 33 -23 23 c-13 13 -50 31 -83 40 -32 9 -78 25 -102 36 -23 11 -56 20 -73 20 -16 0 -57 12 -91 26 l-62 26 -39 -12 c-21 -6 -41 -18 -44 -26 -3 -8 -10 -14 -17 -14 -6 0 -34 -16 -62 -34 l-52 -35 20 51 c54 142 110 184 263 198 l80 7 -65 0 c-36 0 -85 -4 -110 -10z m179 -214 c35 -21 63 -42 62 -47 -1 -5 15 -17 36 -27 l38 -19 -25 6 c-14 3 -63 26 -110 50 l-85 44 35 -30 35 -31 -20 5 c-11 3 -39 10 -63 16 -23 6 -48 8 -54 4 -6 -4 -8 -3 -5 3 4 6 -6 16 -22 23 l-30 12 -48 -10 c-26 -6 -49 -9 -52 -7 -2 2 10 7 25 10 16 4 45 13 64 20 19 8 62 14 95 14 l60 1 64 -37z m47 9 c-3 -5 19 -16 49 -26 l55 -17 23 -32 c13 -18 28 -38 32 -45 l7 -14 -18 10 c-11 6 -57 35 -102 66 l-84 54 19 5 c10 3 19 5 21 6 2 0 1 -3 -2 -7z"/><path d="M5034 3575 c-27 -14 -62 -36 -79 -50 l-30 -25 20 7 20 6 -19 -21 c-11 -12 -33 -26 -50 -31 l-31 -9 22 -1 c13 -1 47 21 84 52 34 28 71 59 82 67 l21 15 85 0 86 0 72 -48 c39 -26 75 -47 80 -47 4 0 -30 25 -76 55 l-84 55 -77 0 -76 0 -50 -25z"/><path d="M5090 3524 c-25 -9 -70 -36 -102 -60 l-56 -44 -34 0 c-19 0 -52 9 -73 20 l-40 19 23 -19 c29 -24 93 -42 118 -34 l19 7 -11 -12 -12 -13 -60 4 -60 3 6 -13 5 -14 47 4 c27 1 46 0 44 -4 -2 -4 0 -9 6 -13 5 -3 10 -2 10 4 0 5 20 24 45 41 l45 31 29 -22 c48 -36 180 -46 217 -18 6 5 14 6 17 2 4 -3 7 -1 7 5 l0 12 56 0 c31 0 54 4 52 10 -1 5 -27 27 -57 50 -30 22 -51 40 -47 40 12 0 90 -41 109 -58 9 -8 27 -20 39 -26 33 -17 31 -27 -17 -88 -44 -57 -110 -109 -154 -123 l-23 -7 3 11 c2 6 29 25 59 43 57 35 95 84 84 112 -9 23 -50 20 -92 -6 -20 -12 -56 -28 -82 -34 l-45 -13 26 0 c15 -1 53 13 84 29 86 45 122 37 89 -19 -17 -28 -148 -114 -189 -124 -11 -2 8 -3 42 -2 l62 3 35 22 c20 12 65 54 101 93 l65 72 0 36 c0 19 -7 44 -16 55 l-15 19 10 -22 c11 -21 6 -53 -9 -53 -4 0 -20 12 -36 26 -15 15 -51 38 -79 52 l-50 26 -75 3 -75 3 -45 -16z m128 -41 c7 -48 -69 -82 -112 -50 l-18 13 4 24 c4 31 21 35 33 8 6 -12 15 -23 21 -25 17 -6 46 27 40 44 l-6 14 18 -3 c9 -2 18 -13 20 -25z m53 10 c56 -33 46 -64 -26 -82 -65 -16 -69 -14 -41 20 14 17 26 41 26 55 0 29 3 29 41 7z"/><path d="M5407 3039 c-62 -33 -207 -242 -184 -266 14 -14 150 183 142 205 -3 7 0 10 5 7 6 -3 7 1 4 9 -3 9 -2 16 3 16 5 0 7 -25 5 -55 l-4 -54 30 -31 30 -30 44 1 43 2 -44 7 -44 7 -24 27 c-51 60 -12 166 61 166 l33 0 23 -25 c13 -14 31 -25 39 -24 l16 0 -20 8 c-11 5 -29 18 -39 30 l-19 21 -31 0 c-17 -1 -48 -10 -69 -21z"/><path d="M5197 2727 c-10 -18 -45 -49 -78 -70 -33 -22 -78 -61 -99 -89 l-39 -49 -23 -72 c-12 -40 -20 -80 -19 -90 1 -10 -7 -34 -18 -53 -12 -19 -16 -32 -11 -29 18 11 36 57 54 135 33 140 90 204 257 290 54 28 99 53 99 56 0 2 -17 -4 -37 -15 -21 -10 -49 -22 -61 -26 l-24 -7 12 22 c6 12 10 23 8 25 -2 3 -12 -10 -21 -28z"/><path d="M4955 2590 c23 -72 -61 -183 -149 -194 -79 -11 -246 -109 -224 -132 4 -3 11 4 18 15 13 26 83 62 172 89 111 35 164 73 187 135 14 37 14 94 0 103 l-11 7 7 -23z"/><path d="M5602 2340 l21 -29 -11 -38 c-6 -21 -30 -60 -53 -88 -57 -68 -69 -102 -67 -182 l1 -68 6 76 7 77 29 42 c17 23 42 60 57 83 l27 40 5 -14 c3 -8 16 -47 30 -87 l26 -73 0 -54 c0 -56 -62 -320 -86 -367 -8 -15 -14 -37 -13 -50 l1 -23 8 32 c4 18 12 39 18 46 6 7 20 53 31 102 12 50 28 115 36 145 8 30 15 82 15 115 l0 60 -30 85 c-17 46 -30 99 -30 118 0 39 -13 67 -35 76 l-15 5 22 -29z"/><path d="M5272 1990 c-2 -64 12 -116 55 -206 l37 -79 0 -75 0 -75 -22 -45 c-12 -25 -35 -61 -52 -80 l-30 -35 0 -36 0 -37 35 -31 c34 -29 80 -49 91 -38 3 2 -9 19 -26 36 -17 17 -30 39 -28 48 2 11 36 35 83 60 114 59 156 116 154 208 l-1 30 -12 -55 c-13 -61 -38 -114 -58 -124 -7 -3 -49 -25 -93 -49 l-80 -42 -3 -23 c-2 -13 4 -34 12 -48 22 -33 5 -30 -33 5 l-31 29 0 27 c0 42 15 60 74 89 l55 27 58 63 c32 35 68 84 81 109 l22 44 -21 68 c-11 37 -22 65 -24 63 -2 -2 2 -26 10 -53 8 -26 15 -60 15 -75 0 -50 -106 -182 -182 -227 l-38 -22 27 52 27 52 1 80 0 80 -43 98 -44 99 -8 66 -7 67 -1 -45z"/><path d="M5524 1357 l-50 -54 -35 -7 -34 -7 19 -11 c10 -5 43 -8 72 -6 l55 5 30 22 30 22 44 -16 c24 -10 49 -15 55 -13 7 2 -16 12 -50 22 l-61 18 -22 -19 -22 -20 -55 -7 -55 -7 30 19 c17 10 44 35 62 55 17 19 34 33 37 30 3 -4 6 1 6 10 0 23 1 24 -56 -36z"/><path d="M2870 824 c0 -5 36 -10 81 -10 l80 -2 62 -30 c77 -38 136 -98 182 -182 19 -36 35 -61 35 -56 0 4 -15 36 -32 70 -42 78 -112 147 -185 181 l-57 27 -83 6 c-46 2 -83 1 -83 -4z"/></g></svg>