<svg width="144" height="104" viewBox="0 0 144 104" fill="none" xmlns="http://www.w3.org/2000/svg">
  <defs>
    <linearGradient id="quotesBg" x1="16" y1="14" x2="128" y2="92" gradientUnits="userSpaceOnUse">
      <stop stop-color="#A78BFA"/>
      <stop offset="1" stop-color="#F472B6"/>
    </linearGradient>
  </defs>
  <rect x="16" y="14" width="112" height="76" rx="16" fill="url(#quotesBg)" fill-opacity="0.26"/>
  <rect x="28" y="24" width="88" height="56" rx="10" fill="white" fill-opacity="0.88"/>
  <path d="M45 43C45 37.5 48.6 34 54.2 34H56V39H54.9C51.7 39 50.2 40.6 50.2 43V44.2H56V57H45V43ZM66 43C66 37.5 69.6 34 75.2 34H77V39H75.9C72.7 39 71.2 40.6 71.2 43V44.2H77V57H66V43Z" fill="#7C3AED" fill-opacity="0.62"/>
  <rect x="45" y="62" width="54" height="4" rx="2" fill="#A855F7" fill-opacity="0.36"/>
</svg>
